<svg width="540" height="360" viewBox="0 0 540 360" fill="none" xmlns="http://www.w3.org/2000/svg">
<path d="M60.5176 103.306H478.554" stroke="#DED8D5" stroke-width="3.9"/>
<path d="M473.071 334.53H65.9591C62.9453 334.53 60.5176 332.102 60.5176 329.088V81.3302C60.5176 78.3164 62.9453 75.8887 65.9591 75.8887H473.071C476.126 75.8887 478.554 78.3164 478.554 81.3302V329.088C478.554 332.102 476.126 334.53 473.071 334.53Z" stroke="#DED8D5" stroke-width="3.9"/>
<path d="M88.0604 89.8693C88.0604 91.9622 86.3442 93.6783 84.2095 93.6783C82.1166 93.6783 80.4004 91.9622 80.4004 89.8693C80.4004 87.7345 82.1166 86.0602 84.2095 86.0602C86.3442 86.0602 88.0604 87.7345 88.0604 89.8693Z" fill="#FFB1A5"/>
<path d="M102.92 89.8693C102.92 91.9622 101.204 93.6783 99.0689 93.6783C96.9759 93.6783 95.2598 91.9622 95.2598 89.8693C95.2598 87.7345 96.9759 86.0602 99.0689 86.0602C101.204 86.0602 102.92 87.7345 102.92 89.8693Z" fill="#EAD254"/>
<path d="M117.779 89.8693C117.779 91.9622 116.063 93.6783 113.928 93.6783C111.835 93.6783 110.119 91.9622 110.119 89.8693C110.119 87.7345 111.835 86.0602 113.928 86.0602C116.063 86.0602 117.779 87.7345 117.779 89.8693Z" fill="#00857B"/>
<path d="M532.844 195.603H434.603C431.84 195.603 429.58 193.342 429.58 190.58V99.7059C429.58 96.9433 431.84 94.6829 434.603 94.6829H532.844C535.648 94.6829 537.867 96.9433 537.867 99.7059V190.58C537.867 193.342 535.648 195.603 532.844 195.603Z" fill="#EDEDED"/>
<path d="M532.844 195.603H434.603C431.84 195.603 429.58 193.342 429.58 190.58V99.7059C429.58 96.9433 431.84 94.6829 434.603 94.6829H532.844C535.648 94.6829 537.867 96.9433 537.867 99.7059V190.58C537.867 193.342 535.648 195.603 532.844 195.603Z" stroke="#DED8D5" stroke-width="3.9"/>
<path d="M458.378 169.358H509.445C512.208 169.358 514.468 167.097 514.468 164.293V122.435C514.468 119.672 512.208 117.412 509.445 117.412H458.378C455.574 117.412 453.313 119.672 453.313 122.435V164.293C453.313 167.097 455.574 169.358 458.378 169.358Z" fill="#C98BD2"/>
<path d="M497.851 152.028H473.95H469.639V133.109H497.851V137.839V152.028Z" stroke="white" stroke-width="3.3" stroke-linecap="round" stroke-linejoin="round"/>
<path d="M469.639 133.109L483.745 144.201L497.851 133.109" stroke="white" stroke-width="3.3" stroke-linecap="round" stroke-linejoin="round"/>
<path d="M100.492 271.659H6.77182C4.13476 271.659 2 269.524 2 266.887V185.222C2 182.543 4.13476 180.408 6.77182 180.408H100.492C103.129 180.408 105.264 182.543 105.264 185.222V266.887C105.264 269.524 103.129 271.659 100.492 271.659Z" fill="#EDEDED"/>
<path d="M100.492 271.659H6.77182C4.13476 271.659 2 269.524 2 266.887V185.222C2 182.543 4.13476 180.408 6.77182 180.408H100.492C103.129 180.408 105.264 182.543 105.264 185.222V266.887C105.264 269.524 103.129 271.659 100.492 271.659Z" stroke="#DED8D5" stroke-width="3.9"/>
<path d="M77.6791 254.078H29.0819C26.0263 254.078 23.5566 251.609 23.5566 248.553V201.588C23.5566 198.533 26.0263 196.063 29.0819 196.063H77.6791C80.7766 196.063 83.2462 198.533 83.2462 201.588V248.553C83.2462 251.609 80.7766 254.078 77.6791 254.078Z" fill="#FFB1A5"/>
<path fill-rule="evenodd" clip-rule="evenodd" d="M65.7075 213.685C72.2374 220.215 72.2374 231.015 65.7075 237.545C59.1358 244.116 48.3783 244.116 41.8066 237.545C35.2767 231.015 35.2767 220.215 41.8066 213.685C48.3783 207.114 59.1358 207.114 65.7075 213.685ZM58.1731 211.048C59.0381 212.723 59.7358 214.411 60.266 216.113H65.6657C63.7821 213.727 61.1869 211.927 58.1731 211.048ZM59.973 224.61C59.973 222.434 59.7218 220.257 59.1777 218.081H48.3783C47.8341 220.257 47.583 222.434 47.583 224.61H59.973ZM47.6248 226.62C47.7644 228.796 48.155 230.973 48.7969 233.149H58.7172C59.3312 230.973 59.7218 228.796 59.8893 226.62H47.6248ZM51.3502 210.588C50.3177 212.43 49.5085 214.271 48.9224 216.113H58.5917C57.9777 214.271 57.1545 212.43 56.122 210.588C55.3686 210.448 54.5733 210.379 53.7361 210.379C52.9269 210.379 52.1316 210.448 51.3502 210.588ZM41.8484 216.113H47.2481C47.7783 214.411 48.476 212.723 49.341 211.048C46.3691 211.927 43.7739 213.727 41.8484 216.113ZM38.5416 224.61H45.8249C45.8529 222.434 46.1319 220.257 46.6621 218.081H40.509C39.4207 220.048 38.7091 222.266 38.5416 224.61ZM46.8714 233.149C46.2854 230.973 45.9366 228.796 45.8249 226.62H38.5416C38.7091 228.964 39.4207 231.182 40.509 233.149H46.8714ZM49.5503 240.265C48.7132 238.535 48.0155 236.819 47.4574 235.117H41.8484C43.8158 237.545 46.4528 239.386 49.5503 240.265ZM55.7453 240.726C56.6941 238.856 57.4894 236.986 58.1312 235.117H49.4247C50.0387 236.986 50.82 238.856 51.7688 240.726C52.4106 240.809 53.0803 240.851 53.778 240.851C54.4477 240.851 55.1035 240.809 55.7453 240.726ZM65.6657 235.117H60.0567C59.4986 236.819 58.8009 238.535 57.9638 240.265C61.0613 239.386 63.6983 237.545 65.6657 235.117ZM68.9725 226.62H61.6892C61.5775 228.796 61.2287 230.973 60.6427 233.149H67.0051C68.0934 231.182 68.805 228.964 68.9725 226.62ZM67.0051 218.081H60.852C61.3822 220.257 61.6613 222.434 61.6892 224.61H68.9725C68.805 222.266 68.0934 220.048 67.0051 218.081Z" fill="white"/>
<path d="M94.9249 52.0296H10.0367C8.27864 52.0296 6.85547 50.6064 6.85547 48.8484C6.85547 47.0903 8.27864 45.6671 10.0367 45.6671H94.9249C96.641 45.6671 98.0642 47.0903 98.0642 48.8484C98.0642 50.6064 96.641 52.0296 94.9249 52.0296Z" fill="#C98BD2"/>
<path d="M536.318 259.353H495.129C493.371 259.353 491.948 257.929 491.948 256.171C491.948 254.455 493.371 253.032 495.129 253.032H536.318C538.076 253.032 539.499 254.455 539.499 256.171C539.499 257.929 538.076 259.353 536.318 259.353Z" fill="#56DFED"/>
<path d="M507.478 296.104H502.413C501.116 296.104 500.027 295.016 500.027 293.718V288.988C500.027 287.649 501.116 286.602 502.413 286.602H507.478C508.776 286.602 509.864 287.649 509.864 288.988V293.718C509.864 295.016 508.776 296.104 507.478 296.104Z" fill="#C98BD2"/>
<path d="M30.2544 318.079H25.1896C23.892 318.079 22.8037 317.033 22.8037 315.694V310.964C22.8037 309.666 23.892 308.578 25.1896 308.578H30.2544C31.552 308.578 32.6404 309.666 32.6404 310.964V315.694C32.6404 317.033 31.552 318.079 30.2544 318.079Z" fill="#FFB1A5"/>
<path d="M415.557 48.7228H331.758C330.376 48.7228 329.246 47.5926 329.246 46.2113V25.7427C329.246 24.3614 330.376 23.2312 331.758 23.2312H415.557C416.939 23.2312 418.069 24.3614 418.069 25.7427V46.2113C418.069 47.5926 416.939 48.7228 415.557 48.7228Z" fill="#FFB1A5"/>
<path d="M341.344 32.3144H400.95" stroke="white" stroke-width="2.4"/>
<path d="M341.344 38.4257H365.621" stroke="white" stroke-width="2.4"/>
<path d="M338.915 45.8346V55.7968L351.431 45.8346H338.915Z" fill="#FFB1A5"/>
<path d="M209.7 50.2715H169.139C165.205 50.2715 162.023 47.0485 162.023 43.1138V5.39969C162.023 2.42777 164.451 0 167.423 0H209.7C212.714 0 215.141 2.42777 215.141 5.39969V44.83C215.141 47.8438 212.714 50.2715 209.7 50.2715Z" fill="#56DFED"/>
<path fill-rule="evenodd" clip-rule="evenodd" d="M200.952 32.7748C200.742 32.9841 200.491 33.2771 200.24 33.4864C199.877 33.8213 199.556 34.1422 199.277 34.4492C199.235 34.5329 199.235 34.5329 199.235 34.5329C198.356 35.4119 197.31 35.9142 196.012 35.9142C195.845 35.9142 195.719 35.9142 195.636 35.9142C193.71 35.7468 191.994 35.0352 190.738 34.4492C187.39 32.8586 184.543 30.5564 182.115 27.71C180.106 25.3241 178.767 23.1056 177.888 20.636C177.511 19.6733 177.092 18.1664 177.218 16.5339C177.302 15.4875 177.762 14.6084 178.432 13.8969L180.357 12.0132C180.943 11.3854 181.571 11.1342 182.283 11.1342C182.994 11.1342 183.664 11.4691 184.208 12.0132C184.543 12.3062 184.92 12.683 185.255 13.0178C185.422 13.2271 185.59 13.3946 185.757 13.562L187.264 15.0689C187.85 15.6549 188.185 16.3665 188.185 17.0781C188.185 17.7897 187.85 18.4594 187.264 19.0872C187.097 19.2268 186.929 19.3803 186.762 19.5477C186.385 19.9244 186.008 20.3848 185.59 20.7616C185.841 21.3894 186.343 22.1429 186.971 22.9382C188.394 24.6962 189.859 26.0357 191.45 27.0821C191.617 27.1659 191.785 27.2077 191.994 27.3333C192.106 27.3891 192.217 27.4449 192.329 27.5007L194.045 25.7845C194.589 25.2404 195.301 24.9055 196.012 24.9055C196.682 24.9055 197.394 25.2404 197.938 25.8264L200.952 28.8402C202.082 29.9703 202.082 31.6028 200.952 32.7748ZM199.738 30.0959L196.682 27.0821C196.515 26.9147 196.263 26.6636 196.012 26.6636C195.677 26.6636 195.384 26.9147 195.259 27.0821L193.333 28.9658C192.915 29.3843 192.371 29.5099 191.827 29.2169L191.785 29.175C191.617 29.0495 191.45 29.0076 191.24 28.882C191.031 28.7983 190.738 28.6727 190.529 28.5053C188.771 27.3751 187.138 25.9101 185.632 24.0265C184.836 22.9382 184.208 22.101 183.832 21.1383V21.0546C183.748 20.7616 183.622 20.2593 184.166 19.7151C184.208 19.6733 184.208 19.6733 184.208 19.6733C184.669 19.2128 185.087 18.7942 185.59 18.3338C185.729 18.1664 185.883 17.9989 186.05 17.8315C186.218 17.6641 186.427 17.4129 186.427 17.0781C186.427 16.7851 186.218 16.492 186.05 16.3246L184.543 14.8177C184.334 14.6503 184.166 14.441 183.999 14.2736C183.692 13.9387 183.371 13.6178 183.036 13.3108C182.827 13.0597 182.618 12.9341 182.283 12.9341C181.948 12.9341 181.697 13.1434 181.529 13.3108L179.688 15.1107C179.185 15.5712 178.976 16.1153 178.934 16.7013C178.809 17.7059 179.06 18.7524 179.562 20.05C180.441 22.2685 181.697 24.3614 183.539 26.5798C185.799 29.2588 188.478 31.3935 191.575 32.9004C192.664 33.4446 194.171 34.0724 195.761 34.198C195.887 34.198 195.929 34.198 196.054 34.198C196.849 34.198 197.436 33.905 197.98 33.3609C198.356 32.9841 198.691 32.6074 199.068 32.3144C199.291 32.0912 199.514 31.8679 199.738 31.6447C200.198 31.1005 200.198 30.5564 199.738 30.0959Z" fill="white"/>
<mask id="mask0_1223_327" style="mask-type:luminance" maskUnits="userSpaceOnUse" x="99" y="55" width="385" height="279">
<path d="M483.493 333.86H99.0059V55.3489H483.493V333.86Z" fill="white"/>
</mask>
<g mask="url(#mask0_1223_327)">
<path d="M386.131 240.516L355.574 236.414L355.826 239.47L329.706 242.944C329.706 242.944 312.837 285.179 327.697 378.104H348.961L356.579 283.881H359.3L366.709 378.104H387.973C402.832 285.179 386.131 240.516 386.131 240.516Z" fill="#8E716C"/>
<path d="M346.868 283.881H369.053" stroke="#282828" stroke-width="2.5" stroke-linecap="round" stroke-linejoin="round"/>
<path d="M404.005 195.938C401.368 191.752 386.676 191.919 385.922 191.794C381.946 191.333 388.476 222.936 396.722 250.562C398.312 255.836 404.131 258.599 409.195 256.464C409.251 256.436 409.307 256.409 409.363 256.381C413.423 254.664 415.683 250.395 414.888 246.125C410.954 225.28 407.019 200.751 404.005 195.938Z" fill="#FFB1A5"/>
<path d="M407.479 207.365L388.727 214.648L386.969 205.732L406.391 200.877L407.479 207.365Z" fill="#F3978E"/>
<path d="M411.037 225.155C411.037 225.155 402.163 237.084 402.582 236.54C403 235.996 409.53 217.243 409.53 217.243L411.037 225.155Z" fill="#F3978E"/>
<path d="M423.721 209.123L398.271 242.107C394.922 246.418 396.011 252.697 400.573 255.669C405.178 258.641 411.289 257.092 413.926 252.279L435.106 213.183L423.721 209.123Z" fill="#FFB1A5"/>
<path d="M430.334 217.578C424.809 215.82 421.753 209.876 423.553 204.351C425.353 198.826 431.255 195.812 436.78 197.612C442.305 199.37 445.319 205.314 443.561 210.839C441.761 216.322 435.817 219.378 430.334 217.578Z" fill="#FFB1A5"/>
<path d="M441.217 201.295C441.217 201.295 444.063 198.282 438.998 196.189C433.892 194.096 427.571 194.598 423.553 204.351L441.217 201.295Z" fill="#FFB1A5"/>
<path d="M446.491 180.45L457.165 185.055C457.751 185.306 457.96 186.017 457.625 186.645L443.603 212.806C443.268 213.434 442.514 213.727 441.928 213.476L431.296 208.83C430.669 208.579 430.459 207.867 430.794 207.281L444.817 181.078C445.151 180.45 445.905 180.157 446.491 180.45Z" fill="#372F5F"/>
<path d="M445.486 179.99L456.118 184.594C456.704 184.845 456.956 185.557 456.621 186.143L442.598 212.346C442.263 212.974 441.51 213.267 440.924 213.016L430.25 208.369C429.664 208.118 429.455 207.407 429.79 206.821L443.812 180.618C444.147 179.99 444.859 179.697 445.486 179.99Z" fill="#261B43"/>
<path d="M444.272 182.627L453.648 186.687L442.221 208.035L432.845 203.974L444.272 182.627Z" fill="#E6E6E6"/>
<path d="M453.648 186.687L432.845 203.974L444.272 182.627L453.648 186.687Z" fill="white"/>
<path d="M435.901 195.352C435.901 195.352 438.287 195.812 440.422 197.026C441.385 197.528 441.845 198.617 441.594 199.705C441.343 200.668 440.548 201.379 439.585 201.505L434.018 202.174C434.018 202.174 431.13 207.156 427.362 207.742L430.836 198.993L435.901 195.352Z" fill="#FFB1A5"/>
<path d="M365.161 154.373C364.533 154.373 404.424 159.898 411.037 205.439L390.318 208.579L386.132 242.944H328.368L316.898 179.487C316.898 179.487 329.707 161.112 353.482 154.373H365.161Z" fill="#56DFED"/>
<path d="M390.317 208.579L392.117 188.738" stroke="#282828" stroke-width="2.5" stroke-linecap="round" stroke-linejoin="round"/>
<path d="M368.928 155.042V139.22H350.426V155.21C349.464 155.503 347.873 156.089 345.445 157.261L359.886 165.842L374.662 157.261C374.662 157.261 372.318 155.879 368.928 155.042Z" fill="#FFB1A5"/>
<path d="M350.259 141.145C350.259 141.145 353.566 149.977 362.439 149.224C370.602 148.554 369.304 136.29 369.304 136.29L350.259 141.145Z" fill="#282828"/>
<path d="M342.18 129.425C339.25 132.062 332.762 122.058 335.567 119.254C338.371 116.449 340.506 120.844 340.506 120.844L341.762 123.816L342.724 127.876L342.934 128.923L342.18 129.425Z" fill="#F3978E"/>
<path d="M336.906 122.812C336.906 122.812 339.125 121.807 341.092 124.988" stroke="#282828" stroke-width="2" stroke-linecap="round" stroke-linejoin="round"/>
<path d="M376.504 129.132C379.183 131.978 386.467 122.56 383.913 119.547C381.36 116.533 378.848 120.719 378.848 120.719L377.342 123.565L376.086 127.542L375.751 128.546L376.504 129.132Z" fill="#F3978E"/>
<path d="M382.281 122.979C382.281 122.979 380.146 121.807 377.97 124.779" stroke="#282828" stroke-width="2" stroke-linecap="round" stroke-linejoin="round"/>
<path d="M337.074 109.71C337.074 122.937 347.162 129.216 359.594 129.216C372.026 129.216 382.113 122.937 382.113 109.71C382.113 96.5247 372.026 87.5252 359.594 87.5252C347.162 87.5252 337.074 96.5247 337.074 109.71Z" fill="#282828"/>
<path d="M340.13 110.631C340.13 118.751 341.26 125.783 342.432 130.723C343.562 135.62 346.701 139.011 351.138 141.731L351.975 142.234C356.664 145.164 362.775 145.206 367.547 142.401C372.402 139.597 375.793 135.913 376.797 130.681C378.723 121.179 378.932 110.631 378.932 110.631C378.932 110.631 380.732 90.1623 359.803 90.539C338.874 90.9576 340.13 110.631 340.13 110.631Z" fill="#FFB1A5"/>
<path d="M358.254 122.351V125.197C358.254 125.365 358.282 125.518 358.338 125.658C358.589 126.244 359.258 126.495 359.845 126.37L361.142 125.993" stroke="#282828" stroke-width="2.5" stroke-linecap="round" stroke-linejoin="round"/>
<path d="M354.947 111.342L344.524 113.77C344.524 113.77 344.985 111.133 349.254 110.17C353.524 109.208 354.947 111.342 354.947 111.342Z" fill="#282828"/>
<path d="M364.156 111.342L374.202 113.77C374.202 113.77 373.742 111.133 369.64 110.17C365.538 109.208 364.156 111.342 364.156 111.342Z" fill="#282828"/>
<path d="M352.729 119.002C352.729 119.965 351.934 120.719 350.971 120.719C350.008 120.719 349.213 119.965 349.213 119.002C349.213 117.998 350.008 117.244 350.971 117.244C351.934 117.244 352.729 117.998 352.729 119.002Z" fill="#282828"/>
<path d="M369.346 119.002C369.346 119.965 368.551 120.719 367.588 120.719C366.625 120.719 365.83 119.965 365.83 119.002C365.83 117.998 366.625 117.244 367.588 117.244C368.551 117.244 369.346 117.998 369.346 119.002Z" fill="#282828"/>
<path d="M352.729 129.634H366.249C366.249 129.634 360.263 136.96 352.729 129.634Z" fill="white"/>
<path d="M357.71 119.672C357.71 123.774 354.361 127.123 350.259 127.123C346.115 127.123 342.767 123.774 342.767 119.672C342.767 115.528 346.115 112.221 350.259 112.221C354.361 112.221 357.71 115.528 357.71 119.672Z" stroke="#C98BD2" stroke-width="2.7"/>
<path d="M376.002 119.672C376.002 123.774 372.653 127.123 368.551 127.123C364.449 127.123 361.101 123.774 361.101 119.672C361.101 115.528 364.449 112.221 368.551 112.221C372.653 112.221 376.002 115.528 376.002 119.672Z" stroke="#C98BD2" stroke-width="2.7"/>
<path d="M357.71 119.672C357.71 119.672 359.468 117.998 361.1 119.672" stroke="#C98BD2" stroke-width="2.7"/>
<path d="M342.767 119.672L340.423 119.588" stroke="#C98BD2" stroke-width="2.7"/>
<path d="M376.002 119.672L378.388 119.588" stroke="#C98BD2" stroke-width="2.7"/>
<path d="M378.639 117.454C378.639 117.454 370.267 106.152 372.193 94.6829C372.193 94.6829 378.43 97.8223 380.02 105.859C381.653 113.938 378.639 117.454 378.639 117.454Z" fill="#282828"/>
<path d="M340.13 118.207C340.13 118.207 349.841 105.357 347.916 93.9295C347.916 93.9295 341.176 97.8223 339.544 105.859C337.911 113.938 340.13 118.207 340.13 118.207Z" fill="#282828"/>
<path d="M377.927 99.2036C377.927 99.2036 367.212 110.966 337.827 108.957C337.827 108.957 342.306 91.6692 356.58 89.8693C356.58 89.8693 372.988 87.9019 377.927 99.2036Z" fill="#282828"/>
<path d="M391.196 85.4323C391.196 93.2179 384.918 99.4966 377.174 99.4966C369.43 99.4966 363.151 93.2179 363.151 85.4323C363.151 77.6886 369.43 71.4099 377.174 71.4099C384.918 71.4099 391.196 77.6886 391.196 85.4323Z" fill="#282828"/>
<path d="M205.933 240.475L179.813 237L180.064 233.945L149.508 238.005C149.508 238.005 132.849 282.709 147.666 375.634H168.93L176.339 281.412H179.06L186.72 375.634H207.942C222.801 282.709 205.933 240.475 205.933 240.475Z" fill="#282828"/>
<path d="M203.881 113.352C200.323 109.208 197.519 104.352 195.091 97.5293C192.496 90.2041 184.041 93.1761 184.041 93.1761C184.041 93.1761 177.008 84.1347 166.418 87.2741C155.786 90.4553 152.103 97.9897 151.894 106.947C151.684 115.947 144.61 117.328 139.169 127.709C129.583 146.043 145.74 161.488 175.167 157.177V156.926C178.097 157.805 181.613 158.182 185.966 157.93C221.294 155.838 217.862 129.844 203.881 113.352Z" fill="#282828"/>
<path d="M192.287 126.956C195.217 129.593 201.705 119.589 198.9 116.784C196.096 113.98 193.961 118.375 193.961 118.375L192.705 121.347L191.742 125.407L191.533 126.453L192.287 126.956Z" fill="#F3978E"/>
<path d="M197.519 120.3C197.519 120.3 195.342 119.337 193.375 122.519" stroke="#282828" stroke-width="2" stroke-linecap="round" stroke-linejoin="round"/>
<path d="M157.963 126.621C155.284 129.509 148 120.091 150.554 117.077C153.107 114.021 155.619 118.249 155.619 118.249L157.126 121.095L158.381 125.072L158.716 126.076L157.963 126.621Z" fill="#F3978E"/>
<path d="M152.187 120.467C152.187 120.467 154.279 119.295 156.498 122.309" stroke="#282828" stroke-width="2" stroke-linecap="round" stroke-linejoin="round"/>
<path d="M197.393 107.24C197.393 120.467 187.305 126.746 174.873 126.746C162.441 126.746 152.354 120.467 152.354 107.24C152.354 94.0132 162.441 85.0556 174.873 85.0556C187.305 85.0556 197.393 94.0132 197.393 107.24Z" fill="#282828"/>
<path d="M184.04 160.735H165.539V136.75H184.04V160.735Z" fill="#FFB1A5"/>
<path d="M162.818 135.243C162.818 135.243 167.967 145.54 174.329 147.173C176.004 147.592 177.845 147.424 179.478 146.88C181.864 146.001 184.878 142.443 185.38 138.508L185.631 136.248C185.631 136.248 174.329 142.401 162.818 135.243Z" fill="#282828"/>
<path d="M194.337 108.161C194.337 116.282 193.207 123.314 192.035 128.253C190.905 133.15 187.766 136.541 183.329 139.262L182.491 139.764C177.803 142.652 171.692 142.736 166.92 139.931C162.065 137.127 158.674 133.402 157.67 128.211C155.744 118.709 155.535 108.161 155.535 108.161C155.535 108.161 153.735 87.6926 174.664 88.0693C195.593 88.4879 194.337 108.161 194.337 108.161Z" fill="#FFB1A5"/>
<path d="M173.492 120.97V122.644C173.492 122.812 173.52 122.979 173.576 123.146C173.827 123.732 174.455 123.984 175.083 123.816L176.38 123.481" stroke="#282828" stroke-width="2.5" stroke-linecap="round" stroke-linejoin="round"/>
<path d="M177.846 109.877L188.98 112.514C188.98 112.514 188.478 109.626 183.915 108.622C179.353 107.575 177.846 109.877 177.846 109.877Z" fill="#282828"/>
<path d="M171.985 109.877L160.726 112.514C160.726 112.514 161.228 109.626 165.832 108.622C170.479 107.575 171.985 109.877 171.985 109.877Z" fill="#282828"/>
<path d="M167.967 116.784C167.967 117.747 167.172 118.5 166.209 118.5C165.246 118.5 164.451 117.747 164.451 116.784C164.451 115.821 165.246 115.026 166.209 115.026C167.172 115.026 167.967 115.821 167.967 116.784Z" fill="#282828"/>
<path d="M184.584 116.784C184.584 117.747 183.789 118.5 182.826 118.5C181.864 118.5 181.068 117.747 181.068 116.784C181.068 115.821 181.864 115.026 182.826 115.026C183.789 115.026 184.584 115.821 184.584 116.784Z" fill="#282828"/>
<path d="M166.795 126.746H182.199C182.199 126.746 181.11 130.974 174.12 130.974C168.804 130.974 166.795 126.746 166.795 126.746Z" fill="white"/>
<path d="M155.829 114.984C155.829 114.984 164.201 103.641 162.275 92.2133C162.275 92.2133 156.038 95.3108 154.448 103.389C152.815 111.468 155.829 114.984 155.829 114.984Z" fill="#282828"/>
<path d="M194.338 114.607C194.338 114.607 184.627 102.887 186.552 91.418C186.552 91.418 193.292 95.3108 194.924 103.389C196.557 111.468 194.338 114.607 194.338 114.607Z" fill="#282828"/>
<path d="M156.54 96.734C156.54 96.734 166.126 109.626 195.51 107.617C195.51 107.617 192.119 89.1995 177.888 87.3578C177.888 87.3578 161.479 85.3905 156.54 96.734Z" fill="#282828"/>
<path d="M129.751 297.192C129.332 297.862 154.196 188.947 146.787 190.58C146.117 190.747 133.183 191.961 131.258 195.854C125.69 207.197 121.714 296.397 121.714 296.397L129.751 297.192Z" fill="#FFB1A5"/>
<path d="M121.714 296.397C121.714 296.397 117.696 314.982 132.848 317.033C133.853 317.159 134.816 316.573 135.151 315.61L135.192 315.484C135.569 314.438 135.025 313.308 134.02 312.847C131.551 311.759 127.7 308.954 129.625 302.592C129.625 302.592 131.802 302.341 133.016 306.443C133.309 307.489 134.481 307.992 135.485 307.531C136.155 307.196 136.532 306.443 136.448 305.731C136.071 302.843 134.606 295.978 129.081 294.095L121.714 296.397Z" fill="#FFB1A5"/>
<path d="M126.82 222.015C126.82 222.015 141.136 242.233 141.219 241.814C141.303 241.437 146.242 213.476 146.242 213.476L128.83 205.942L126.82 222.015Z" fill="#F3978E"/>
<path d="M166.628 156.8C167.256 156.8 131.216 157.428 124.603 202.928L145.322 206.109L149.508 240.475H207.272L218.741 176.976C218.741 176.976 210.621 163.246 186.845 156.507L166.628 156.8Z" fill="#00857B"/>
<path d="M149.005 162.284C149.005 162.284 154.112 169.065 174.999 169.065C195.635 169.065 200.951 161.949 200.951 161.949C200.951 161.949 188.77 155.126 174.622 152.949C174.622 152.949 161.981 155.168 149.005 162.284Z" fill="#FFB1A5"/>
<path d="M219.913 306.443L219.955 397.191H264.869L268.301 306.443H219.913Z" fill="#005683"/>
<path d="M317.401 306.443L317.359 397.191H272.445L269.013 306.443H317.401Z" fill="#005683"/>
<path d="M292.872 338.004H246.451V306.443H292.872V338.004Z" fill="#005683"/>
<path d="M345.78 227.247C348.543 258.013 345.613 280.407 346.408 336.999L319.619 338.129L315.643 232.187L345.78 227.247Z" fill="#FFB1A5"/>
<path d="M318.949 251.274C318.949 251.274 335.525 249.725 346.869 242.233L346.576 235.661L318.949 239.428V251.274Z" fill="#F3978E"/>
<path d="M292.327 156.465C292.327 156.465 345.026 169.693 354.57 236.624C354.57 236.624 328.786 247.8 302.917 242.986L308.736 220.592L292.327 156.465Z" fill="#C98BD2"/>
<path d="M134.899 184.259L174.12 230.638L162.107 264.459C162.107 264.459 132.304 222.978 118.909 190.915L134.899 184.259Z" fill="#FFB1A5"/>
<path d="M136.155 185.934C136.155 185.934 122.384 193.719 118.909 190.915C112.756 185.975 107.691 167.976 107.691 167.976C107.691 167.976 133.476 158.265 133.225 158.642C132.974 159.019 136.155 185.934 136.155 185.934Z" fill="#FFB1A5"/>
<path d="M136.155 185.934C135.946 184.552 141.304 169.609 143.103 164C143.564 162.619 142.643 161.154 141.178 160.861C140.215 160.693 138.708 160.777 137.955 162.158L131.509 173.209L136.155 185.934Z" fill="#FFB1A5"/>
<path d="M135.694 169.776L131.258 147.675C131.006 146.21 129.541 145.206 128.034 145.499C126.779 145.708 125.942 146.88 126.067 148.136L128.034 164.586L135.694 169.776Z" fill="#FFB1A5"/>
<path d="M126.862 161.614L120.835 145.875C120.332 144.494 118.784 143.699 117.444 144.159C116.23 144.578 115.561 145.75 115.854 147.006L120.332 165.214L126.862 161.614Z" fill="#FFB1A5"/>
<path d="M120.417 166.26L112.757 150.773C112.087 149.35 110.329 148.68 108.906 149.308C107.566 149.894 106.98 151.401 107.524 152.782L113.636 167.39L120.417 166.26Z" fill="#FFB1A5"/>
<path d="M107.692 167.976L101.706 158.475C101.204 157.386 101.664 156.131 102.752 155.628C103.799 155.168 105.096 155.503 105.766 156.507L113.635 167.39L107.692 167.976Z" fill="#FFB1A5"/>
<path d="M134.481 168.102C134.481 168.102 125.523 167.181 124.603 179.153" stroke="#282828" stroke-width="3.1" stroke-linecap="round" stroke-linejoin="round"/>
<path d="M154.154 248.637C154.154 248.637 161.563 274.17 176.255 270.78C190.948 267.389 213.886 235.954 213.886 235.954L208.737 182.334L167.465 233.149L154.154 248.637Z" fill="#FFB1A5"/>
<path d="M180.273 217.327C180.273 217.327 194.212 238.382 206.1 245.791L213.885 235.954L183.873 212.723L180.273 217.327Z" fill="#F3978E"/>
<path d="M241.261 155.293C241.261 155.293 200.324 164.502 178.516 212.095C178.516 212.095 191.701 231.936 212.839 240.768L226.987 223.438L241.261 155.293Z" fill="#C98BD2"/>
<path d="M241.26 155.168C225.271 163.33 215.225 174.213 215.225 174.213L218.364 313.224H319.116L318.781 174.925C318.781 174.925 306.098 162.493 292.327 156.465C280.649 151.317 252.604 149.308 241.26 155.168Z" fill="#C98BD2"/>
<path d="M288.937 222.894C281.194 222.894 274.915 216.615 274.915 208.872V194.849H302.918V208.872C302.918 216.615 296.639 222.894 288.937 222.894Z" stroke="#282828" stroke-width="2.8" stroke-linecap="round" stroke-linejoin="round"/>
<path d="M318.949 243.488L320.247 198.031" stroke="#282828" stroke-width="2.8" stroke-linecap="round" stroke-linejoin="round"/>
<path d="M216.773 235.912L214.597 196.482" stroke="#282828" stroke-width="2.8" stroke-linecap="round" stroke-linejoin="round"/>
<path d="M242.432 104.352L238.247 83.5905C237.996 81.9162 237.326 79.2792 238.163 76.8514C239.461 72.7912 244.358 65.0056 252.73 68.5635L254.529 76.7677C254.529 76.7677 245.865 78.5257 242.349 89.8693L242.432 104.352Z" fill="#282828"/>
<path d="M252.102 72.833C251.934 75.5538 249.548 87.5252 241.093 91.8785C241.093 91.8785 233.642 75.9724 252.102 72.833Z" fill="#282828"/>
<path d="M281.822 151.317V116.031H249.298V151.317L239.629 155.754C239.629 155.754 241.889 170.362 265.916 170.697C289.9 170.99 292.328 156.465 292.328 156.465L281.822 151.317Z" fill="#FFB1A5"/>
<path d="M252.729 68.5635C252.729 68.5635 258.673 52.8249 277.091 61.1965C288.225 66.2613 291.364 73.0423 292.662 77.856C293.123 79.4466 293.29 81.9581 293.164 83.465L288.727 104.352L271.356 75.4282L254.529 76.7677L252.729 68.5635Z" fill="#282828"/>
<path d="M288.727 104.352C288.727 104.352 290.904 100.878 295.425 102.594C299.945 104.31 297.894 115.277 291.113 116.7C291.113 116.7 288.685 117.244 286.802 115.57C286.802 115.57 288.476 107.45 288.727 104.352Z" fill="#F3978E"/>
<path d="M294.546 106.487C294.546 106.487 290.737 105.231 288.058 110.798" stroke="#282828" stroke-width="2.8" stroke-linecap="round" stroke-linejoin="round"/>
<path d="M242.433 104.352C242.433 104.352 240.256 100.878 235.735 102.594C231.215 104.31 233.224 115.277 240.047 116.7C240.047 116.7 242.474 117.244 244.358 115.57C244.358 115.57 242.684 107.45 242.433 104.352Z" fill="#F3978E"/>
<path d="M236.614 106.487C236.614 106.487 240.423 105.231 243.102 110.798" stroke="#282828" stroke-width="2.8" stroke-linecap="round" stroke-linejoin="round"/>
<path d="M289.188 93.9713C289.188 100.585 288.518 114.44 284.458 122.644C280.649 130.346 274.328 134.532 266.04 134.741C257.752 134.992 251.557 131.811 246.618 121.807C241.679 111.761 241.93 94.055 241.93 94.055C241.93 94.055 241.93 70.4052 265.287 70.4052C289.899 70.4052 289.188 93.9713 289.188 93.9713Z" fill="#FFB1A5"/>
<path d="M249.549 126.746C249.549 126.746 252.27 140.559 264.283 142.15C278.138 143.95 281.821 127.081 281.821 127.081C281.821 127.081 275.71 134.741 266.041 134.741C255.242 134.783 249.549 126.746 249.549 126.746Z" fill="#282828"/>
<path d="M263.864 103.766V109.25C263.864 109.473 263.906 109.696 263.99 109.919C264.325 110.715 265.246 111.091 266.125 110.882L267.924 110.422" stroke="#282828" stroke-width="2.8" stroke-linecap="round" stroke-linejoin="round"/>
<path d="M256.957 101.171C256.957 102.343 256.036 103.264 254.864 103.264C253.692 103.264 252.729 102.343 252.729 101.171C252.729 99.9989 253.692 99.0362 254.864 99.0362C256.036 99.0362 256.957 99.9989 256.957 101.171Z" fill="#282828"/>
<path d="M276.924 101.171C276.924 102.343 275.961 103.264 274.789 103.264C273.617 103.264 272.654 102.343 272.654 101.171C272.654 99.9989 273.617 99.0362 274.789 99.0362C275.961 99.0362 276.924 99.9989 276.924 101.171Z" fill="#282828"/>
<path d="M269.348 90.5808L283.663 94.2644C283.663 94.2644 282.993 90.246 277.175 88.781C271.315 87.3159 269.348 90.5808 269.348 90.5808Z" fill="#282828"/>
<path d="M260.474 90.5808L246.158 94.2644C246.158 94.2644 246.786 90.246 252.646 88.781C258.506 87.3159 260.474 90.5808 260.474 90.5808Z" fill="#282828"/>
<path d="M257.627 114.775C257.627 114.775 259.72 116.365 265.287 116.365C270.31 116.365 273.491 114.775 273.491 114.775" stroke="#282828" stroke-width="2.8" stroke-linecap="round" stroke-linejoin="round"/>
<path d="M263.32 101.757C263.32 106.78 259.26 110.798 254.279 110.798C249.298 110.798 245.237 106.78 245.237 101.757C245.237 96.7758 249.298 92.7156 254.279 92.7156C259.26 92.7156 263.32 96.7758 263.32 101.757Z" stroke="white" stroke-width="3.9"/>
<path d="M285.547 101.757C285.547 106.78 281.486 110.798 276.505 110.798C271.482 110.798 267.464 106.78 267.464 101.757C267.464 96.7758 271.482 92.7156 276.505 92.7156C281.486 92.7156 285.547 96.7758 285.547 101.757Z" stroke="white" stroke-width="3.9"/>
<path d="M263.32 101.757C263.32 101.757 265.455 99.7896 267.464 101.757" stroke="white" stroke-width="3.9"/>
<path d="M245.237 101.757L242.182 101.715" stroke="white" stroke-width="3.9"/>
<path d="M285.547 101.757L288.896 101.715" stroke="white" stroke-width="3.9"/>
<path d="M249.549 73.3772C249.549 73.3772 253.902 85.7253 273.492 85.3486C286.803 85.0974 289.984 94.7248 289.984 94.7248C289.984 94.7248 287.64 73.1679 287.054 73.3772C286.426 73.5865 266.794 68.1449 266.794 68.1449L249.549 73.3772Z" fill="#282828"/>
</g>
<path d="M281.988 358.179C281.849 358.179 281.709 358.193 281.57 358.221L281.528 357.677C281.695 357.552 281.779 357.342 281.737 357.133C281.695 356.798 281.402 356.589 281.067 356.631C280.732 356.673 280.523 356.966 280.565 357.3C280.565 357.51 280.691 357.677 280.9 357.761L280.942 358.263C280.356 358.375 279.784 358.556 279.226 358.807L279.519 359.393C280.3 359.031 281.123 358.849 281.988 358.849C282.407 358.849 282.825 358.891 283.244 358.975L283.37 358.347C282.923 358.235 282.463 358.179 281.988 358.179Z" fill="#1C1C1B"/>
</svg>
