<svg xmlns="http://www.w3.org/2000/svg" width="60" height="60" viewBox="0 0 65 66" fill="none">
<path d="M59.3335 34.33C59.341 36.0783 58.6554 37.7584 57.4267 39.0022C56.8304 39.6174 56.1163 40.1062 55.327 40.4395C54.5377 40.7729 53.6894 40.9439 52.8326 40.9424H27.922C27.0609 40.9355 26.2095 40.759 25.4166 40.4229C24.6237 40.0868 23.9048 39.5977 23.3011 38.9836C22.6973 38.3695 22.2205 37.6424 21.898 36.8439C21.5754 36.0454 21.4134 35.1912 21.4212 34.33C21.4246 33.0548 21.7879 31.8063 22.4693 30.7284L32.0143 15.7307C32.3132 15.2607 32.7247 14.8727 33.2115 14.6021C33.6983 14.3314 34.245 14.1866 34.802 14.1807V13.0657H45.9527V14.1807C46.5096 14.1866 47.0563 14.3314 47.5431 14.6021C48.0299 14.8727 48.4415 15.2607 48.7403 15.7307L58.2853 30.7284C58.9667 31.8063 59.33 33.0548 59.3335 34.33Z" fill="#B5B682"/>
<path d="M45.3445 23.6798C45.2756 23.6107 45.1874 23.5763 45.0802 23.5763H43.1146C42.9842 22.9397 42.739 22.3871 42.3788 21.9191H45.0571C45.1646 21.9191 45.2525 21.8846 45.3217 21.8158C45.3903 21.7467 45.4247 21.6584 45.4247 21.5511V20.377C45.4247 20.2695 45.3903 20.1814 45.3217 20.1123C45.2525 20.0434 45.1645 20.0087 45.0571 20.0087H35.4928C35.3855 20.0087 35.2974 20.0434 35.2284 20.1122C35.1596 20.1813 35.125 20.2695 35.125 20.3769V21.9075C35.125 22.0072 35.1614 22.0935 35.2342 22.1664C35.307 22.2393 35.3932 22.2757 35.4928 22.2757H37.1597C38.7766 22.2757 39.8036 22.709 40.2404 23.5761H35.4928C35.3855 23.5761 35.2973 23.6105 35.2284 23.6796C35.1596 23.7487 35.125 23.8368 35.125 23.9443V25.1182C35.125 25.2256 35.1594 25.3138 35.2284 25.3827C35.2974 25.4518 35.3856 25.4862 35.4928 25.4862H40.4016C40.2329 26.1155 39.8401 26.5949 39.2231 26.9248C38.6061 27.2548 37.792 27.4198 36.7803 27.4198H35.4928C35.3932 27.4198 35.307 27.4562 35.2342 27.5291C35.1614 27.602 35.125 27.6883 35.125 27.788V29.2496C35.125 29.3495 35.1594 29.4339 35.2284 29.5029C36.6998 31.0679 38.6081 33.2581 40.9532 36.074C41.0222 36.1661 41.118 36.2121 41.2406 36.2121H43.4822C43.6433 36.2121 43.7545 36.1432 43.8156 36.0048C43.8922 35.8668 43.8772 35.7363 43.7696 35.6135C41.532 32.8669 39.7731 30.8108 38.4932 29.4452C39.7961 29.2918 40.8537 28.8698 41.6661 28.1794C42.4784 27.489 42.9726 26.5912 43.149 25.4864H45.0802C45.1874 25.4864 45.2756 25.452 45.3445 25.3829C45.4135 25.314 45.4481 25.2258 45.4481 25.1184V23.9446C45.4481 23.837 45.4135 23.7489 45.3445 23.6798Z" fill="#FFF1F0"/>
<path d="M49.7221 6.64289L48.1833 9.72048V10.8355H32.5723V9.72048L31.0335 6.64289C30.7815 6.15375 30.7243 5.5873 30.8732 5.05762C31.0222 4.52795 31.3664 4.07439 31.8364 3.78831C32.7366 3.26774 33.7629 3.00538 34.8024 3.03006C34.8024 3.03006 35.9175 0.799927 40.3778 0.799927C44.8381 0.799927 45.9531 3.03006 45.9531 3.03006C46.9927 3.00538 48.019 3.26774 48.9192 3.78831C49.3892 4.07439 49.7334 4.52795 49.8823 5.05762C50.0313 5.5873 49.974 6.15375 49.7221 6.64289Z" fill="#B5B682"/>
<path d="M49.2988 9.72046H31.4577C30.226 9.72046 29.2275 10.7189 29.2275 11.9506C29.2275 13.1823 30.226 14.1807 31.4577 14.1807H49.2988C50.5304 14.1807 51.5289 13.1823 51.5289 11.9506C51.5289 10.7189 50.5304 9.72046 49.2988 9.72046Z" fill="#7292CB"/>
<path d="M18.0762 48.7335L25.5103 48.748C26.4754 48.748 27.4144 48.435 28.1865 47.8559L30.0297 46.471C30.6087 46.0364 31.2702 45.7243 31.9737 45.5534C32.6772 45.3826 33.4082 45.3568 34.122 45.4775L51.8962 48.3923C52.4667 48.4737 52.9918 48.7489 53.3835 49.1716C53.7751 49.5943 54.0094 50.1388 54.0472 50.7139C54.0556 51.0377 53.9995 51.3599 53.8819 51.6618C53.7644 51.9637 53.5879 52.2391 53.3627 52.4719C53.1375 52.7048 52.8682 52.8904 52.5705 53.018C52.2727 53.1456 51.9525 53.2126 51.6286 53.215H40.3775L45.3842 57.4578C45.5464 57.5948 45.7498 57.6737 45.9619 57.6818C46.1741 57.6899 46.3829 57.6267 46.555 57.5024L60.906 47.0297C61.2797 46.7627 61.719 46.6025 62.1769 46.5661C62.6347 46.5296 63.0939 46.6184 63.5051 46.8229C63.9164 47.0274 64.2643 47.3399 64.5116 47.7269C64.7589 48.1139 64.8963 48.561 64.9091 49.0201C64.9094 49.3844 64.8296 49.7443 64.6755 50.0743C64.5213 50.4044 64.2965 50.6966 64.017 50.9302L47.6924 64.049C46.8458 64.7221 45.8448 65.1737 44.7799 65.3629C43.715 65.5522 42.6197 65.4731 41.593 65.1328L27.7237 60.1774C27.2428 60.0057 26.7358 59.9178 26.2251 59.9176L18.0762 59.8987V48.7335Z" fill="#D7AA91"/>
<path d="M18.0765 47.6328H1.35042C0.734585 47.6328 0.235352 48.132 0.235352 48.7479V59.8986C0.235352 60.5144 0.734585 61.0136 1.35042 61.0136H18.0765C18.6923 61.0136 19.1915 60.5144 19.1915 59.8986V48.7479C19.1915 48.132 18.6923 47.6328 18.0765 47.6328Z" fill="#E1C53A"/>
<path d="M54.0377 50.9781C53.993 51.5435 53.7525 52.0756 53.3576 52.4827C52.9628 52.8898 52.4382 53.1464 51.8744 53.2082H35.9178C35.6221 53.2082 35.3384 53.0907 35.1293 52.8816C34.9202 52.6725 34.8027 52.3889 34.8027 52.0931C34.8027 51.7974 34.9202 51.5138 35.1293 51.3047C35.3384 51.0955 35.6221 50.9781 35.9178 50.9781H54.0377Z" fill="#B7917E"/>
</svg>