<svg xmlns="http://www.w3.org/2000/svg" width="60" height="60" viewBox="0 0 76 52" fill="none">
<path d="M51.7607 12.1951L51.1571 12.7987H51.1577C50.8536 13.0971 50.5678 13.4109 50.2975 13.6812C49.0897 14.8684 47.9826 15.759 46.7948 15.7533C46.7948 15.7533 44.5418 15.7424 44.5241 15.7418V15.7424C42.9554 15.7349 41.3794 16.3002 41.3599 16.3071L29.7375 20.8612C26.965 21.884 27.7989 26.3494 31.3576 25.7567L36.4896 25.0625L51.121 41.5421L58.1286 34.5173C61.3632 31.2884 58.5518 28.9523 61.1525 26.3557C61.1536 26.354 63.189 24.3209 63.1896 24.3209L63.5378 23.9721C61.1216 21.5565 54.4158 14.8501 51.7607 12.1951Z" fill="#FFBEAB"/>
<path d="M31.3023 23.6474C43.9389 18.6964 44.593 18.2308 46.9187 18.2417V18.2411C46.9376 18.2417 49.3172 18.2531 49.3172 18.2531C50.5714 18.2594 51.7409 17.319 53.0163 16.0654V16.0648C53.3015 15.7796 53.6039 15.4486 53.9246 15.133L54.3111 14.7459L51.7603 12.1951L51.1567 12.7987H51.1573C50.8532 13.0971 50.5674 13.4109 50.2971 13.6812C49.0893 14.8684 47.9822 15.759 46.7944 15.7533C46.7944 15.7533 44.5414 15.7424 44.5237 15.7418V15.7424C42.955 15.7349 41.379 16.3002 41.3595 16.3071L29.7371 20.8612C27.4972 21.687 27.6123 24.7584 29.6139 25.5969C29.7806 24.7653 30.331 24.0059 31.3023 23.6474Z" fill="#F7AF9F"/>
<path d="M50.9177 43.0655C51.9073 42.0742 51.901 40.4735 50.9097 39.4833L36.5715 25.0586C36.5274 25.0145 36.4656 24.9939 36.4037 25.0025L31.3479 25.731C27.7891 26.3237 27.0595 21.95 29.7369 21.0119L37.6768 17.7498L33.9943 16.3072C33.9749 16.3003 32.3988 15.7345 30.8302 15.7425L30.8296 15.7419C30.8124 15.7419 28.5588 15.7528 28.5588 15.7528C27.371 15.7585 26.264 14.8685 25.0562 13.6813H25.0568C24.7864 13.411 24.5001 13.0972 24.1966 12.7988V12.7982L23.57 12.1717C10.5966 25.1445 19.5193 16.2224 11.793 23.9487C12.3491 24.5048 14.2023 26.3558 14.2023 26.3558C16.8024 28.9524 13.991 31.2879 17.2256 34.5168L24.7996 42.0794L24.7939 42.0851L33.2819 50.5725C34.2727 51.5639 35.8797 51.5639 36.871 50.5731C37.8624 49.5812 37.8624 47.9742 36.871 46.9828L40.0919 50.2037C41.0993 51.2105 42.7785 51.2414 43.7664 50.2157C44.7239 49.221 44.7125 47.6386 43.732 46.6581L45.0429 47.969C46.0497 48.9764 47.7295 49.0073 48.7168 47.981C49.6749 46.9863 49.6629 45.4039 48.6824 44.4229L47.3566 43.097L47.3589 43.0948C48.3526 44.0569 49.9372 44.0472 50.9177 43.0655Z" fill="#FFCDBF"/>
<path d="M29.5872 42.7918L29.5941 42.7849L20.3725 33.5764C16.434 29.6454 19.8564 26.8008 16.6906 23.6389C16.6888 23.6377 14.9707 21.9208 14.3957 21.3463C13.5441 22.198 14.0029 21.7398 11.7939 23.9487C12.35 24.5048 14.2027 26.3558 14.2027 26.3558C16.8028 28.9524 13.992 31.2879 17.2266 34.5168L24.8 42.0793L24.7949 42.085L33.2823 50.5725C34.2737 51.5638 35.8807 51.5638 36.8714 50.5731C36.9562 50.4883 37.0312 50.3978 37.1011 50.305L29.5872 42.7918Z" fill="#FFBEAB"/>
<path d="M34.3006 32.7922C33.7148 32.1983 32.7583 32.192 32.1644 32.7779C31.5706 33.3638 31.5643 34.3202 32.1501 34.9141L44.0446 46.9712L45.0434 47.97C46.0502 48.9768 47.7293 49.0077 48.7173 47.982C48.8129 47.8823 48.8965 47.7758 48.9733 47.6653L34.3006 32.7922Z" fill="#FFBEAB"/>
<path d="M38.2284 29.5361C37.6425 28.9422 36.6861 28.9359 36.0922 29.5218C35.4983 30.1077 35.492 31.0641 36.0779 31.658L47.3693 43.1034C48.3629 44.0564 49.9401 44.0444 50.9177 43.0656C51.0306 42.9522 51.1296 42.8303 51.2167 42.7025L38.2284 29.5361Z" fill="#FFBEAB"/>
<path d="M30.5004 36.1876C29.9157 35.5932 28.9593 35.5846 28.3642 36.1699C27.7697 36.7546 27.7617 37.711 28.3465 38.3055L37.2445 47.3553L40.0932 50.204C41.1 51.2108 42.7791 51.2417 43.767 50.216C43.8558 50.1238 43.9337 50.0247 44.0059 49.9233L30.5004 36.1876Z" fill="#FFBEAB"/>
<path d="M65.2113 25.7968C65.5801 26.1657 66.178 26.1657 66.5468 25.7968L74.91 17.4337C75.2788 17.0648 75.2788 16.4669 74.91 16.0981C74.5835 15.7717 59.5787 0.766884 59.6818 0.869971C59.313 0.500578 58.7151 0.500578 58.3463 0.869971L49.9831 9.23314C49.6137 9.60196 49.6137 10.1999 49.9831 10.5687C50.4865 11.0721 65.6786 26.2642 65.2113 25.7968Z" fill="#54A0FF"/>
<path d="M51.9395 11.3561L60.4693 2.82626C60.7178 2.57771 61.0683 2.49466 61.3862 2.57427L59.6818 0.869907C59.313 0.501087 58.7151 0.501087 58.3463 0.869907L49.9831 9.23308C49.6137 9.6019 49.6137 10.1998 49.9831 10.5686L51.6875 12.273C51.6073 11.9551 51.6909 11.6046 51.9395 11.3561Z" fill="#338DEF"/>
<path d="M10.0964 25.7967C9.7276 26.1656 9.1297 26.1656 8.76088 25.7967L0.397709 17.4336C0.0288887 17.0648 0.0288887 16.4669 0.397709 16.098C0.724149 15.7716 15.729 0.766793 15.6259 0.869879C15.9947 0.500486 16.5926 0.500486 16.9614 0.869879L25.3246 9.23305C25.694 9.60187 25.694 10.1998 25.3246 10.5686C24.8212 11.072 9.6291 26.2641 10.0964 25.7967Z" fill="#576574"/>
<path d="M11.4056 23.8291L2.36609 14.7895C2.24696 14.6704 2.1645 14.5295 2.11639 14.3795L0.397709 16.0982C0.0288887 16.467 0.0288887 17.0649 0.397709 17.4337L8.76088 25.7969C9.1297 26.1657 9.7276 26.1657 10.0964 25.7969L11.8151 24.0782C11.6656 24.0301 11.5242 23.9476 11.4056 23.8291Z" fill="#3E4B5A"/>
</svg>