<svg width="606" height="359" viewBox="0 0 606 359" fill="none" xmlns="http://www.w3.org/2000/svg">
<g opacity="0.5">
<g opacity="0.5">
<path d="M151.22 316.587C151.22 316.587 131.942 306.136 120.669 307.816C109.379 309.514 86.7601 321.122 75.8427 320.861C61.9952 320.562 53.5412 320.767 30.9785 300.332C31.9116 301.079 47.1587 312.929 85.939 297.365C125.484 281.502 150.585 315.71 151.201 316.568C151.213 316.581 151.22 316.587 151.22 316.587Z" fill="#6EBD44"/>
<path d="M151.201 316.568C150.66 316.009 133.061 298.298 109.453 300.967C85.4911 303.654 84.7446 309.495 68.1725 310.522C53.4666 311.436 39.7311 308.058 30.9785 300.332C31.9116 301.079 47.1587 312.929 85.939 297.365C125.484 281.502 150.585 315.71 151.201 316.568Z" fill="#5DA444"/>
<path d="M134.573 275.362C134.424 275.25 133.379 274.41 131.326 273.291C123.152 268.868 99.0215 259.928 52.1231 273.776C52.1231 273.776 18.3817 282.902 2.48145 254.74C2.48145 254.74 2.48766 254.74 2.5001 254.74C2.83602 254.852 14.9479 258.603 29.6351 255.935C48.6333 252.482 93.4041 233.241 134.573 275.362Z" fill="#6EBD44"/>
<path d="M134.574 275.362C133.641 274.746 132.558 274.056 131.327 273.291C118.898 265.658 91.1842 251.978 62.9481 261.589C32.1367 272.096 2.94887 255.002 2.50098 254.74C2.8369 254.852 14.9487 258.603 29.636 255.935C48.6342 252.482 93.405 233.241 134.574 275.362Z" fill="#5DA444"/>
<path d="M126.96 233.129C105.367 210.081 75.6942 214 48.0927 217.36C25.3993 220.103 8.50996 201.049 7.98741 200.451C7.97497 200.439 7.96875 200.433 7.96875 200.433C23.5704 208.103 37.2685 203.829 37.2685 203.829C61.1376 197.167 65.8218 196.831 75.4703 197.577C113.205 200.489 126.96 233.129 126.96 233.129Z" fill="#6EBD44"/>
<path d="M126.96 233.129C126.96 233.129 120.148 223.238 106.02 215.549C91.8931 207.842 72.0177 201.832 46.5437 208.084C21.5176 214.224 8.43531 200.918 7.98741 200.451C7.97497 200.439 7.96875 200.433 7.96875 200.433C23.5704 208.103 37.2685 203.829 37.2685 203.829C61.1376 197.167 65.8218 196.831 75.4703 197.577C113.205 200.489 126.96 233.129 126.96 233.129Z" fill="#5DA444"/>
<path d="M114.287 181.136C114.157 180.968 113.597 180.39 112.57 179.624C108.129 176.396 94.8786 170.163 67.5944 181.939C32.8638 196.943 19.8936 164.769 19.8936 164.769C19.8936 164.769 19.8998 164.775 19.9122 164.788C20.4161 165.142 34.6928 175.145 50.873 166.934C67.3518 158.592 95.2146 156.8 114.287 181.136Z" fill="#6EBD44"/>
<path d="M114.326 181.155C113.753 180.632 113.169 180.122 112.571 179.624C99.3398 168.838 75.5081 165.758 54.7556 173.764C33.3873 182.013 20.305 165.31 19.9131 164.788C20.417 165.142 34.6936 175.145 50.8738 166.934C67.3526 158.592 95.2154 156.8 114.288 181.136C114.301 181.136 114.313 181.142 114.326 181.155Z" fill="#5DA444"/>
<path d="M79.0538 147.637C79.0413 147.637 79.0289 147.637 79.0164 147.637C78.9667 147.613 78.8858 147.575 78.7738 147.525C78.7552 147.525 78.7552 147.525 78.7365 147.525C77.0569 146.928 69.3494 145.174 50.6124 152.919C29.3374 161.727 15.3594 141.479 15.0234 140.994C15.0234 140.994 31.5769 136.589 41.8598 141.199C52.1241 145.808 68.4162 143.55 71.3276 144.241C74.0709 144.894 78.5872 147.376 79.0538 147.637Z" fill="#6EBD44"/>
<path d="M79.0911 147.656C79.0662 147.644 79.0413 147.637 79.0164 147.637C78.9293 147.6 78.8485 147.563 78.7738 147.525C78.7552 147.525 78.7552 147.525 78.7365 147.525C69.6106 143.737 58.9358 146.574 43.9873 148.067C29.0761 149.56 15.4527 141.255 15.0234 140.994C15.0234 140.994 31.5769 136.589 41.8598 141.199C52.1241 145.808 68.4162 143.55 71.3276 144.241C74.0709 144.894 78.5872 147.376 79.0537 147.637C79.0662 147.65 79.0786 147.656 79.0911 147.656Z" fill="#5DA444"/>
<path d="M34.9918 126.12C2.98597 128.49 0 105.666 0 105.666C18.0651 101.486 34.9918 126.12 34.9918 126.12Z" fill="#6EBD44"/>
<path d="M34.9918 126.12C21.6296 122.742 0 105.666 0 105.666C18.0651 101.486 34.9918 126.12 34.9918 126.12Z" fill="#5DA444"/>
<path d="M35.216 126.101C51.4709 98.4436 32.3234 85.6786 32.3234 85.6786C20.6034 100.03 35.216 126.101 35.216 126.101Z" fill="#6EBD44"/>
<path d="M35.216 126.101C38.09 112.608 32.3234 85.6786 32.3234 85.6786C20.6034 100.03 35.216 126.101 35.216 126.101Z" fill="#5DA444"/>
<path d="M206.255 201.124C206.274 201.161 206.311 201.31 206.367 201.553L206.386 201.627C207.45 205.845 212.787 234.604 171.319 266.106C171.319 266.106 155.494 277.807 144.744 301.396C144.595 301.751 130.486 266.46 168.893 236.283C206.106 207.077 206.274 201.441 206.255 201.124Z" fill="#6EBD44"/>
<path d="M206.386 201.627C207.45 205.845 212.788 234.604 171.32 266.106C171.32 266.106 155.494 277.807 144.745 301.396C144.745 301.396 143.345 274.429 171.376 252.258C199.407 230.087 206.386 201.627 206.386 201.627Z" fill="#5DA444"/>
<path d="M176.919 200.937C152.49 221.167 137.112 238.728 131.738 258.137C131.738 258.137 131.682 257.857 131.588 257.372C130.711 252.482 126.998 224.955 149.168 199.444C173.597 171.339 177.628 174.548 186.362 153.012C186.362 153.012 201.348 180.726 176.919 200.937Z" fill="#5DA444"/>
<path d="M64.8882 125.858C64.8882 125.858 66.0639 138.101 68.3034 143.009C68.3034 143.009 55.4824 136.571 48.54 117.666C41.5976 98.7608 50.1636 99.0034 43.1279 87.4888C43.5385 87.75 61.081 99.0594 64.8882 125.858Z" fill="#6EBD44"/>
<path d="M64.8882 125.858C64.8882 125.858 66.0639 138.101 68.3034 143.009C68.3034 143.009 59.8307 129.945 53.2056 109.249C46.5991 88.5525 45.3674 89.7096 43.1279 87.4888C43.5385 87.75 61.081 99.0594 64.8882 125.858Z" fill="#5DA444"/>
<path d="M105.219 135.992C101.99 141.591 98.9667 148.906 99.7506 161.223C99.5453 160.906 87.7134 143.102 97.8657 121.361C107.981 99.7312 103.987 90.848 103.875 90.6053C104.118 90.8106 121.959 106.972 105.219 135.992Z" fill="#6EBD44"/>
<path d="M105.218 135.992C101.989 141.591 98.966 148.906 99.7498 161.223C99.6379 160.981 93.5166 147.619 102.568 124.44C111.582 101.336 104.061 90.848 103.874 90.6053C104.117 90.8106 121.958 106.972 105.218 135.992Z" fill="#5DA444"/>
<path d="M156.67 159.171C156.67 159.171 128.807 180.987 123.041 203.792C123.028 203.817 123.022 203.83 123.022 203.83C123.022 203.83 115.109 178.318 143.364 148.44C164.042 126.568 165.311 115.893 164.527 111.75C164.303 110.649 163.948 110.014 163.78 109.734C165.329 111.843 180.894 134.499 156.67 159.171Z" fill="#6EBD44"/>
<path d="M156.67 159.171C156.67 159.171 128.808 180.987 123.041 203.792C123.19 202.897 128.621 173.69 148.534 152.732C167.177 133.118 167.625 120.503 164.527 111.75C164.247 110.985 163.967 110.276 163.65 109.566C163.65 109.566 163.656 109.573 163.669 109.585C163.669 109.585 163.675 109.591 163.687 109.604C163.687 109.616 163.687 109.622 163.687 109.622C163.7 109.635 163.725 109.666 163.762 109.716C163.762 109.716 163.768 109.722 163.781 109.734C165.33 111.843 180.894 134.499 156.67 159.171Z" fill="#5DA444"/>
<path d="M176.92 200.937C152.491 221.167 137.113 238.728 131.738 258.137C131.738 258.137 131.682 257.857 131.589 257.372C134.276 229.808 145.94 216.184 156.428 206.797C189.33 177.311 186.363 153.012 186.363 153.012C186.363 153.012 201.349 180.726 176.92 200.937Z" fill="#6EBD44"/>
<path d="M169.714 339.094C169.285 338.833 169.024 338.646 168.688 338.403C168.389 338.179 168.072 337.974 167.792 337.731C167.195 337.284 166.635 336.817 166.075 336.35C164.955 335.38 163.892 334.41 162.865 333.383C160.812 331.33 158.909 329.184 157.099 326.963C153.515 322.466 150.324 317.707 147.543 312.743C144.763 307.797 142.318 302.665 140.135 297.421C137.97 292.195 136.141 286.839 134.499 281.427C132.838 276.034 131.531 270.529 130.3 265.042C129.758 262.28 129.142 259.518 128.695 256.737L127.985 252.575L127.37 248.395C127.183 247.014 126.94 245.614 126.791 244.233L126.287 240.034L126.045 237.944C125.97 237.235 125.914 236.545 125.839 235.835L125.466 231.636C125.186 228.837 124.999 226.094 124.664 223.313C124.365 220.551 123.992 217.808 123.562 215.046C122.685 209.559 121.528 204.128 120.035 198.772C119.27 196.103 118.43 193.472 117.479 190.859C116.508 188.247 115.463 185.69 114.306 183.17C111.936 178.169 109.118 173.354 105.759 168.95C102.399 164.545 98.499 160.552 94.1507 157.099C91.9672 155.364 89.6904 153.777 87.3389 152.303C84.9875 150.829 82.5427 149.485 80.042 148.253C75.0405 145.771 69.8337 143.737 64.6083 141.759C61.9769 140.77 59.3642 139.799 56.7701 138.717C54.176 137.634 51.6193 136.459 49.2305 134.984C46.8791 133.454 44.565 131.886 42.2135 130.375C41.0378 129.61 39.8621 128.844 38.6677 128.117C38.0705 127.756 37.4733 127.395 36.8761 127.034C36.5588 126.866 36.2602 126.698 35.943 126.53C35.7937 126.456 35.6382 126.381 35.4764 126.306C35.3271 126.232 35.1592 126.138 34.9912 126.12C35.1592 126.138 35.3271 126.232 35.4951 126.288C35.6444 126.362 35.7999 126.437 35.9616 126.512C36.2789 126.68 36.5775 126.848 36.8948 127.016C37.5044 127.351 38.1078 127.7 38.705 128.061C39.918 128.77 41.0938 129.516 42.2882 130.244C44.6769 131.718 47.0097 133.267 49.3798 134.742C51.7686 136.16 54.344 137.28 56.9381 138.325C59.5321 139.351 62.1635 140.284 64.7949 141.236C70.0763 143.102 75.3391 145.062 80.4152 147.469C82.9533 148.682 85.454 149.989 87.8615 151.444C90.2689 152.9 92.6204 154.486 94.8598 156.203C99.3388 159.637 103.389 163.631 106.878 168.073C110.387 172.514 113.354 177.366 115.855 182.424C117.087 184.981 118.206 187.575 119.233 190.206C120.241 192.837 121.136 195.506 121.957 198.212C123.581 203.624 124.85 209.13 125.821 214.672C126.306 217.453 126.735 220.234 127.09 223.033C127.463 225.814 127.724 228.65 128.041 231.412L128.489 235.555C128.564 236.246 128.639 236.936 128.713 237.627L128.993 239.698L129.553 243.841C129.74 245.222 130.001 246.604 130.206 247.966L130.878 252.09L131.662 256.196C132.147 258.921 132.8 261.627 133.379 264.351C134.685 269.745 136.066 275.138 137.802 280.401C139.5 285.682 141.385 290.908 143.587 295.965C145.789 301.041 148.253 305.987 151.033 310.746C153.795 315.505 156.949 320.021 160.42 324.22C162.175 326.31 164.022 328.326 165.963 330.192C166.934 331.125 167.941 332.021 168.968 332.879C169.49 333.29 170.013 333.719 170.535 334.092C170.797 334.298 171.058 334.484 171.319 334.671C171.581 334.839 171.879 335.044 172.047 335.137L172.103 335.175C173.185 335.828 173.54 337.228 172.887 338.329C172.252 339.411 170.834 339.766 169.752 339.112C169.733 339.112 169.714 339.094 169.714 339.094Z" fill="#50270F"/>
</g>
<g opacity="0.5">
<path d="M418.39 241.733C399.205 271.704 389.594 274.056 374.067 278.647C365.613 281.148 349.097 278.964 335.343 277.9C329.203 277.415 323.604 277.154 319.517 277.639C316.195 278.031 312.519 279.431 308.898 281.334C307.05 282.305 305.222 283.387 303.449 284.525C302.814 284.936 302.186 285.353 301.564 285.776C301.564 285.776 301.564 285.782 301.564 285.794C299.436 287.231 297.421 288.724 295.648 290.124L291.859 288.5C292.83 286.84 293.968 285.011 295.293 283.107C295.293 283.095 295.293 283.088 295.293 283.088C295.654 282.566 296.034 282.037 296.432 281.502C297.421 280.158 298.484 278.777 299.66 277.378C302.59 273.888 306.117 270.342 310.279 267.132C320.861 258.958 335.622 252.893 355.498 255.207C403.833 260.88 417.494 243.002 418.39 241.751C418.39 241.751 418.39 241.745 418.39 241.733Z" fill="#6EBD44"/>
<path d="M418.39 241.751C410.887 253.135 396.424 261.141 379.572 264.613C360.555 268.513 357.924 262.168 330.061 266.46C325.451 267.169 321.215 268.476 317.333 270.174C311.903 272.544 307.218 275.642 303.262 278.908C301.75 280.158 300.369 281.409 299.082 282.659C298.584 283.144 298.099 283.623 297.626 284.096C295.946 285.832 294.472 287.53 293.203 289.079L291.859 288.5C292.83 286.839 293.968 285.01 295.293 283.107C295.293 283.094 295.293 283.088 295.293 283.088C295.654 282.566 296.034 282.037 296.432 281.502C297.421 280.158 298.484 278.777 299.66 277.378C302.59 273.888 306.117 270.342 310.279 267.132C320.861 258.958 335.622 252.893 355.498 255.207C403.833 260.88 417.494 243.002 418.39 241.751Z" fill="#5DA444"/>
<path d="M293.893 245.279C294.023 245.092 294.938 243.842 296.916 241.957C304.773 234.454 329.295 216.987 386.42 218.237C386.42 218.237 427.291 218.218 436.584 181.584C436.597 181.572 436.597 181.572 436.584 181.584C436.23 181.808 423.708 189.758 406.314 191.233C383.845 193.173 327.447 185.149 293.893 245.279Z" fill="#6EBD44"/>
<path d="M293.893 245.279C294.751 244.308 295.759 243.188 296.916 241.957C308.617 229.546 335.696 205.602 370.483 207.823C408.442 210.231 436.155 182.032 436.584 181.584C436.23 181.808 423.707 189.758 406.314 191.233C383.845 193.173 327.447 185.149 293.893 245.279Z" fill="#5DA444"/>
<path d="M289.564 195.301C306.864 162.679 341.539 158.032 373.694 153.367C400.139 149.522 413.37 122.835 413.781 122.014C413.781 122.002 413.781 121.995 413.781 121.995C398.515 135.414 381.775 134.798 381.775 134.798C352.811 134.574 347.418 135.638 336.761 139.426C295.07 154.281 289.564 195.301 289.564 195.301Z" fill="#6EBD44"/>
<path d="M289.564 195.301C289.564 195.301 294.211 182.051 307.798 169.062C321.365 156.054 341.95 143.177 372.612 142.431C402.733 141.684 413.407 122.686 413.781 122.014C413.781 122.002 413.781 121.995 413.781 121.995C398.515 135.414 381.775 134.798 381.775 134.798C352.811 134.574 347.418 135.638 336.761 139.426C295.07 154.281 289.564 195.301 289.564 195.301Z" fill="#5DA444"/>
<path d="M287.922 132.764C288.034 132.54 288.482 131.718 289.415 130.543C293.427 125.541 306.472 114.437 340.848 119.383C384.649 125.672 389.407 85.4174 389.407 85.4174C389.407 85.4174 389.407 85.4236 389.407 85.436C388.941 85.9772 375.915 101.654 355.125 97.3426C333.98 92.9569 302.012 99.4887 287.922 132.764Z" fill="#6EBD44"/>
<path d="M287.902 132.801C288.388 132.036 288.891 131.289 289.414 130.543C301.041 114.325 326.981 103.538 352.847 106.226C379.46 108.988 389.108 86.1452 389.407 85.436C388.94 85.9772 375.914 101.654 355.124 97.3426C333.98 92.9569 302.011 99.4887 287.921 132.764C287.921 132.782 287.902 132.782 287.902 132.801Z" fill="#5DA444"/>
<path d="M317.426 84.2042C317.438 84.1918 317.451 84.1856 317.463 84.1856C317.519 84.1296 317.612 84.0736 317.724 83.9803C317.724 83.9803 317.743 83.9616 317.762 83.9616C319.46 82.7859 327.615 78.4376 351.13 81.4422C377.836 84.8574 387.409 57.7597 387.615 57.1066C387.627 57.1066 387.633 57.1066 387.633 57.1066C387.633 57.1066 367.609 57.1999 357.419 65.5419C347.248 73.884 328.175 76.3474 325.096 78.0083C322.203 79.576 317.892 83.7563 317.426 84.2042Z" fill="#6EBD44"/>
<path d="M317.408 84.2229C317.433 84.2104 317.452 84.198 317.464 84.1856C317.558 84.1109 317.632 84.0363 317.725 83.9803C317.725 83.9803 317.744 83.9616 317.763 83.9616C326.889 76.9073 339.803 76.8139 357.122 73.94C374.403 71.066 387.224 57.5358 387.616 57.1066C387.628 57.1066 387.634 57.1066 387.634 57.1066C387.634 57.1066 367.61 57.1999 357.42 65.5419C347.249 73.884 328.176 76.3474 325.097 78.0083C322.204 79.576 317.893 83.7563 317.427 84.2042C317.414 84.2167 317.408 84.2229 317.408 84.2229Z" fill="#5DA444"/>
<path d="M360.555 46.4318C397.375 39.3028 393.755 12.6531 393.755 12.6531C372.107 13.4556 360.555 46.4318 360.555 46.4318Z" fill="#6EBD44"/>
<path d="M360.555 46.4318C374.589 38.519 393.755 12.6531 393.755 12.6531C372.107 13.4556 360.555 46.4318 360.555 46.4318Z" fill="#5DA444"/>
<path d="M360.294 46.4878C333.495 20.2486 351.168 0 351.168 0C368.804 12.597 360.294 46.4878 360.294 46.4878Z" fill="#6EBD44"/>
<path d="M360.294 46.4878C352.922 32.1365 351.168 0 351.168 0C368.804 12.597 360.294 46.4878 360.294 46.4878Z" fill="#5DA444"/>
<path d="M190.299 183.45C190.299 183.506 190.299 183.693 190.299 183.992V184.085C190.392 189.161 193.173 223.238 249.589 246.081C249.589 246.081 271.051 254.442 290.403 277.77C290.683 278.124 295.778 233.988 243.206 211.705C192.277 190.132 190.373 183.824 190.299 183.45Z" fill="#6EBD44"/>
<path d="M190.299 184.085C190.392 189.161 193.173 223.238 249.589 246.081C249.589 246.081 271.051 254.442 290.403 277.77C290.403 277.77 283.704 246.921 245.297 230.479C206.89 214.056 190.299 184.085 190.299 184.085Z" fill="#5DA444"/>
<path d="M223.351 174.287C257.111 189.609 279.823 204.726 291.823 224.974C291.823 224.974 291.804 224.657 291.748 224.06C291.244 218.274 287.008 186.101 254.2 164.098C218.032 139.874 214.468 144.708 198.008 123.097C198.008 123.097 189.61 158.947 223.351 174.287Z" fill="#5DA444"/>
<path d="M326.739 55.2964C326.739 55.2964 329.165 69.461 328.157 75.6756C328.157 75.6756 340.624 64.4782 342.676 41.0384C344.729 17.5985 335.137 20.4912 339.541 5.3374C339.541 5.3374 339.541 5.3374 339.541 5.35606C339.149 5.76663 322.838 23.9064 326.739 55.2964Z" fill="#6EBD44"/>
<path d="M326.739 55.2964C326.739 55.2964 329.165 69.4611 328.157 75.6756C328.157 75.6756 333.719 58.357 334.838 32.9763C335.958 7.61422 337.694 8.52867 339.541 5.35608C339.149 5.76665 322.838 23.9064 326.739 55.2964Z" fill="#5DA444"/>
<path d="M284.339 79.0722C289.695 84.3909 295.369 91.7252 298.243 105.853C298.392 105.442 306.286 81.7409 288.165 60.3166C270.137 38.9856 271.929 27.7695 271.966 27.4523C271.78 27.7695 256.588 51.452 284.339 79.0722Z" fill="#6EBD44"/>
<path d="M284.339 79.0722C289.695 84.3909 295.369 91.7252 298.243 105.853C298.299 105.554 301.098 88.6086 283.817 65.2247C266.554 41.9155 271.836 27.7882 271.966 27.4523C271.78 27.7695 256.588 51.452 284.339 79.0722Z" fill="#5DA444"/>
<path d="M233.409 120.969C233.409 120.969 271.499 137.037 285.011 161.018C285.023 161.031 285.029 161.037 285.029 161.037C285.029 161.037 286.149 129.852 245.129 104.789C215.12 86.4437 210.399 74.7984 210.026 69.8716C209.932 68.5652 210.138 67.7441 210.25 67.3708C209.148 70.2262 198.511 100.552 233.409 120.969Z" fill="#6EBD44"/>
<path d="M233.409 120.969C233.409 120.969 271.499 137.037 285.011 161.018C284.544 160.048 269.484 128.751 240.613 111.209C213.59 94.7858 209.204 80.6958 210.026 69.8717C210.1 68.9385 210.212 68.0241 210.343 67.147C210.343 67.147 210.343 67.1532 210.343 67.1656C210.324 67.1656 210.324 67.1843 210.324 67.203C210.324 67.203 210.324 67.2092 210.324 67.2216C210.299 67.2465 210.281 67.2838 210.268 67.3336C210.268 67.346 210.262 67.3585 210.25 67.3709C209.148 70.2262 198.511 100.552 233.409 120.969Z" fill="#5DA444"/>
<path d="M223.351 174.287C257.111 189.609 279.823 204.726 291.823 224.974C291.823 224.974 291.804 224.657 291.748 224.06C280.29 193.789 262.971 181.995 248.247 174.605C202.113 151.426 198.008 123.097 198.008 123.097C198.008 123.097 189.61 158.947 223.351 174.287Z" fill="#6EBD44"/>
<path d="M291.449 288.332L287.119 286.466C287.629 284.388 288.096 282.292 288.519 280.177C288.643 279.542 288.768 278.908 288.892 278.273C289.004 277.639 289.116 277.011 289.228 276.389C289.328 275.841 289.421 275.3 289.508 274.765C289.583 274.305 289.657 273.844 289.732 273.384C289.744 273.297 289.757 273.21 289.769 273.123C289.869 272.513 289.962 271.903 290.049 271.294C290.161 270.485 290.273 269.683 290.385 268.886C290.796 265.602 291.132 262.317 291.374 259.014C291.561 256.662 291.704 254.311 291.803 251.96C292.139 245.484 292.046 238.989 291.859 232.495C291.71 229.77 291.635 227.064 291.43 224.339C291.405 223.879 291.368 223.419 291.318 222.958C291.318 222.896 291.318 222.828 291.318 222.753L291.001 218.759L290.945 217.901L290.441 213.049C290.254 211.425 290.142 209.801 289.9 208.197L289.265 203.344L288.948 200.918C288.836 200.116 288.705 199.313 288.575 198.511L287.81 193.677C287.324 190.467 286.746 187.201 286.317 183.954C285.85 180.688 285.496 177.422 285.178 174.138C284.768 169.472 284.525 164.769 284.469 160.085C284.469 160.023 284.469 159.967 284.469 159.917C284.457 158.399 284.463 156.881 284.488 155.364C284.488 155.04 284.494 154.717 284.506 154.393C284.618 151.09 284.805 147.787 285.141 144.502C285.496 141.218 285.962 137.952 286.578 134.704C287.828 128.229 289.695 121.846 292.289 115.762C293.912 111.955 295.834 108.279 298.018 104.77C298.142 104.571 298.273 104.372 298.41 104.173C298.572 103.912 298.74 103.65 298.914 103.389C299.959 101.784 301.066 100.217 302.236 98.6862C304.232 96.0548 306.379 93.5541 308.655 91.1839C310.932 88.8138 313.358 86.5744 315.84 84.4282C319.816 81.0317 324.015 77.9151 328.251 74.9104C328.313 74.8731 328.369 74.8358 328.419 74.7985C328.979 74.4003 329.532 74.0084 330.08 73.6227C330.179 73.5605 330.273 73.4983 330.36 73.4361C330.758 73.15 331.156 72.87 331.554 72.5963C334.241 70.7301 336.929 68.8638 339.542 66.9043C340.363 66.2947 341.178 65.6664 341.986 65.0194C343.722 63.6197 345.402 62.1641 346.969 60.5591C349.171 58.1704 351.355 55.7069 353.576 53.3182C354.695 52.1238 355.815 50.9294 356.953 49.7537C357.526 49.1689 358.104 48.5904 358.689 48.0181C358.988 47.7381 359.268 47.4582 359.585 47.1783C359.734 47.0476 359.883 46.8983 360.051 46.7677C360.201 46.6557 360.331 46.5251 360.518 46.4504C360.331 46.5251 360.201 46.6744 360.051 46.7864C359.902 46.917 359.734 47.0476 359.604 47.1969C359.286 47.4769 359.006 47.7568 358.708 48.0554C358.135 48.6277 357.569 49.2125 357.009 49.8097C355.89 51.004 354.807 52.2171 353.706 53.4301C351.504 55.8562 349.395 58.357 347.212 60.8017C345.719 62.3694 344.114 63.825 342.453 65.2247C341.594 65.9339 340.723 66.6306 339.84 67.3149C337.246 69.3117 334.596 71.234 331.946 73.1375C331.66 73.349 331.38 73.5543 331.106 73.7534C329.277 75.0597 327.467 76.4034 325.675 77.7471C323.361 79.4827 321.085 81.2743 318.882 83.1405C318.696 83.2898 318.515 83.4391 318.341 83.5884C317.719 84.1234 317.109 84.6584 316.512 85.1934C314.067 87.3582 311.716 89.6163 309.514 91.9864C307.312 94.3752 305.222 96.8759 303.299 99.4887C299.455 104.714 296.264 110.406 293.838 116.415C292.251 120.297 290.982 124.31 289.974 128.378C289.8 129.075 289.632 129.771 289.471 130.468C289.471 130.468 289.471 130.474 289.471 130.487C289.135 132.005 288.83 133.535 288.556 135.078C287.996 138.269 287.604 141.479 287.306 144.707C287.045 147.936 286.895 151.183 286.858 154.43C286.802 160.925 287.156 167.419 287.847 173.877C288.22 177.105 288.631 180.334 289.135 183.544C289.508 186.063 289.974 188.564 290.422 191.083C290.509 191.581 290.597 192.085 290.684 192.595C290.721 192.757 290.752 192.925 290.777 193.099C290.777 193.124 290.783 193.148 290.796 193.173L291.635 198.026C291.785 198.828 291.934 199.649 292.065 200.452L292.419 202.896L293.147 207.767C293.408 209.391 293.558 211.033 293.763 212.657L294.36 217.565L294.827 222.473C295.163 225.739 295.312 229.042 295.555 232.327C295.685 235.499 295.816 238.672 295.89 241.845C295.89 242.218 295.897 242.591 295.909 242.964C295.909 242.989 295.909 243.014 295.909 243.039C295.946 246.062 295.928 249.086 295.834 252.109C295.741 254.983 295.611 257.876 295.424 260.768C295.181 264.463 294.845 268.177 294.36 271.872C294.236 272.892 294.099 273.906 293.95 274.914C293.701 276.644 293.427 278.367 293.128 280.084C293.016 280.731 292.898 281.371 292.774 282.006C292.376 284.121 291.934 286.23 291.449 288.332Z" fill="#50270F"/>
</g>
<g opacity="0.5">
<path d="M564.834 257.148C563.322 260.6 541.282 293.409 470.234 291.076C470.234 291.076 484.063 280.606 513.046 274.205C541.356 267.972 561.12 261.011 564.479 257.334C564.554 257.247 564.622 257.16 564.684 257.073C564.927 256.737 564.983 256.793 564.834 257.148Z" fill="#6EBD44"/>
<path d="M470.272 296.432C470.272 296.444 470.272 296.444 470.272 296.432C469.805 295.891 439.311 261.645 435.224 250.541C430.969 238.971 429.383 223.052 427.218 211.313C426.098 205.267 424.829 200.34 422.944 197.671C422.845 197.522 422.739 197.372 422.627 197.223C423.784 198.641 461.09 244.177 470.272 296.432Z" fill="#6EBD44"/>
<path d="M587.267 230.89C587.267 230.89 572.524 234.772 568.586 238C561.102 244.122 543.187 247.462 524.132 247.929C512.357 248.209 505.694 249.646 481.004 263.306C481.004 263.306 481.023 263.288 481.041 263.269C482.441 262.093 512.786 236.825 539.846 236.171C567.56 235.481 567.112 227.531 573.494 227.195C579.895 226.84 587.267 230.89 587.267 230.89Z" fill="#6EBD44"/>
<path d="M479.229 272.357C475.478 254.703 459.578 235.761 455.435 229.863C451.292 223.948 447.69 212.228 445.824 199.537C443.957 186.828 424.25 173.839 424.25 173.839C446.514 177.124 458.738 194.909 460.063 203.046C461.388 211.164 465.68 222.996 473.612 236.153C481.525 249.31 479.229 272.357 479.229 272.357Z" fill="#6EBD44"/>
<path d="M605.145 182.835C600.068 193.565 579.596 213.534 553.954 214.71C528.704 215.848 499.012 227.605 498.098 227.979C498.098 227.96 498.116 227.96 498.116 227.96C498.452 227.786 498.813 227.581 499.199 227.344C506.57 222.716 521.463 206.722 552.424 204.8C585.064 202.785 605.145 182.835 605.145 182.835Z" fill="#6EBD44"/>
<path d="M440.916 133.715C440.393 133.417 440.113 133.286 440.113 133.286C440.113 133.286 440.393 133.361 440.916 133.715Z" fill="#6EBD44"/>
<path d="M495.745 235.667C495.745 235.667 484.734 236.694 467.565 186.268C456.05 152.452 447.503 140.135 443.21 135.694C443.21 135.694 443.192 135.675 443.192 135.656C442.203 134.648 441.437 134.051 440.934 133.715C445.954 136.515 472.715 152.695 477.176 182.48C482.121 215.363 491.266 229.602 495.745 235.649C495.745 235.661 495.745 235.667 495.745 235.667Z" fill="#6EBD44"/>
<path d="M596.038 164.303L596.02 164.322C596.007 164.334 595.995 164.346 595.982 164.359C594.732 165.535 574.577 184.477 560.916 192.147C546.938 199.985 510.901 204.893 510.322 204.968C510.658 204.707 530.03 189.478 550.073 185.503C570.135 181.528 595.646 164.564 596.038 164.303Z" fill="#6EBD44"/>
<path d="M509.724 208.682C509.724 208.669 509.717 208.663 509.705 208.663C508.903 208.159 482.887 191.494 474.135 155.046C465.251 118.039 476.318 120.036 466.707 95.5697C466.707 95.5697 466.713 95.5759 466.726 95.5884C467.211 96.2229 482.719 116.695 484.007 155.401C484.007 155.401 485.985 180.483 509.724 208.682Z" fill="#6EBD44"/>
<path d="M562.239 166.468C552.498 170.517 526.706 180.95 522.377 182.722H522.358C522.358 182.722 522.352 182.722 522.339 182.722C521.947 182.89 521.742 182.965 521.742 182.965C521.742 182.965 521.817 182.853 521.966 182.611C523.702 179.774 536.224 160.552 559.459 154.804C584.186 148.682 601.467 129.292 602.009 128.676C602.009 128.676 602.009 128.67 602.009 128.658C594.544 147.843 572.896 162.045 562.239 166.468Z" fill="#6EBD44"/>
<path d="M520.753 186.53C520.753 186.517 520.747 186.505 520.734 186.492C519.782 185.541 499.683 164.769 497.612 137.485C495.522 109.566 496.081 96.9506 491.621 88.6459C491.621 88.6459 491.627 88.6459 491.64 88.6459C492.144 89.3177 508.324 111.097 508.025 144.689C508.025 144.689 508.566 157.36 520.716 186.436C520.734 186.455 520.753 186.492 520.753 186.53Z" fill="#6EBD44"/>
<path d="M532.846 160.645C531.689 158.294 522.843 139.426 522.189 114.4C521.499 87.6568 521.294 78.6616 517.953 75.3584C518.065 75.433 518.886 76.0116 520.099 77.1686C520.137 77.206 520.174 77.2495 520.211 77.2993C524.914 81.8529 535.048 94.9351 532.491 120.969C530.14 144.819 531.371 154.916 532.267 158.779C532.51 159.768 532.715 160.346 532.846 160.645Z" fill="#6EBD44"/>
<path d="M564.741 135.917C540.126 150.194 536.076 152.62 535.945 152.695C535.958 152.695 535.964 152.689 535.964 152.676C536.263 152.303 545.93 139.668 561.849 127.893C577.338 116.453 587.957 104.21 588.648 100.272C588.648 100.235 588.648 100.198 588.648 100.16C588.673 100.048 588.679 99.9489 588.666 99.8618C588.722 101.187 588.928 121.902 564.741 135.917Z" fill="#6EBD44"/>
<path d="M461.501 326.348C461.389 325.825 461.408 325.582 461.37 325.228C461.333 324.873 461.333 324.575 461.333 324.257L461.314 323.343C461.314 323.026 461.333 322.727 461.352 322.428C461.389 321.85 461.408 321.234 461.464 320.656L461.669 318.901L461.762 318.024C461.8 317.744 461.856 317.464 461.893 317.166L462.173 315.467C462.285 314.889 462.36 314.31 462.472 313.751L462.845 312.071L463.199 310.391C463.33 309.831 463.442 309.272 463.591 308.712L464.468 305.409L464.898 303.748L465.383 302.124L466.372 298.858L466.876 297.216L467.417 295.611L468.537 292.401C468.91 291.318 469.246 290.255 469.638 289.191L470.851 286.018L472.045 282.827C472.456 281.782 472.848 280.718 473.277 279.673L475.871 273.403C482.869 256.756 490.913 240.594 499.348 224.675C503.529 216.669 507.858 208.812 512.057 200.844C516.275 192.894 520.474 184.943 524.524 176.919C525.531 174.903 526.576 172.906 527.547 170.891L530.477 164.825C532.362 160.738 534.284 156.67 535.833 152.471C536.262 151.426 536.598 150.362 536.934 149.28C537.307 148.235 537.569 147.134 537.867 146.051C538.147 144.969 538.39 143.868 538.614 142.785C538.838 141.684 539.08 140.583 539.323 139.482C540.312 135.078 541.712 130.785 543.205 126.549C541.805 130.823 540.48 135.134 539.603 139.538C539.379 140.639 539.155 141.74 538.95 142.841C538.744 143.942 538.52 145.062 538.278 146.163C537.998 147.246 537.755 148.365 537.401 149.429C537.065 150.511 536.747 151.594 536.356 152.658C534.881 156.913 533.052 161.037 531.242 165.161L528.424 171.301C527.491 173.354 526.483 175.37 525.513 177.404C521.631 185.522 517.581 193.584 513.532 201.609C509.501 209.652 505.32 217.64 501.326 225.683C493.227 241.733 485.557 258.006 478.95 274.672L476.506 280.924C476.095 281.969 475.74 283.032 475.348 284.077L474.229 287.231L473.109 290.404C472.754 291.449 472.419 292.532 472.083 293.595L471.056 296.768L470.552 298.373L470.086 299.978L469.19 303.188L468.742 304.793L468.35 306.416L467.566 309.645C467.436 310.186 467.342 310.727 467.23 311.268L466.913 312.892L466.596 314.516C466.484 315.057 466.428 315.598 466.353 316.139L466.111 317.763C466.073 318.024 466.036 318.304 465.999 318.565L465.924 319.368L465.775 320.992C465.737 321.514 465.737 322.037 465.719 322.578C465.719 322.839 465.7 323.1 465.7 323.362L465.719 324.108C465.737 324.369 465.737 324.631 465.756 324.836C465.775 325.041 465.812 325.358 465.831 325.377C466.185 326.553 465.551 327.803 464.375 328.176C463.199 328.55 461.949 327.897 461.576 326.721C461.551 326.646 461.532 326.572 461.52 326.497L461.501 326.348Z" fill="#50270F"/>
<path d="M553.301 112.814C541.581 133.081 538.8 143.401 538.539 144.371C538.539 144.396 538.533 144.421 538.52 144.446C538.52 144.446 535.441 129.722 547.198 103.445C557.313 80.901 557.108 71.3086 556.846 69.0318C556.834 68.9696 556.828 68.9136 556.828 68.8639C556.815 68.8141 556.803 68.7706 556.79 68.7332C556.79 68.6461 556.784 68.5839 556.772 68.5466C556.759 68.5342 556.753 68.5217 556.753 68.5093C557.07 69.3118 565.431 91.8931 553.301 112.814Z" fill="#6EBD44"/>
<path opacity="0.1" d="M564.834 257.148C563.322 260.6 541.282 293.409 470.234 291.076C470.234 291.076 545.481 280.438 564.479 257.334C564.554 257.241 564.61 257.166 564.684 257.073L564.834 257.148Z" fill="#050505"/>
<path opacity="0.1" d="M470.271 296.432C469.804 295.891 439.31 261.646 435.223 250.541C430.968 238.971 429.382 223.052 427.217 211.313C443.453 258.902 469.823 295.816 470.271 296.432Z" fill="#050505"/>
<path opacity="0.1" d="M587.267 230.89C587.267 230.89 572.524 234.772 568.586 238C561.102 244.122 543.187 247.462 524.132 247.929C512.357 248.209 505.694 249.646 481.004 263.306C481.004 263.306 481.023 263.288 481.041 263.269C482.441 262.28 511.423 241.789 530.758 242.554C550.558 243.338 566.552 234.361 567.597 233.932C568.642 233.503 578.72 229.21 587.267 230.89Z" fill="#050505"/>
<path opacity="0.1" d="M479.229 272.357C475.478 254.703 459.578 235.761 455.435 229.863C451.292 223.948 447.69 212.228 445.824 199.537C443.957 186.828 424.25 173.839 424.25 173.839C424.25 173.839 445.786 183.618 447.093 193.173C448.38 202.728 456.163 222.79 464.803 232.215C473.444 241.658 478.837 268.009 479.229 272.357Z" fill="#050505"/>
<path opacity="0.1" d="M605.145 182.835C600.068 193.565 579.596 213.534 553.954 214.71C528.704 215.848 499.012 227.605 498.098 227.979C498.098 227.96 498.116 227.96 498.116 227.96C498.247 227.885 498.62 227.661 499.199 227.344C504.909 224.134 531.317 209.914 550.744 210.194C572.635 210.511 600.292 192.24 605.145 182.835Z" fill="#050505"/>
<path opacity="0.1" d="M595.982 164.359C594.732 165.534 574.577 184.477 560.916 192.147C546.938 199.985 510.901 204.893 510.322 204.968C510.807 204.763 531.653 195.823 543.97 192.278C556.399 188.713 583.646 175.519 595.982 164.359Z" fill="#050505"/>
<path opacity="0.1" d="M495.745 235.668C495.745 235.668 484.735 236.694 467.565 186.268C456.051 152.452 447.503 140.135 443.211 135.694C460.959 152.639 465.755 163.332 468.405 174.604C479.528 221.988 495.167 235.089 495.745 235.649C495.745 235.661 495.745 235.668 495.745 235.668Z" fill="#050505"/>
<path d="M521.966 182.611L522.339 182.722C521.947 182.89 521.742 182.965 521.742 182.965C521.742 182.965 521.817 182.853 521.966 182.611Z" fill="#6EBD44"/>
<path opacity="0.1" d="M562.24 166.468C552.498 170.517 526.707 180.95 522.377 182.722C523.011 182.181 543.615 165.311 559.123 162.418C574.874 159.469 592.23 143.849 602.009 128.676C602.009 128.676 602.009 128.67 602.009 128.658C594.544 147.843 572.896 162.045 562.24 166.468Z" fill="#050505"/>
<path opacity="0.1" d="M564.741 135.917C540.126 150.194 536.076 152.62 535.945 152.695C535.958 152.695 535.964 152.689 535.964 152.676C536.487 152.228 554.981 136.365 568.138 128.695C581.183 121.081 588.088 106.898 588.648 100.272C588.648 100.235 588.648 100.198 588.648 100.16C588.66 100.036 588.666 99.9116 588.666 99.7872C588.666 99.8121 588.666 99.837 588.666 99.8619C588.722 101.187 588.928 121.902 564.741 135.917Z" fill="#050505"/>
<path opacity="0.1" d="M553.299 112.814C541.579 133.081 538.798 143.401 538.537 144.371C544.061 119.289 549.846 112.067 555.445 102.568C560.54 93.9086 557.442 72.727 556.845 69.0318C556.832 68.9696 556.826 68.9136 556.826 68.8639C556.807 68.8079 556.807 68.7706 556.789 68.7332C556.789 68.6586 556.77 68.5839 556.77 68.5466C556.758 68.5342 556.751 68.5217 556.751 68.5093C557.069 69.3118 565.429 91.8931 553.299 112.814Z" fill="#050505"/>
<path opacity="0.1" d="M509.705 208.663C508.903 208.159 482.887 191.494 474.135 155.046C465.251 118.039 476.318 120.036 466.707 95.5697C466.707 95.5697 466.713 95.5759 466.726 95.5884C467.099 96.2789 477.998 116.453 481.152 160.626C481.152 160.626 487.105 189.758 509.705 208.663Z" fill="#050505"/>
<path opacity="0.1" d="M520.734 186.492C519.782 185.541 499.683 164.769 497.612 137.485C495.522 109.566 496.081 96.9506 491.621 88.6459C491.621 88.6459 491.627 88.6459 491.64 88.6459C492.032 89.2804 503.621 108.092 503.453 138.437C503.304 169.323 520.716 186.436 520.716 186.436L520.734 186.492Z" fill="#050505"/>
<path opacity="0.1" d="M532.958 160.888C532.958 160.875 532.958 160.869 532.958 160.869C532.945 160.869 532.939 160.863 532.939 160.85C532.939 160.838 532.933 160.825 532.92 160.813C532.92 160.813 532.92 160.794 532.902 160.776C532.889 160.763 532.883 160.745 532.883 160.72C532.871 160.695 532.858 160.67 532.846 160.645C531.689 158.294 522.843 139.426 522.189 114.4C521.499 87.6568 521.294 78.6616 517.953 75.3584C517.953 75.3584 518.849 75.8809 520.099 77.1686C520.137 77.206 520.174 77.2495 520.211 77.2993C523.57 80.8451 529.206 89.8403 527.004 108.969C524.466 131.009 530.214 152.154 532.267 158.779C532.659 160.029 532.92 160.757 532.958 160.888Z" fill="#050505"/>
</g>
</g>
<path d="M454.425 226.803H423.035C422.437 226.803 421.934 226.318 421.934 225.702C421.934 225.086 422.437 224.601 423.035 224.601H454.425C455.04 224.601 455.544 225.086 455.544 225.702C455.544 226.318 455.04 226.803 454.425 226.803Z" fill="#D6D6D5"/>
<path d="M422.232 222.884L415.364 186.287C415.233 185.615 414.636 185.111 413.946 185.111H390.207C389.312 185.111 388.621 185.932 388.789 186.828L395.563 223.425C395.694 224.097 396.291 224.601 397 224.601H420.813C421.728 224.601 422.4 223.78 422.232 222.884Z" fill="#D6D6D5"/>
<path d="M421.616 222.884L414.729 186.287C414.617 185.615 414.02 185.111 413.311 185.111H389.573C388.677 185.111 387.986 185.932 388.154 186.828L394.947 223.425C395.059 224.097 395.656 224.601 396.366 224.601H420.197C421.093 224.601 421.784 223.78 421.616 222.884Z" fill="#E8E9E9"/>
<path d="M422.14 226.803H396.181C395.621 226.803 395.154 226.355 395.154 225.795V225.608C395.154 225.048 395.621 224.601 396.181 224.601H422.14C422.7 224.601 423.148 225.048 423.148 225.608V225.795C423.148 226.355 422.7 226.803 422.14 226.803Z" fill="#E8E9E9"/>
<path d="M427.626 226.187H424.846C424.566 226.187 424.342 225.963 424.342 225.664C424.342 225.384 424.566 225.161 424.846 225.161H427.626C427.906 225.161 428.149 225.384 428.149 225.664C428.149 225.963 427.906 226.187 427.626 226.187Z" fill="#B6B6B7"/>
<path d="M432.347 226.187H429.585C429.305 226.187 429.062 225.963 429.062 225.664C429.062 225.384 429.305 225.161 429.585 225.161H432.347C432.646 225.161 432.87 225.384 432.87 225.664C432.87 225.963 432.646 226.187 432.347 226.187Z" fill="#B6B6B7"/>
<path d="M461.534 231.468H246.283V226.803H461.534V231.468Z" fill="#9C6A28"/>
<path d="M461.534 231.468H246.283V229.136H461.534V231.468Z" fill="#7D541C"/>
<path d="M275.267 343.573H271.572V231.468H275.267V343.573Z" fill="#885A24"/>
<path d="M433.522 343.573H429.809V231.468H433.522V343.573Z" fill="#885A24"/>
<path d="M412.49 295.834C412.49 295.834 406.089 303.878 398.475 302.963C398.475 302.963 397.691 307.461 402.786 308.357C407.881 309.253 415.066 308.357 415.066 308.357L421.84 298.783L412.49 295.834Z" fill="#E8D5C1"/>
<path d="M398.474 302.964C398.474 302.964 385.709 302.441 383.134 301.06C383.134 301.06 380.633 300.817 383.918 304.531C387.221 308.245 398.456 314.833 409.392 313.097L408.421 318.192L410.138 319.032L415.252 308.096C415.252 308.096 406.256 310.69 398.474 302.964Z" fill="#90191D"/>
<path d="M467.712 150.474C467.712 150.474 463.438 141.348 474.412 139.183C485.385 137.037 490.704 144.931 492.346 151.071C492.346 151.071 505.578 147.6 506.903 163.892C506.903 163.892 532.843 173.634 509.254 196.383L491.021 190.915L480.869 159.077L471.034 152.21L467.712 150.474Z" fill="#A76730"/>
<path d="M468.029 144.745C468.029 144.745 465.696 159.003 473.59 169.379C473.59 169.379 479.32 167.513 480.869 169.379C481.652 170.293 482.977 172.962 483.911 175.276C483.911 175.276 482.119 176.023 482.156 176.247C482.324 177.87 482.343 177.721 482.343 177.721L495.742 174.996C495.742 174.996 489.397 163.332 488.613 155.587C487.848 147.861 485.515 141.199 478.554 142.207C471.593 143.214 468.029 144.745 468.029 144.745Z" fill="#E8D5C1"/>
<path d="M477.66 148.104C477.66 148.104 488.783 157.416 492.571 166.785L497.181 158.872L487.421 148.514L478.351 143.83L477.66 148.104Z" fill="#A76730"/>
<path d="M468.029 144.745C468.029 144.745 469.186 157.715 490.2 160.85L489.379 147.245L483.762 141.889L477.659 140.658L471.295 141.74L468.029 144.745Z" fill="#A76730"/>
<path d="M518.082 289.788H490.219V285.962H518.044C518.828 285.944 533.721 285.309 533.721 267.748C533.721 258.547 530.865 254.964 527.842 251.176C524.483 246.977 521.03 242.647 521.03 231.842H524.856C524.856 241.322 527.749 244.942 530.828 248.787C534.112 252.93 537.528 257.204 537.528 267.748C537.528 278.889 532.246 284.32 527.805 286.895C523.046 289.676 518.306 289.788 518.1 289.788H518.082Z" fill="#333333"/>
<path d="M464.055 307.144C464.055 307.144 473.311 325.75 469.355 329.147C465.193 332.73 457.878 330.155 457.878 330.155C457.878 330.155 459.744 322.951 455.209 309.141L464.055 307.144Z" fill="#E8D5C1"/>
<path d="M469.354 241.285L436.527 265.825C436.527 265.825 453.697 307.834 453.995 315.822C453.995 315.822 462.58 315.206 467.096 311.753L455.04 273.813L500.987 266.665L499.326 247.76L489.379 240.072L469.354 241.285Z" fill="#913E1F"/>
<path d="M445.934 220.999C445.934 220.999 444.31 223.593 437.89 222.772C437.89 222.772 432.217 223.481 430.425 225.254C430.425 225.254 429.884 225.235 431.172 223.574C432.441 221.913 436.453 216.184 443.806 217.677L446.979 218.853L445.934 220.999Z" fill="#E8D5C1"/>
<path d="M444.086 217.789C444.086 217.789 446.008 219.207 445.71 221.353C445.71 221.353 465.566 226.131 467.582 225.814C469.579 225.496 480.813 212.75 480.813 212.75L471.837 205.864C471.837 205.864 468.702 218.311 465.79 218.871C462.898 219.45 444.086 217.789 444.086 217.789Z" fill="#90191D"/>
<path d="M483.912 175.276C483.912 175.276 483.222 179.401 494.848 173.69L503.489 187.575C503.489 187.575 500.727 219.506 501.959 225.832C503.19 232.159 506.251 244.569 506.251 244.569C506.251 244.569 474.581 248.358 469.355 242.404L473.872 217.285L473.256 193.117L476.839 182.144L483.912 175.276Z" fill="#184866"/>
<path d="M483.912 175.276C483.912 175.276 474.059 184.458 475.197 213.329C476.317 242.199 468.628 243.636 468.628 243.636L467.098 242.927C467.098 242.927 473.35 220.644 472.118 208.719C470.886 196.794 469.449 180.707 483.912 175.276Z" fill="#BB2F26"/>
<path d="M468.627 228.464C468.627 228.464 465.1 231.058 457.019 226.504C457.019 226.504 449.144 224.433 445.785 225.814C445.785 225.814 445.094 225.496 447.688 223.985C450.263 222.473 458.643 217.024 467.582 222.94L471.147 226.206L468.627 228.464Z" fill="#E8D5C1"/>
<path d="M506.249 244.569L435.836 245.726C435.071 245.745 434.362 246.193 434.045 246.902C430.704 254.33 412.229 295.032 408.664 296.395L421.168 305.128L440.241 263.157C440.241 263.157 493.447 271.536 503.077 265.826C515.375 258.529 506.249 244.569 506.249 244.569Z" fill="#9F4923"/>
<path d="M458.102 328.699C458.102 328.699 452.335 339.878 447.576 342.752C447.576 342.752 446.587 344.413 450.562 343.423C454.556 342.434 470.419 332.245 470.419 332.245L473.218 337.75L474.562 336.948L470.269 324.948C470.269 324.948 469.28 328.811 458.102 328.699Z" fill="#90191D"/>
<path d="M494.958 173.522C494.958 173.522 481.708 178.654 481.708 207.842C481.708 237.03 479.207 252.781 479.207 252.781C479.207 252.781 498.504 241.919 509.515 248.246C509.515 248.246 503.785 233.559 505.465 220.551C507.144 207.543 511.53 187.5 505.67 181.304C499.81 175.127 494.958 173.522 494.958 173.522Z" fill="#BB2F26"/>
<path d="M503.171 179.923C503.171 179.923 519.314 183.786 499.532 235.817C499.532 235.817 492.534 238.262 467.974 228.931C467.974 228.931 469.598 225.273 467.582 222.94L489.081 225.982C489.081 225.982 497.087 211.481 493.131 188.657C493.131 188.657 497.087 180.129 503.171 179.923Z" fill="#90191D"/>
<path d="M500.334 286.727C500.334 288.948 495.65 291.897 490.089 291.897C484.509 291.897 480.123 288.948 480.123 286.727C480.123 284.506 484.509 283.853 490.089 283.853C495.65 283.853 500.334 284.506 500.334 286.727Z" fill="#333333"/>
<path d="M512.315 283.312H468.142C463.868 283.312 460.359 279.804 460.359 275.53C460.359 271.256 463.868 267.748 468.142 267.748H512.315C516.589 267.748 520.097 271.256 520.097 275.53C520.097 279.804 516.589 283.312 512.315 283.312Z" fill="#099ECB"/>
<path d="M513.007 286.727H468.628C467.788 286.727 467.098 286.037 467.098 285.197V284.843C467.098 284.003 467.788 283.312 468.628 283.312H513.007C513.847 283.312 514.519 284.003 514.519 284.843V285.197C514.519 286.037 513.847 286.727 513.007 286.727Z" fill="#333333"/>
<path d="M490.331 325.862V325.563C488.931 325.563 487.793 324.425 487.793 323.044V290.945C487.793 289.564 488.931 288.426 490.331 288.426C491.712 288.426 492.85 289.564 492.85 290.945V323.044C492.85 324.425 491.712 325.862 490.331 325.862Z" fill="#333333"/>
<path d="M509.815 337.283L490.032 325.862C488.913 325.209 488.521 323.753 489.174 322.615C489.827 321.477 491.283 321.085 492.421 321.738L512.203 333.159C513.323 333.812 513.715 335.287 513.062 336.406C512.409 337.545 510.953 337.937 509.815 337.283Z" fill="#333333"/>
<path d="M470.772 337.283L490.554 325.862C491.693 325.209 492.084 323.753 491.431 322.615C490.778 321.477 489.304 321.085 488.184 321.738L468.402 333.159C467.264 333.812 466.872 335.287 467.525 336.406C468.178 337.545 469.634 337.937 470.772 337.283Z" fill="#333333"/>
<path d="M521.03 337.097C521.03 340.829 517.988 343.871 514.237 343.871C510.486 343.871 507.463 340.829 507.463 337.097C507.463 333.346 510.486 330.304 514.237 330.304C517.988 330.304 521.03 333.346 521.03 337.097Z" fill="#333333"/>
<path d="M518.083 337.097C518.083 339.206 516.366 340.923 514.239 340.923C512.111 340.923 510.395 339.206 510.395 337.097C510.395 334.969 512.111 333.252 514.239 333.252C516.366 333.252 518.083 334.969 518.083 337.097Z" fill="#5F6060"/>
<path d="M474.749 337.097C474.749 340.829 471.726 343.871 467.975 343.871C464.224 343.871 461.182 340.829 461.182 337.097C461.182 333.346 464.224 330.304 467.975 330.304C471.726 330.304 474.749 333.346 474.749 337.097Z" fill="#333333"/>
<path d="M471.799 337.097C471.799 339.206 470.082 340.923 467.973 340.923C465.846 340.923 464.129 339.206 464.129 337.097C464.129 334.969 465.846 333.252 467.973 333.252C470.082 333.252 471.799 334.969 471.799 337.097Z" fill="#5F6060"/>
<path d="M537.49 203.773C535.643 209.316 531.145 225.832 537.285 240.874C537.677 241.845 536.968 242.89 535.941 242.89H519.201C518.697 242.89 518.212 242.628 517.951 242.18C516.476 239.698 512.483 230.013 518.193 203.008C518.343 202.336 518.94 201.851 519.63 201.851H536.109C537.098 201.851 537.807 202.84 537.49 203.773Z" fill="#1887A6"/>
<path d="M533.982 204.091C532.097 209.876 527.917 225.851 533.758 240.538C534.206 241.658 533.385 242.89 532.172 242.89H515.954C515.338 242.89 514.778 242.572 514.48 242.031C512.931 239.344 509.217 229.546 514.76 203.214C514.928 202.43 515.637 201.851 516.439 201.851H532.358C533.515 201.851 534.355 202.99 533.982 204.091Z" fill="#099ECB"/>
<path d="M298.24 325.06L297.55 350.086H280.791V347.417L287.453 343.144L286.632 325.06H298.24Z" fill="#FEFEFE"/>
<path d="M359.341 338.235L358.613 338.851L342.899 345.682L342.059 343.741L344.84 336.724L337.002 320.954L348.311 316.027L359.341 338.235Z" fill="#FEFEFE"/>
<path d="M267.838 121.361C267.838 121.361 267.148 136.403 280.323 144.745C280.323 144.745 283.645 143.718 284.821 141.852C284.821 141.852 289.99 145.379 291.502 148.962C291.502 148.962 299.378 149.093 301.785 141.442L295.981 132.39L285.437 118.524L277.561 115.352L267.838 121.361Z" fill="#FEF0D8"/>
<path d="M278.216 120.204C278.216 120.204 252.2 131.42 268.213 114.549C284.244 97.6971 288.779 113.261 288.779 113.261C288.779 113.261 298.446 112.552 295.982 132.39C295.982 132.39 282.881 128.956 278.216 120.204Z" fill="#7C481D"/>
<path d="M288.126 125.877C288.126 128.285 286.819 130.263 285.196 130.263C283.572 130.263 282.266 128.285 282.266 125.877C282.266 123.451 283.572 121.491 285.196 121.491C286.819 121.491 288.126 123.451 288.126 125.877Z" fill="#FEF0D8"/>
<path d="M280.79 350.086H297.549L297.493 351.672L269.312 355.293L280.79 347.417V350.086Z" fill="#FEF0D8"/>
<path d="M359.34 232.625C359.284 233.801 359.023 234.846 358.389 235.611C355.589 239.008 349.636 240.874 346.239 238.187C346.115 238.087 346.003 237.975 345.903 237.851C345.437 237.31 345.176 236.545 345.026 235.63C344.336 231.002 347.061 222.753 347.061 222.753L342.843 186.175L321.922 167.587C321.922 167.587 322.165 204.054 324.722 210.828C327.297 217.621 335.714 290.665 335.714 290.665L348.311 316.027L337.002 320.954L323.919 294.64L305.425 236.657L299.248 288.556L298.24 325.06H286.632L284.766 283.182L287.808 208.663L279.69 169.696L272.131 204.8L241.395 220.066C241.395 220.066 230.533 230.703 225.14 226.84C219.765 222.996 224.337 213.403 237.196 212.116L263.827 197.279C263.827 197.279 269.799 160.925 273.531 157.528C277.282 154.151 291.13 148.197 291.13 148.197L301.786 141.442C301.786 141.442 311.061 145.025 321.698 147.955L353.48 182.667L356.877 222.865C356.877 222.865 358.668 226.766 359.191 230.442C359.303 231.188 359.359 231.935 359.34 232.625Z" fill="#FEF0D8"/>
<path d="M342.898 345.681L358.612 338.851L336.889 356.823L342.058 343.741L342.898 345.681Z" fill="#FEF0D8"/>
<path d="M286.483 215.885C286.483 215.885 305.07 217.528 329.891 210.417L337.431 286.373L357.026 329.912C357.026 329.912 348.162 335.716 341.257 336.369L320.952 290.908L306.134 241.826L302.178 291.524L300.965 344.805L285.363 342.36L284.896 286.429L286.483 215.885Z" fill="#050505"/>
<path d="M345.026 235.63C345.175 236.544 345.436 237.31 345.903 237.851C345.169 238.672 344.59 239.58 344.167 240.576C343.085 243.02 343.365 245.166 343.365 245.185L341.2 245.502C341.181 245.39 340.808 242.759 342.152 239.698C342.693 238.429 343.589 236.992 345.026 235.63Z" fill="#050505"/>
<path d="M370.65 236.993L368.523 237.515C368.504 237.422 367.963 235.369 365.537 233.932C363.894 232.98 361.823 232.532 359.341 232.626C359.359 231.935 359.303 231.189 359.191 230.442C362.177 230.33 364.697 230.871 366.712 232.084C369.904 234.007 370.631 236.881 370.65 236.993Z" fill="#050505"/>
<path d="M394.35 275.53L339.315 290.758C336.143 291.636 332.821 289.769 331.944 286.597L323.676 256.774L322.967 254.218C322.09 251.026 323.975 247.723 327.148 246.846L382.183 231.599C385.355 230.722 388.677 232.588 389.554 235.779L390.319 238.523L398.531 268.158C399.408 271.331 397.523 274.653 394.35 275.53Z" fill="#553212"/>
<path d="M390.319 238.523C385.113 245.689 374.662 258.006 362.139 261.72C349.524 265.49 332.653 260.246 323.676 256.774L322.967 254.218C322.09 251.026 323.975 247.723 327.148 246.846L382.183 231.599C385.355 230.722 388.677 232.588 389.554 235.779L390.319 238.523Z" fill="#5E3712"/>
<path fill-rule="evenodd" clip-rule="evenodd" d="M361.97 265.658C361.317 265.658 360.701 265.228 360.514 264.557L359.32 260.432C359.078 259.63 359.544 258.79 360.347 258.566L363.165 257.745C363.556 257.633 363.967 257.67 364.322 257.876C364.676 258.062 364.937 258.398 365.049 258.771L366.244 262.896C366.356 263.288 366.3 263.698 366.113 264.053C365.908 264.407 365.591 264.669 365.199 264.781L362.399 265.602C362.25 265.639 362.107 265.658 361.97 265.658ZM363.594 258.566C363.532 258.566 363.469 258.572 363.407 258.585L360.589 259.406C360.253 259.499 360.067 259.854 360.16 260.19L361.354 264.314C361.448 264.65 361.802 264.855 362.157 264.762L364.956 263.941C365.124 263.885 365.255 263.791 365.348 263.642C365.423 263.474 365.441 263.306 365.404 263.157L364.191 259.014C364.154 258.865 364.042 258.715 363.892 258.641C363.793 258.591 363.693 258.566 363.594 258.566Z" fill="#FAAB1C"/>
<path d="M291.13 148.197C291.13 148.197 289.431 157.51 304.846 142.561L320.747 148.197C320.747 148.197 321.195 195.898 328.006 208.962C328.006 208.962 307.03 217.752 286.483 215.885L281.332 162.399L286.278 152.527L291.13 148.197Z" fill="#F5F6F7"/>
<path d="M301.786 140.415C301.786 140.415 295.254 150.437 292.623 150.959L298.035 154.916L304.847 142.561L301.786 140.415Z" fill="#FEFEFE"/>
<path d="M292.623 150.959L296.71 153.945L295.068 157.883H291.876L290.271 154.916L292.623 150.959Z" fill="#BC1F44"/>
<path d="M295.068 157.883C295.068 157.883 297.998 189.572 301.787 198.455L298.427 207.114L293.501 199.164C293.501 199.164 293.818 166.86 291.877 157.883H295.068Z" fill="#A41C43"/>
<path d="M292.623 150.959L289.916 155.588C289.916 155.588 288.629 152.975 291.092 148.104C291.092 148.104 290.607 150.306 292.623 150.959Z" fill="#FEFEFE"/>
<path d="M346.482 220.346V222.809L357.4 222.492V218.89L346.482 220.346Z" fill="#FEFEFE"/>
<path d="M304.847 142.561C304.847 142.561 297.121 161.951 303.634 184.999C310.128 208.047 305.332 237.254 305.332 237.254C305.332 237.254 328.268 236.787 335.677 231.207C335.677 231.207 337.394 216.371 330.9 202.803C324.386 189.217 324.498 171.544 324.498 171.544L341.836 188.433L346.072 222.081L358.725 221.503C358.725 221.503 359.416 187.855 355.646 182.611C351.876 177.366 328.959 148.384 325.879 147.022C322.8 145.641 304.847 142.561 304.847 142.561Z" fill="#161616"/>
<path d="M237.195 211.5L241.488 220.831L244.436 219.487L239.08 210.417L237.195 211.5Z" fill="#FEFEFE"/>
<path d="M291.13 148.197C291.13 148.197 285.158 161.28 289.375 179.307C293.612 197.354 293.182 212.918 290.588 235.835C290.588 235.835 281.63 236.395 280.641 233.857C280.641 233.857 289.039 226.056 280.585 178.057C280.585 178.057 276.629 202.915 274.371 205.323C272.113 207.711 242.869 221.876 242.869 221.876L237.662 210.735L262.203 197.036C262.726 196.738 263.099 196.253 263.211 195.655C264.424 189.963 270.844 159.731 272.691 157.51C274.725 155.046 291.13 148.197 291.13 148.197Z" fill="#161616"/>
<path d="M344.205 336.668C344.205 336.668 350.476 336.742 357.026 332.562L359.9 337.993C359.9 337.993 344.634 357.719 334.295 358.876C334.295 358.876 331.179 358.521 334.295 355.218C337.412 351.915 342.507 343.535 344.205 336.668Z" fill="#161616"/>
<path d="M286.763 343.573C286.763 343.573 294.601 346.465 298.165 345.719L297.811 356.095C297.811 356.095 282.732 355.33 268.455 356.748C268.455 356.748 264.947 356.263 271.31 353.091C277.656 349.937 286.763 343.573 286.763 343.573Z" fill="#161616"/>
<path d="M193.266 346.017C189.197 346.951 185.707 348.07 181.732 347.585C181.807 349.731 181.882 351.877 181.938 354.005C188.619 356.114 193.452 352.848 210.622 355.591C211.704 353.968 210.696 351.971 206.964 351.355C202.616 350.664 197.969 349.451 193.266 346.017Z" fill="#161616"/>
<path d="M170.851 342.845C166.167 344.095 161.912 343.909 157.359 343.05C157.004 345.066 156.687 347.063 156.313 349.059C164.338 354.285 172.96 356.002 182.777 354.733C183.411 352.773 184.848 353.184 180.985 350.944C177.103 348.723 173.52 347.865 170.851 342.845Z" fill="#161616"/>
<path d="M193.003 120.801C199.218 127.911 201.047 137.933 197.8 146.704C195.933 147.283 194.03 147.395 192.145 146.853C190.615 149.839 188.002 152.042 186.453 154.99C182.478 156.315 179.007 154.393 175.983 152.042C176.861 149.018 177.663 148.738 177.831 144.894C177.999 141.049 177.738 133.976 177.495 129.516C178.876 126.959 180.22 124.627 181.582 122.163C185.389 121.715 189.196 121.249 193.003 120.801Z" fill="#E8D5C1"/>
<path d="M172.755 329.576C173.352 315.822 176.637 314.814 176.357 298.69C176.077 282.584 173.053 260.619 179.137 242.666C181.321 257.764 182.776 277.247 182.608 291.878C182.459 306.528 182.571 315.467 183.038 329.091C186.714 328.923 190.783 328.83 194.422 329.688C195.765 313.396 193.321 304.998 196.195 287.101C199.05 269.185 195.84 232.178 194.776 214.878C193.713 197.578 199.162 189.945 196.549 175.183C204.593 193.621 196.829 196.831 192.313 212.918C197.706 221.615 207.28 233.671 213.42 240.053C219.578 246.436 218.16 253.9 227.211 252.781C236.263 251.661 227.23 236.619 221.071 235.201C214.148 226.672 208.493 219.804 203.193 209.316C203.268 195.599 209.277 173.821 201.793 164.097C194.291 154.393 192.499 157.566 187.106 154.449C181.713 151.314 180.798 154.169 175.89 151.892C170.926 154.972 165.756 157.08 160.718 160.328C152.973 180.707 154.13 196.906 169.601 213.851C185.147 220.682 202.148 224.433 219.019 226.635C222.919 228.09 229.843 231.207 233.501 228.632C237.158 226.075 239.286 220.495 236.001 216.837C232.717 213.179 223.983 216.128 219.578 216.837C204.369 214.467 188.916 210.529 174.733 204.651C167.268 195.45 163.144 188.209 168.668 175.276C168.257 190.505 169.19 201.627 161.408 220.682C153.607 239.736 159.374 276.071 164.413 299.231C162.565 310.708 162.08 318.099 160.419 328.139C164.618 328.624 168.444 328.102 172.755 329.576Z" fill="#E8D5C1"/>
<path d="M197.483 221.484C184.214 222.212 170.441 219.898 157.359 217.976C151.872 249.813 160.793 275.735 160.905 296.525C161.016 312.369 158.217 328.083 156.538 343.834C162.192 345.159 167.567 345.644 173.52 344.823C174.528 328.811 178.746 311.791 177.775 295.76C176.786 279.748 178.708 247.033 178.708 247.033C180.164 263.736 179.138 278.852 179.604 295.685C180.089 312.537 179.604 331.088 179.94 348.201C185.016 347.996 190.279 346.633 195.411 346.839C195.952 326.833 195.001 311.044 197.315 290.161C199.629 269.278 198.397 243.692 197.483 221.484Z" fill="#050505"/>
<path d="M186.864 154.207C186.323 162.306 176.917 154.58 173.409 153.068C169.191 155.028 165.328 157.584 161.595 160.328C170.647 180.707 171.001 195.805 159.449 216.352C171.804 219.525 184.699 222.399 197.483 221.241C198.771 203.344 195.374 185.839 193.918 168.017C192.612 164.471 191.418 160.869 189.999 157.36C189.029 156.185 186.771 155.718 186.864 154.207Z" fill="#F5F6F7"/>
<path d="M175.647 151.314C178.95 153.18 182.16 155.625 185.631 157.099C184.381 158.592 183.056 160.029 181.824 161.559C179.398 158.237 176.58 155.662 173.407 153.068C174.098 152.433 174.9 151.892 175.647 151.314Z" fill="#FEFEFE"/>
<path d="M185.631 157.099C184.673 158.244 183.696 159.376 182.701 160.496C183.261 161.559 183.709 162.66 184.175 163.78C184.903 163.65 185.612 163.556 186.34 163.444C186.676 162.399 187.025 161.354 187.385 160.309C186.826 159.208 186.247 158.163 185.631 157.099Z" fill="#07293A"/>
<path d="M184.175 163.78C184.269 175.761 183.41 192.632 183.41 203.587C183.41 206.647 185.5 209.353 186.321 212.302C187.814 209.633 189.046 206.815 190.297 204.035C188.468 191.288 185.556 176.191 186.34 163.444C185.612 163.556 184.903 163.649 184.175 163.78Z" fill="#07293A"/>
<path d="M185.633 157.099C186.342 158.349 187.051 159.6 187.63 160.925C188.208 158.629 187.555 156.315 186.921 154.113C186.958 155.233 186.454 156.371 185.633 157.099Z" fill="#FEFEFE"/>
<path d="M216.519 216.053C217.564 216.128 218.615 216.203 219.672 216.277C219.131 219.879 218.814 223.499 218.385 227.12C216.798 227.008 215.212 226.84 213.645 226.709C214.69 223.182 215.623 219.618 216.519 216.053Z" fill="#FEFEFE"/>
<path d="M173.67 152.602C181.527 163.37 182.964 177.068 181.377 190.841C179.772 204.595 175.928 228.016 179.194 242.572C169.937 242.087 150.92 239.698 150.827 238.485C150.23 230.442 152.245 227.96 156.762 211.257C158.441 205.043 167.549 182.555 166.615 177.721C168.388 186.903 172.923 199.276 178.205 204.781C190.578 209.82 205.62 213.571 218.777 215.811C218.161 219.954 217.657 224.227 217.004 228.296C202.615 227.363 180.892 225.123 169.21 216.016C157.546 206.909 146.18 171.954 155.829 161.914C165.477 151.892 164.973 158.331 173.67 152.602Z" fill="#1E4180"/>
<path d="M221.314 234.454C218.776 236.769 216.238 239.064 213.7 241.359C212.878 240.576 212.057 239.81 211.273 238.989C214.166 236.936 217.04 234.846 219.914 232.793C220.387 233.353 220.853 233.907 221.314 234.454Z" fill="#FEFEFE"/>
<path d="M186.863 154.206C188.935 167.55 191.044 170.872 190.577 185.596C190.092 200.321 191.044 225.851 193.041 241.882C196.232 242.983 200.468 242.927 202.95 240.557C199.292 237.888 194.608 187.257 197.296 183.954C195.131 186.604 189.289 201.963 190.428 211.892C191.585 221.82 205.787 234.529 211.759 241.863C215.174 239.045 217.992 236.358 221.165 233.614C215.062 226.429 208.997 218.89 205.115 210.361C204.798 209.633 204.76 209.503 204.872 208.122C205.712 197.596 209.37 170.984 202.428 163.594C192.537 153.068 193.208 158.947 186.863 154.206Z" fill="#1E4180"/>
<path d="M176.375 140.415C176.375 140.415 168.238 140.452 171.578 128.378C171.578 128.378 167.697 119.887 176.375 120.055C176.375 120.055 175.255 115.8 183.784 115.538C183.784 115.538 196.53 114.829 196.772 115.538C198.62 121.174 196.716 119.7 194.962 123.339C194.962 123.339 187.311 120.857 183.784 123.19C180.238 125.523 185.463 128.453 184.082 131.532C182.701 134.611 184.455 140.359 176.375 140.415Z" fill="#272723"/>
<path d="M180.146 136.571C181.303 137.877 183.449 139.445 185.128 138.213C186.808 136.981 185.744 134.555 184.625 133.211C183.524 131.849 181.303 130.356 179.642 131.644C177.999 132.931 179.007 135.246 180.146 136.571Z" fill="#E8D5C1"/>
<path d="M96.8556 206.05C93.8509 206.872 91.1449 208.159 89.2413 209.167C87.0392 205.397 85.2849 202.243 84.949 201.217C83.9599 198.1 79.4996 181.267 78.1933 174.324C76.9056 167.382 79.7796 165.647 79.7796 165.647C82.4669 164.975 85.117 166.673 86.1248 168.894C87.1139 171.133 91.7794 195.525 93.1044 198.641C93.5337 199.631 95.008 202.542 96.8556 206.05Z" fill="#BF7BB4"/>
<path d="M115.406 234.641C114.417 236.712 104.768 241.042 100.271 227.307C100.271 227.307 93.7948 216.93 89.2412 209.167C91.1448 208.159 93.8508 206.871 96.8554 206.05C100.756 213.478 106.355 223.612 107.25 224.059C108.594 224.731 112.756 224.395 113.073 225.552C113.409 226.728 109.751 227.307 109.751 227.307C109.751 227.307 116.414 232.569 115.406 234.641Z" fill="#FDDDBA"/>
<path d="M132.276 348.612C132.276 348.612 131.865 351.728 128.338 351.598C124.811 351.467 121.004 353.091 117.085 350.105C113.147 347.119 106.765 342.378 106.765 342.378L106.093 353.762H104.189L102.379 340.885C102.379 340.885 100.625 339.28 100.27 336.239C100.158 335.175 100.363 334.13 100.793 333.178C101.147 332.413 101.614 331.312 101.968 329.968C102.136 329.389 102.267 328.774 102.379 328.12C102.976 324.593 95.3807 302.646 93.8877 299.101C92.0401 294.734 90.0806 284.861 90.6218 279.02L82.2051 258.417H99.1131C99.1131 258.417 103.237 267.897 103.928 271.014C104.6 274.13 110.833 322.97 112.606 327.318C112.905 328.046 113.39 328.979 113.987 330.061C114.273 330.534 114.572 331.032 114.883 331.554C117.328 335.511 120.929 340.456 123.281 342.976C124.027 343.778 124.662 344.338 125.072 344.543C127.386 345.626 132.276 348.612 132.276 348.612Z" fill="#FDDDBA"/>
<path d="M132.277 348.611C132.277 348.611 131.867 351.728 128.339 351.597C124.812 351.467 121.005 353.09 117.086 350.104C113.148 347.118 106.766 342.378 106.766 342.378L106.094 353.762H104.19L102.38 340.885C102.38 340.885 100.626 339.28 100.271 336.238C100.159 335.175 100.365 334.129 100.794 333.178C101.149 332.413 101.615 331.311 101.97 329.968C103.556 329.912 105.571 330.024 106.374 330.789C107.774 332.133 116.732 343.087 120.091 343.647C121.36 343.853 122.424 343.498 123.282 342.975C124.028 343.778 124.663 344.338 125.074 344.543C127.388 345.625 132.277 348.611 132.277 348.611Z" fill="#75266D"/>
<path d="M58.6348 327.579C58.2055 328.718 58.2802 330.155 58.6534 331.722C58.8214 332.338 59.008 332.991 59.2506 333.644C61.1355 338.926 65.3905 344.749 65.3905 344.749C73.9938 348.929 74.1618 351.635 74.1618 351.635C72.4822 354.789 67.63 354.005 64.0095 353.762C60.4077 353.538 51.4871 342.826 48.7624 342.49C46.0564 342.155 45.7205 353.762 45.7205 353.762H44.2461C44.2461 353.762 44.2461 339.094 43.2384 333.906C42.2306 328.718 47.6427 325.097 47.6427 325.097C47.6427 325.097 54.4171 306.36 56.0034 302.18C57.571 298.018 59.0453 289.434 59.8292 286.261C60.6316 283.107 67.1634 275.661 67.1634 275.661L66.305 267.132L81.1788 264.93C81.1788 264.93 80.8242 277.004 79.7792 281.315C78.7341 285.626 60.6316 322.391 58.6348 327.579Z" fill="#FDDDBA"/>
<path d="M114.883 331.554C113.894 332.17 112.793 332.917 111.654 333.831C110.553 334.708 109.62 335.585 108.818 336.406C108.519 335.946 108.22 335.492 107.922 335.044C108.668 334.242 109.545 333.383 110.572 332.525C111.766 331.517 112.942 330.696 113.987 330.061C114.136 330.304 114.286 330.546 114.883 331.554Z" fill="#75266D"/>
<path d="M74.1618 351.635C72.4822 354.789 67.63 354.005 64.0095 353.762C60.4077 353.538 51.4871 342.826 48.7624 342.49C46.0564 342.154 45.7205 353.762 45.7205 353.762H44.2461C44.2461 353.762 44.2461 339.094 43.2384 333.906C42.2306 328.718 47.6427 325.097 47.6427 325.097C47.6427 325.097 50.5167 327.299 51.4125 330.061C52.3269 332.805 56.0967 342.92 59.4373 344.655C62.7778 346.391 65.3905 344.748 65.3905 344.748C73.9938 348.929 74.1618 351.635 74.1618 351.635Z" fill="#75266D"/>
<path d="M59.2503 333.645C57.1041 334.316 54.1555 335.679 53.0171 338.18L52.252 335.25C52.252 335.25 55.9844 333.01 58.6531 331.722C58.8211 332.338 59.0077 332.991 59.2503 333.645Z" fill="#75266D"/>
<path d="M89.1472 203.344C89.1472 203.344 90.7708 218.237 90.7708 227.307C90.7708 236.377 99.1129 258.417 99.1129 258.417C99.1129 258.417 86.7024 268.793 66.3045 267.132C66.3045 267.132 57.104 228.24 61.7883 212.769C61.7883 212.769 64.8489 203.68 67.6109 201.963L89.1472 203.344Z" fill="#912F88"/>
<path d="M99.5613 245.596L47.8854 247.275L46.9336 218.143L98.6281 216.464L99.5613 245.596Z" fill="#694D1E"/>
<path d="M62.9828 145.547C62.9828 145.547 54.8087 151.127 56.1151 160.608C57.4401 170.069 67.611 177.068 67.611 177.068C67.611 177.068 65.5209 151.836 67.611 148.029L62.9828 145.547Z" fill="#403F40"/>
<path d="M66.8464 141.927C66.8464 141.927 63.0206 142.673 62.9646 145.23C62.9086 147.787 66.0066 150.231 67.2383 149.989C68.47 149.746 69.739 146.853 69.739 146.853L66.8464 141.927Z" fill="#EC136E"/>
<path d="M72.8931 147.021L71.96 159.506L80.2274 161.298C80.2274 161.298 81.3471 151.295 89.1479 150.847L80.2274 145.976L72.8931 147.021Z" fill="#FDDDBA"/>
<path d="M79.7409 127.482C83.9213 127.389 92.4313 126.138 93.9242 136.291C93.9242 136.291 94.3721 145.361 91.1809 152.396C91.1809 152.396 79.0131 152.881 75.6352 142.841C72.2573 132.801 78.1173 127.501 79.7409 127.482Z" fill="#FDDDBA"/>
<path d="M81.683 139.892C82.9147 140.303 84.333 141.516 86.2366 140.359C88.1215 139.202 88.9426 132.502 91.1821 131.886C93.4216 131.271 94.6346 129.722 93.9628 129.031C93.291 128.359 88.6067 120.558 78.0252 122.798C67.4437 125.037 65.8201 139.762 66.4172 143.625C67.0331 147.488 73.285 151.276 76.1963 150.81C79.1076 150.343 81.683 139.892 81.683 139.892Z" fill="#403F40"/>
<path d="M72.0909 157.752C74.7223 156.912 83.2883 160.514 89.6521 172.925C96.0346 185.335 89.5028 185.652 89.1482 187.966C88.775 190.281 89.1482 203.344 89.1482 203.344C89.1482 203.344 76.8684 204.427 67.6119 201.963C67.6119 201.963 59.6805 161.671 72.0909 157.752Z" fill="#AD6CAC"/>
<path d="M83.8469 141.647C83.8469 141.647 82.4286 135.619 79.3866 138.064C76.8486 140.079 82.018 144.297 82.018 144.297L83.8469 141.647Z" fill="#FDDDBA"/>
<path d="M78.0063 243.674C77.6518 245.876 74.5725 251.904 71.9598 250.803C69.3284 249.72 66.3237 247.891 66.4171 245.335C66.4917 242.759 67.6114 234.996 67.6114 234.996C67.6114 234.996 66.2864 220.57 65.3906 210.343C67.4808 210.884 70.84 211.239 75.2257 209.969C75.4309 218.591 75.5429 232.719 75.5429 232.719C75.5429 232.719 78.3796 241.49 78.0063 243.674Z" fill="#FDDDBA"/>
<path d="M78.1919 174.324C77.2775 178.169 74.6274 199.463 75.0007 204.389C75.0753 205.49 75.15 207.506 75.2246 209.969C70.839 211.238 67.4798 210.884 65.3896 210.343C64.9604 205.565 64.6431 201.683 64.5871 200.638C64.4005 197.354 64.8671 180.502 65.315 171.917C65.7815 163.332 72.7052 164.191 72.7052 164.191C76.643 164.825 79.1064 170.48 78.1919 174.324Z" fill="#BF7BB4"/>
</svg>
