<svg width="82" height="98" viewBox="0 0 82 98" fill="none" xmlns="http://www.w3.org/2000/svg">
<g opacity="0.7">
<path d="M46.2708 56.6841C46.6563 56.3352 47.1888 55.2372 47.2108 54.892C47.3504 52.6006 47.8902 48.3298 46.3956 46.4203C46.1386 46.0971 44.4016 46.8316 43.972 46.6663C42.7491 46.8683 42.3378 47.0115 41.0819 46.6333C37.3767 45.5096 38.6546 37.7025 32.2576 39.6928C27.5756 41.1543 25.2437 44.7311 21.5201 38.4663C17.8002 32.2052 5.524 24.5964 2.10151 33.1306C0.133205 38.0293 7.32705 40.5668 8.05782 45.605C8.75187 50.3936 12.2919 52.2811 17.5541 51.7964C22.8201 51.3153 21.9351 54.3596 23.1763 58.5055C24.6709 63.485 31.424 59.8752 34.3985 57.9436C36.7965 56.3866 43.9463 54.0438 46.2708 56.6841Z" fill="url(#paint0_linear_277_9800)"/>
<g style="mix-blend-mode:soft-light">
<path d="M40.5217 51.3554C34.1137 51.3554 27.7461 49.8865 21.8081 47.0075C14.2948 43.3647 7.59671 37.5589 2.43359 30.2182L2.53642 30.1484C7.68485 37.4708 14.3683 43.2619 21.8632 46.8937C29.7364 50.7128 38.3808 52.0458 46.8526 50.7495L46.8709 50.8707C44.7594 51.1938 42.6369 51.3554 40.5217 51.3554Z" fill="#FCFDFE"/>
<path d="M23.5679 60.6494L23.4688 60.5723C26.3 56.8377 32.3995 52.5669 37.0706 51.0503L37.1073 51.1678C32.4583 52.6771 26.3845 56.9295 23.5679 60.6494Z" fill="#FCFDFE"/>
<path d="M43.5511 51.3404C40.9989 51.0099 38.7111 49.4051 36.7575 46.5702C35.3364 44.5064 34.1172 41.8441 33.1367 38.6603L33.2542 38.6235C34.231 41.7926 35.4429 44.444 36.8603 46.5004C38.7956 49.306 41.0503 50.8924 43.5695 51.2192L43.5511 51.3404Z" fill="#FCFDFE"/>
<path d="M8.51141 49.5447L8.44531 49.4382C11.4712 47.5433 16.0688 45.4685 20.7913 46.3278L20.7656 46.449C16.0872 45.597 11.5189 47.6608 8.51141 49.5447Z" fill="#FCFDFE"/>
<path d="M11.6214 40.3315C10.1562 38.5101 7.77291 34.4119 8.26498 27.3906L8.38984 27.4016C7.90143 34.3788 10.2663 38.4476 11.7169 40.2544L11.6214 40.3315Z" fill="#FCFDFE"/>
</g>
<path d="M42.7248 61.7039C45.3945 59.7466 48.0348 57.7233 50.6421 55.6411C50.7045 55.6595 49.1071 49.0458 44.851 47.4374C36.482 44.3895 38.0831 36.6962 37.8297 32.789C37.6718 27.1779 34.657 22.65 29.8427 25.1765C24.4593 27.8793 19.8984 19.716 17.5886 11.2919C16.7403 7.03217 11.1255 4.35513 7.01261 5.2842C2.77856 6.13615 0.0427737 10.5942 2.07717 18.8971C4.02711 28.7349 12.811 30.5306 17.0855 33.6667C21.2901 36.744 17.1956 43.3099 23.2768 44.753C28.4693 46.1521 34.242 46.0457 34.3008 51.3189C34.2861 56.5702 36.1626 59.8384 42.7248 61.7039Z" fill="url(#paint1_linear_277_9800)"/>
<g style="mix-blend-mode:soft-light">
<path d="M46.6199 60.0214C46.5721 59.9443 38.6218 48.6707 28.7399 38.6896C27.249 37.0114 25.703 35.3516 24.2047 33.7468C20.191 29.443 16.0414 24.9923 12.887 20.0201C9.35068 14.4494 7.43012 8.74647 7.00781 2.58451L7.25752 2.56982C7.67248 8.68771 9.5857 14.3539 13.0963 19.8843C16.2397 24.8381 20.382 29.2814 24.3884 33.5779C25.8829 35.1827 27.4326 36.8425 28.9199 38.5207C38.4896 48.1859 46.7447 59.6689 46.8439 59.9223L46.73 59.9664L46.6199 60.0214Z" fill="white"/>
<path d="M16.6974 25.2974C12.0814 23.5384 6.20957 20.6667 3.05515 19.1244C1.73316 18.4818 0.686579 17.9713 0.558052 17.9456C0.569068 17.9456 0.605792 17.9456 0.635169 17.9236L0.488281 17.7216C0.587431 17.6482 0.591102 17.6482 3.16164 18.9041C6.31607 20.4427 12.1806 23.3107 16.7855 25.066L16.6974 25.2974Z" fill="white"/>
<path d="M13.5592 21.0415C11.8149 13.418 14.8481 7.86935 15.6927 6.90356C15.7441 6.84481 15.7919 6.80074 15.8616 6.80441L15.8396 7.05045C15.8837 7.05779 15.9094 7.03576 15.9094 7.03576C15.8212 7.10553 14.8077 8.44956 14.0439 10.9907C13.3866 13.1683 12.8137 16.6716 13.8015 20.9865L13.5592 21.0415Z" fill="white"/>
<path d="M34.8734 45.3037C32.872 41.8041 32.0862 37.2983 32.5378 31.9185C32.7729 29.1203 33.3384 26.1935 34.2197 23.2264C34.2638 23.0832 34.3005 22.9583 34.3042 22.9326L34.5502 22.9657C34.5465 23.0024 34.5245 23.0758 34.4584 23.2962C33.5807 26.2486 33.0189 29.157 32.7839 31.9405C32.3395 37.2689 33.1144 41.7233 35.09 45.1788L34.8734 45.3037Z" fill="white"/>
<path d="M19.1124 42.1164L18.9766 42.0503L19.0059 41.8997C19.061 41.852 20.9081 40.9596 23.4603 40.5116C25.7885 40.104 29.1816 40.0122 32.1341 41.8813L32.0019 42.0943C26.4532 38.5727 19.2226 42.0613 19.1565 42.098L19.0941 41.9915L19.0904 41.9952L19.1124 42.1164Z" fill="white"/>
<path d="M45.2752 58.1819C44.5334 56.5698 43.9642 53.4558 45.4662 47.7565C45.5029 47.628 45.5323 47.5178 45.5323 47.4958L45.6424 47.5105L45.7636 47.437C45.7966 47.4884 45.7966 47.4884 45.7085 47.8189C44.2213 53.4484 44.7758 56.5037 45.4992 58.0754L45.2752 58.1819Z" fill="white"/>
<path d="M43.3024 55.5453C41.2569 53.1143 35.9543 53.364 33.7693 53.5807C33.6738 53.5917 33.6114 53.599 33.5894 53.599L33.582 53.3493C33.6004 53.3493 33.6555 53.342 33.7436 53.3346C40.181 52.6883 42.612 54.3408 43.4896 55.3874L43.3024 55.5453Z" fill="white"/>
</g>
<path d="M60.5924 1.79899L25.0822 0.594512C24.2706 0.568806 23.6133 1.19675 23.6133 2.00097V66.5032C23.6133 67.3074 24.2706 67.9207 25.0822 67.8766L60.5924 65.8569C61.3268 65.8128 61.9217 65.1629 61.9217 64.399V3.22381C61.9217 2.45999 61.3268 1.82103 60.5924 1.79899Z" fill="url(#paint2_linear_277_9800)"/>
<g style="mix-blend-mode:multiply" opacity="0.3">
<path d="M46.0286 49.4275C45.4227 42.0537 49.9542 39.0094 48.2246 32.326C46.0911 24.0672 37.8764 23.711 35.0781 15.6138C34.0095 12.5108 33.5835 7.81774 36.6535 0.987438L25.0861 0.594512C24.2745 0.568806 23.6172 1.19675 23.6172 2.00097V66.5032C23.6172 67.3074 24.2745 67.9207 25.0861 67.8766L56.7515 66.0736C48.6947 59.8382 46.3995 53.9626 46.0286 49.4275Z" fill="#D8DEE8"/>
</g>
<path opacity="0.3" d="M60.5929 2.61046L25.0827 1.45004C24.7522 1.43903 24.4805 1.69975 24.4805 2.02658V66.4554C24.4805 66.7859 24.7522 67.0393 25.0827 67.0209L60.5929 65.0416C60.894 65.0232 61.1401 64.7552 61.1401 64.443V3.19801C61.1401 2.88588 60.894 2.62148 60.5929 2.61046Z" fill="url(#paint3_linear_277_9800)"/>
<path opacity="0.6" d="M53.8884 51.3852L32.3399 52.1637C31.8332 52.182 31.4219 52.608 31.4219 53.1148C31.4219 53.6252 31.8332 54.0218 32.3399 53.9998L53.8884 53.1699C54.3658 53.1515 54.755 52.7365 54.755 52.2481C54.755 51.7561 54.3658 51.3705 53.8884 51.3852Z" fill="url(#paint4_linear_277_9800)"/>
<path opacity="0.6" d="M53.8884 54.5649L32.3399 55.4352C31.8332 55.4572 31.4219 55.8869 31.4219 56.3936C31.4219 56.9004 31.8332 57.297 32.3399 57.275L53.8884 56.3496C54.3658 56.3275 54.755 55.9126 54.755 55.4205C54.755 54.9284 54.3658 54.5428 53.8884 54.5649Z" fill="url(#paint5_linear_277_9800)"/>
<path opacity="0.6" d="M53.8884 57.7416L32.3399 58.7111C31.8332 58.7331 31.4219 59.1628 31.4219 59.6732C31.4219 60.18 31.8332 60.5729 32.3399 60.5472L53.8884 59.5263C54.3658 59.5043 54.755 59.0857 54.755 58.5936C54.755 58.1015 54.3658 57.7196 53.8884 57.7416Z" fill="url(#paint6_linear_277_9800)"/>
<path opacity="0.6" d="M42.7139 5.19196L31.8772 4.8835C31.6238 4.87615 31.4219 5.07445 31.4219 5.32784C31.4219 5.57755 31.6238 5.78686 31.8772 5.79421L42.7139 6.08798C42.9599 6.09533 43.1582 5.9007 43.1582 5.65099C43.1582 5.40495 42.9599 5.19931 42.7139 5.19196Z" fill="url(#paint7_linear_277_9800)"/>
<path opacity="0.6" d="M42.7139 6.78931L31.8772 6.50655C31.6238 6.4992 31.4219 6.6975 31.4219 6.94721C31.4219 7.20059 31.6238 7.40991 31.8772 7.41725L42.7139 7.68532C42.9599 7.69267 43.1582 7.49437 43.1582 7.24833C43.1582 7.00229 42.9599 6.79665 42.7139 6.78931Z" fill="url(#paint8_linear_277_9800)"/>
<path opacity="0.6" d="M42.7139 8.38675L31.8772 8.12603C31.6238 8.12235 31.4219 8.32065 31.4219 8.57036C31.4219 8.82374 31.6238 9.03306 31.8772 9.03673L42.7139 9.28277C42.9599 9.29012 43.1582 9.09182 43.1582 8.84578C43.1582 8.59607 42.9599 8.39042 42.7139 8.38675Z" fill="url(#paint9_linear_277_9800)"/>
<g style="mix-blend-mode:soft-light" opacity="0.3">
<path d="M46.1039 49.4239C45.498 42.0502 50.0295 39.0059 48.3035 32.3262C46.1663 24.0674 37.9553 23.7112 35.157 15.614C34.1325 12.6395 33.6992 8.20346 36.3689 1.82117L25.1686 1.45395C24.8345 1.44293 24.5664 1.70366 24.5664 2.03049V66.452C24.5664 66.7824 24.8345 67.0322 25.1686 67.0138L55.8609 65.3062C48.5826 59.3499 46.4601 53.7718 46.1039 49.4239Z" fill="white"/>
</g>
<path opacity="0.7" d="M36.3888 22.239C36.3888 16.0587 31.1265 11.0498 24.6378 11.0498C18.1453 11.0498 12.8867 16.0587 12.8867 22.239C12.8867 25.9883 14.822 29.308 17.7965 31.3387C19.0597 32.198 19.8235 33.6192 19.8235 35.1468V36.0024C19.8235 37.8642 21.3328 39.3698 23.1946 39.3698H26.0809C27.9391 39.3698 29.4484 37.8642 29.4484 36.0024V35.1468C29.4484 33.6192 30.2122 32.198 31.4754 31.3387C34.4499 29.308 36.3888 25.9883 36.3888 22.239Z" fill="#F4F7FA"/>
<path d="M27.2421 44.3598C27.2421 45.1199 26.078 45.7405 24.6385 45.7405C23.199 45.7405 22.0312 45.1199 22.0312 44.3598C22.0312 43.5959 23.199 42.979 24.6385 42.979C26.078 42.979 27.2421 43.5959 27.2421 44.3598Z" fill="url(#paint10_linear_277_9800)"/>
<path d="M21.1719 41.896V43.3025C21.1719 43.7798 21.4436 44.2168 21.8769 44.4225C22.4718 44.7089 23.467 45.021 24.9102 44.9843C26.0816 44.9549 26.8454 44.7603 27.3302 44.562C27.8002 44.3674 28.1013 43.9047 28.1013 43.3943V42.6157L21.1719 41.896Z" fill="url(#paint11_linear_277_9800)"/>
<path style="mix-blend-mode:multiply" opacity="0.3" d="M21.1719 43.1299C21.2784 43.2327 21.4032 43.3171 21.5391 43.3832C22.2074 43.7027 26.5994 44.4188 27.657 44.0185C27.7965 43.9671 27.9214 43.901 28.0279 43.8166C28.0756 43.6844 28.1013 43.5411 28.1013 43.3943V42.6157L21.1719 41.896V43.1299Z" fill="url(#paint12_linear_277_9800)"/>
<path d="M21.481 40.9337C21.0918 40.8933 20.7539 41.2018 20.7539 41.5947V41.6315C20.7539 42.1676 21.055 42.6597 21.5398 42.8873C22.2081 43.2068 26.6001 43.9229 27.6576 43.5226C28.1938 43.3243 28.5243 42.8653 28.5243 42.2961V42.2631C28.5243 41.9252 28.2672 41.6425 27.9294 41.6057L21.481 40.9337Z" fill="url(#paint13_linear_277_9800)"/>
<path style="mix-blend-mode:multiply" opacity="0.3" d="M27.9286 41.6061L21.4802 40.9341C21.2268 40.9084 20.9955 41.0296 20.8633 41.2279C20.9918 41.5327 21.2268 41.786 21.539 41.9366C22.2073 42.2561 26.7865 43.064 27.6569 42.6527C27.9984 42.4911 28.2628 42.223 28.406 41.8925C28.2995 41.7383 28.1306 41.6281 27.9286 41.6061Z" fill="url(#paint14_linear_277_9800)"/>
<path d="M21.2313 38.6533C20.9669 38.6533 20.7539 38.8663 20.7539 39.1307V40.2324C20.7539 40.7685 21.055 41.2569 21.5398 41.4883C22.2081 41.8077 26.7873 42.6156 27.6576 42.2043C28.1754 41.962 28.5243 41.4662 28.5243 40.897V39.1307C28.5243 38.8663 28.3076 38.6533 28.0469 38.6533H21.2313Z" fill="url(#paint15_linear_277_9800)"/>
<path d="M28.4273 38.9951C28.4273 39.4909 26.7308 39.8912 24.6413 39.8912C22.5481 39.8912 20.8516 39.4909 20.8516 38.9951C20.8516 38.5031 22.5481 38.0991 24.6413 38.0991C26.7308 38.0991 28.4273 38.5031 28.4273 38.9951Z" fill="url(#paint16_linear_277_9800)"/>
<path d="M36.3888 22.239C36.3888 16.0587 31.1265 11.0498 24.6378 11.0498C18.1453 11.0498 12.8867 16.0587 12.8867 22.239C12.8867 25.9883 14.822 29.308 17.7965 31.3387C19.0597 32.198 19.8235 33.6192 19.8235 35.1468V36.0024C19.8235 37.8642 21.3328 39.3698 23.1946 39.3698H26.0809C27.9391 39.3698 29.4484 37.8642 29.4484 36.0024V35.1468C29.4484 33.6192 30.2122 32.198 31.4754 31.3387C34.4499 29.308 36.3888 25.9883 36.3888 22.239Z" fill="white"/>
<g style="mix-blend-mode:soft-light" opacity="0.5">
<path d="M27.4122 38.2896C27.4122 38.6495 26.171 38.9433 24.6397 38.9433C23.1084 38.9433 21.8672 38.6495 21.8672 38.2896C21.8672 37.9261 23.1084 37.6323 24.6397 37.6323C26.171 37.6323 27.4122 37.9261 27.4122 38.2896Z" fill="#F4F7FA"/>
</g>
<path d="M23.9158 38.6895C23.835 38.6895 23.7652 38.6308 23.7579 38.55L21.7161 22.6861C21.7051 22.5979 21.7675 22.5172 21.8556 22.5061C21.9438 22.4951 22.0246 22.5576 22.0356 22.6457L24.0737 38.5096C24.0847 38.5977 24.0222 38.6785 23.9341 38.6895C23.9292 38.6895 23.9231 38.6895 23.9158 38.6895Z" fill="url(#paint17_linear_277_9800)"/>
<path d="M25.1796 38.6895C25.1722 38.6895 25.1649 38.6895 25.1575 38.6895C25.0694 38.6785 25.007 38.5977 25.0217 38.5096L27.0597 22.6457C27.0708 22.5576 27.1516 22.4951 27.2397 22.5061C27.3278 22.5172 27.3902 22.5979 27.3792 22.6861L25.3375 38.55C25.3265 38.6308 25.2567 38.6895 25.1796 38.6895Z" fill="url(#paint18_linear_277_9800)"/>
<path d="M26.8387 22.6757C26.7873 22.6757 26.7359 22.6499 26.7065 22.6022L26.141 21.7466C26.1373 21.7392 26.1263 21.7356 26.119 21.7356C26.1043 21.7356 26.1006 21.7466 26.0969 21.7503L25.726 22.3709C25.6636 22.4737 25.5571 22.5361 25.4359 22.5398C25.3184 22.5435 25.2083 22.4847 25.1385 22.3855L24.6281 21.6217C24.6232 21.6119 24.6158 21.607 24.606 21.607C24.595 21.6107 24.5913 21.6107 24.5877 21.6181L24.1397 22.268C24.0736 22.3598 23.9671 22.4186 23.8532 22.4186C23.7394 22.4186 23.6329 22.3635 23.5668 22.268L22.9205 21.3426C22.9168 21.3353 22.9095 21.3316 22.8984 21.3316C22.8887 21.3316 22.8813 21.3353 22.8764 21.3426L22.2889 22.3635C22.2448 22.4406 22.1456 22.4663 22.0685 22.4223C21.9914 22.3745 21.9657 22.2791 22.0098 22.2019L22.601 21.1847C22.6598 21.0782 22.7662 21.0158 22.8874 21.0085C23.0049 21.0048 23.1151 21.0599 23.1849 21.159L23.8312 22.0844C23.8361 22.0918 23.8434 22.0954 23.8532 22.0954C23.863 22.0954 23.8704 22.0918 23.8752 22.0844L24.3233 21.4381C24.3894 21.3426 24.4959 21.2876 24.6097 21.2876C24.7235 21.2876 24.8337 21.3463 24.8961 21.4418L25.4066 22.2093C25.4139 22.2166 25.4212 22.224 25.4286 22.2203C25.4433 22.2203 25.4506 22.2093 25.4506 22.2056L25.8215 21.585C25.8839 21.4822 25.9941 21.4161 26.1116 21.4161C26.2328 21.4124 26.343 21.4712 26.4091 21.5703L26.9746 22.4259C27.0223 22.4994 27.0003 22.5985 26.9268 22.6463C26.9011 22.6646 26.8681 22.6757 26.8387 22.6757Z" fill="url(#paint19_linear_277_9800)"/>
<path style="mix-blend-mode:multiply" opacity="0.3" d="M24.8508 31.063C25.1005 26.7518 32.3714 25.7419 32.342 21.8898C32.32 19.5175 29.4337 17.7549 28.8167 17.4024C24.2705 14.8024 18.6741 17.8063 17.5174 15.6801C17.2309 15.1513 17.3668 14.5748 17.4439 14.2479C17.5578 13.7522 17.8222 13.2895 18.2114 12.8672C15.0056 14.8649 12.8867 18.3167 12.8867 22.2386C12.8867 25.988 14.822 29.3076 17.7965 31.3384C19.0597 32.1977 19.8235 33.6188 19.8235 35.1464V36.0021C19.8235 37.8639 21.3328 39.3695 23.1946 39.3695H26.0809C27.9391 39.3695 29.4484 37.8639 29.4484 36.0021V35.319C29.0518 35.6238 28.5964 35.8331 28.0933 35.8295C26.3564 35.8148 24.7259 33.2112 24.8508 31.063Z" fill="url(#paint20_linear_277_9800)"/>
<path opacity="0.2" d="M34.9338 22.6757C34.9338 28.0592 30.4096 32.4254 24.8242 32.4254C19.2388 32.4254 14.7109 28.0592 14.7109 22.6757C14.7109 17.2886 19.2388 12.9224 24.8242 12.9224C30.4096 12.9224 34.9338 17.2886 34.9338 22.6757Z" fill="url(#paint21_linear_277_9800)"/>
<path d="M36.9878 42.8544L9.43893 41.9216C8.80731 41.8996 8.29688 42.388 8.29688 43.0123V93.057C8.29688 93.6813 8.80731 94.155 9.43893 94.122L36.9878 92.554C37.557 92.5209 38.0197 92.0178 38.0197 91.4266V43.9597C38.0197 43.3685 37.557 42.8727 36.9878 42.8544Z" fill="url(#paint22_linear_277_9800)"/>
<g style="mix-blend-mode:multiply" opacity="0.3">
<path d="M25.6848 79.8072C25.2147 74.086 28.729 71.7247 27.3887 66.5396C25.7325 60.1316 19.3612 59.8562 17.191 53.573C16.3574 51.1641 16.0305 47.5249 18.4101 42.2259L9.43893 41.9211C8.80731 41.8991 8.29688 42.3875 8.29688 43.0118V93.0566C8.29688 93.6808 8.80731 94.1545 9.43893 94.1215L34.0023 92.7224C27.7522 87.8824 25.9712 83.3252 25.6848 79.8072Z" fill="#D8DEE8"/>
</g>
<path d="M36.9877 43.4861L9.43879 42.5864C9.17807 42.5754 8.96875 42.7773 8.96875 43.0344V93.0204C8.96875 93.2738 9.17807 93.4721 9.43879 93.4574L36.9877 91.9224C37.2227 91.9077 37.41 91.7021 37.41 91.4597V43.9414C37.41 43.6954 37.2227 43.4934 36.9877 43.4861Z" fill="url(#paint23_linear_277_9800)"/>
<path d="M31.7835 81.3282L15.0676 81.9304C14.671 81.9451 14.3516 82.2756 14.3516 82.6685C14.3516 83.0651 14.671 83.3699 15.0676 83.3552L31.7835 82.7126C32.1544 82.6979 32.4555 82.3784 32.4555 81.9965C32.4555 81.6146 32.1544 81.3135 31.7835 81.3282Z" fill="#D8DEE8"/>
<path d="M31.7835 83.792L15.0676 84.4714C14.671 84.4861 14.3516 84.8202 14.3516 85.2132C14.3516 85.6061 14.671 85.9146 15.0676 85.8962L31.7835 85.1765C32.1544 85.1618 32.4555 84.8386 32.4555 84.4567C32.4555 84.0748 32.1544 83.7773 31.7835 83.792Z" fill="#D8DEE8"/>
<path d="M31.7835 86.2596L15.0676 87.0087C14.671 87.0271 14.3516 87.3613 14.3516 87.7542C14.3516 88.1508 14.671 88.4556 15.0676 88.4372L31.7835 87.644C32.1544 87.6257 32.4555 87.3025 32.4555 86.9206C32.4555 86.5387 32.1544 86.2412 31.7835 86.2596Z" fill="#D8DEE8"/>
<path d="M23.1134 45.4878L14.7041 45.2491C14.5095 45.2454 14.3516 45.396 14.3516 45.5943C14.3516 45.7889 14.5095 45.9505 14.7041 45.9542L23.1134 46.1818C23.3044 46.1892 23.4586 46.0386 23.4586 45.844C23.4586 45.653 23.3044 45.4915 23.1134 45.4878Z" fill="#D8DEE8"/>
<path d="M23.1134 46.7247L14.7041 46.5081C14.5095 46.5007 14.3516 46.655 14.3516 46.8496C14.3516 47.0442 14.5095 47.2095 14.7041 47.2131L23.1134 47.4224C23.3044 47.4261 23.4586 47.2756 23.4586 47.0846C23.4586 46.89 23.3044 46.7321 23.1134 46.7247Z" fill="#D8DEE8"/>
<path d="M23.1134 47.9662L14.7041 47.7642C14.5095 47.7606 14.3516 47.9148 14.3516 48.1094C14.3516 48.304 14.5095 48.4656 14.7041 48.473L23.1134 48.6602C23.3044 48.6676 23.4586 48.5134 23.4586 48.3224C23.4586 48.1314 23.3044 47.9699 23.1134 47.9662Z" fill="#D8DEE8"/>
<path d="M19.8763 61.2776C20.4234 60.2457 21.4443 59.5112 22.6415 59.3754L22.7259 54.271C19.3108 54.3591 16.373 56.4633 15.0547 59.4818L19.8763 61.2776Z" fill="url(#paint24_linear_277_9800)"/>
<path d="M26.5711 63.5986C26.2773 65.2952 24.8231 66.5952 23.0605 66.6135C22.539 66.6172 22.0432 66.5107 21.5952 66.3124L18.9219 70.708C20.1594 71.3653 21.5695 71.7215 23.0605 71.6958C27.4965 71.6151 31.0916 68.1412 31.4955 63.7859L26.5711 63.5986Z" fill="url(#paint25_linear_277_9800)"/>
<path d="M18.0917 70.2084L20.7724 65.8054C19.9645 65.1444 19.4504 64.1309 19.4504 62.9925C19.4504 62.7171 19.4798 62.449 19.5385 62.1919L14.7096 60.3999C14.4562 61.2261 14.3203 62.1001 14.3203 63.0072C14.3203 66.011 15.8186 68.6477 18.0917 70.2084Z" fill="url(#paint26_linear_277_9800)"/>
<path d="M23.5977 59.3937C25.2098 59.6434 26.4583 60.9801 26.6089 62.6362L34.7612 62.9594C34.7612 62.9569 34.7612 62.9533 34.7612 62.9484C34.7612 56.6285 29.9395 51.3809 23.7372 50.9146L23.5977 59.3937Z" fill="url(#paint27_linear_277_9800)"/>
<g style="mix-blend-mode:soft-light" opacity="0.3">
<path d="M25.7474 79.8076C25.2773 74.0863 28.7916 71.7214 27.4513 66.5399C25.7951 60.1319 19.4238 59.8565 17.2572 53.5734C16.4567 51.2635 16.1225 47.8227 18.1973 42.8726L9.5052 42.5861C9.24814 42.5788 9.03516 42.7808 9.03516 43.0341V93.0165C9.03516 93.2699 9.24814 93.4682 9.5052 93.4535L33.3194 92.1278C27.6716 87.5082 26.0228 83.1787 25.7474 79.8076Z" fill="white"/>
</g>
<path d="M16.5333 56.4046L3.1995 56.2724C2.89838 56.2687 2.65234 56.03 2.65234 55.7362V50.6649C2.65234 50.3712 2.89838 50.1398 3.1995 50.1471L14.8073 50.4226C15.0938 50.4299 15.3251 50.6649 15.3251 50.9514V55.3103L16.5333 56.4046Z" fill="url(#paint28_linear_277_9800)"/>
<path opacity="0.7" d="M13.4527 52.2551L4.62109 52.0825V51.4766L13.4527 51.6602V52.2551Z" fill="white"/>
<path opacity="0.7" d="M13.4527 53.4484L4.62109 53.2978V52.6919L13.4527 52.8498V53.4484Z" fill="white"/>
<path opacity="0.7" d="M13.4527 54.6385L4.62109 54.5136V53.9077L13.4527 54.0436V54.6385Z" fill="white"/>
<path style="mix-blend-mode:multiply" opacity="0.3" d="M23.1443 73.4731L35.0569 73.216C35.3653 73.2087 35.6187 73.462 35.6187 73.7852V79.3302C35.6187 79.6497 35.3653 79.9214 35.0569 79.9288L22.5016 80.3548C22.1785 80.3658 21.9141 80.1087 21.9141 79.7782V72.5293L23.1443 73.4731Z" fill="url(#paint29_linear_277_9800)"/>
<path opacity="0.7" d="M24.0391 78.1661L33.5905 77.8833V78.5516L24.0391 78.8491V78.1661Z" fill="white"/>
<path opacity="0.7" d="M24.0391 76.804L33.5905 76.5396V77.2116L24.0391 77.487V76.804Z" fill="white"/>
<path opacity="0.7" d="M24.0391 75.4379L33.5905 75.1992V75.8712L24.0391 76.1209V75.4379Z" fill="white"/>
<path d="M79.4839 12.8821L42.4608 11.6299C41.6125 11.6005 40.9258 12.2578 40.9258 13.0951V80.3478C40.9258 81.1851 41.6125 81.824 42.4608 81.7763L79.4839 79.6721C80.2477 79.628 80.8683 78.9487 80.8683 78.1518V14.3693C80.8683 13.5725 80.2477 12.9078 79.4839 12.8821Z" fill="url(#paint30_linear_277_9800)"/>
<g style="mix-blend-mode:multiply" opacity="0.3">
<path d="M64.2959 62.5445C63.668 54.8512 68.3904 51.6784 66.591 44.7122C64.362 36.1009 55.7984 35.73 52.8827 27.2876C51.7664 24.0488 51.322 19.1574 54.5242 12.037L42.4647 11.6294C41.6164 11.6 40.9297 12.2573 40.9297 13.0946V80.3473C40.9297 81.1846 41.6164 81.8235 42.4647 81.7758L75.4778 79.8993C67.0758 73.3958 64.6852 67.2706 64.2959 62.5445Z" fill="#D8DEE8"/>
</g>
<path d="M79.487 13.7305L42.4639 12.5223C42.115 12.5113 41.8359 12.7794 41.8359 13.1245V80.2965C41.8359 80.6417 42.115 80.9024 42.4639 80.884L79.487 78.8203C79.7992 78.8056 80.0562 78.5265 80.0562 78.1997V14.34C80.0562 14.0169 79.7992 13.7415 79.487 13.7305Z" fill="url(#paint31_linear_277_9800)"/>
<path d="M72.4953 64.5824L50.0288 65.394C49.5 65.4123 49.0703 65.8567 49.0703 66.3891C49.0703 66.9179 49.5 67.3292 50.0288 67.3109L72.4953 66.4442C72.9947 66.4259 73.3987 65.9925 73.3987 65.4821C73.3987 64.968 72.9947 64.5677 72.4953 64.5824Z" fill="#D8DEE8"/>
<path d="M72.4953 67.8983L50.0288 68.8054C49.5 68.8274 49.0703 69.2754 49.0703 69.8042C49.0703 70.3367 49.5 70.7443 50.0288 70.7222L72.4953 69.7565C72.9947 69.7344 73.3987 69.3011 73.3987 68.7907C73.3987 68.2766 72.9947 67.8763 72.4953 67.8983Z" fill="#D8DEE8"/>
<path d="M72.4953 71.2108L50.0288 72.2207C49.5 72.2427 49.0703 72.6944 49.0703 73.2232C49.0703 73.752 49.5 74.1633 50.0288 74.1376L72.4953 73.0726C72.9947 73.0469 73.3987 72.6136 73.3987 72.0995C73.3987 71.5854 72.9947 71.1888 72.4953 71.2108Z" fill="#D8DEE8"/>
<path d="M60.8434 16.422L49.544 16.0988C49.2833 16.0915 49.0703 16.3008 49.0703 16.5615C49.0703 16.8259 49.2833 17.0426 49.544 17.0499L60.8434 17.3547C61.1004 17.3621 61.3061 17.1601 61.3061 16.8994C61.3061 16.6423 61.1004 16.4293 60.8434 16.422Z" fill="#D8DEE8"/>
<path d="M60.8434 18.085L49.544 17.7912C49.2833 17.7839 49.0703 17.9895 49.0703 18.2539C49.0703 18.5146 49.2833 18.735 49.544 18.7386L60.8434 19.0214C61.1004 19.0287 61.3061 18.8231 61.3061 18.566C61.3061 18.3053 61.1004 18.0923 60.8434 18.085Z" fill="#D8DEE8"/>
<path d="M60.8434 19.7519L49.544 19.4802C49.2833 19.4728 49.0703 19.6821 49.0703 19.9429C49.0703 20.2073 49.2833 20.4239 49.544 20.4313L60.8434 20.6847C61.1004 20.692 61.3061 20.4864 61.3061 20.2293C61.3061 19.9722 61.1004 19.7556 60.8434 19.7519Z" fill="#D8DEE8"/>
<path d="M56.4934 37.6438C57.2278 36.2557 58.5976 35.2679 60.2097 35.0843L60.3198 28.2246C55.7332 28.3458 51.7856 31.1734 50.0156 35.2275L56.4934 37.6438Z" fill="url(#paint32_linear_277_9800)"/>
<path d="M65.4855 40.7612C65.0926 43.038 63.139 44.7896 60.7704 44.8117C60.069 44.8153 59.4044 44.6721 58.8021 44.4041L55.207 50.3126C56.8705 51.194 58.7654 51.6787 60.7704 51.642C66.7341 51.5318 71.563 46.8644 72.1065 41.0109L65.4855 40.7612Z" fill="url(#paint33_linear_277_9800)"/>
<path d="M54.095 49.6405L57.7011 43.7282C56.6141 42.8359 55.9201 41.4735 55.9201 39.9459C55.9201 39.575 55.9605 39.2151 56.0376 38.8699L49.5525 36.4609C49.211 37.5699 49.0273 38.745 49.0273 39.9642C49.0273 44.0036 51.0397 47.5436 54.095 49.6405Z" fill="url(#paint34_linear_277_9800)"/>
<path d="M61.4883 35.1095C63.6512 35.4473 65.3331 37.243 65.535 39.4684L76.4929 39.9017C76.4929 39.8968 76.4929 39.8919 76.4929 39.887C76.4929 31.3932 70.0078 24.3389 61.6756 23.7109L61.4883 35.1095Z" fill="url(#paint35_linear_277_9800)"/>
<g style="mix-blend-mode:soft-light" opacity="0.3">
<path d="M64.3774 62.5414C63.7495 54.8518 68.4719 51.679 66.6725 44.7128C64.4435 36.1015 55.8836 35.7306 52.9679 27.2882C51.8956 24.1852 51.4476 19.5619 54.2311 12.9042L42.5535 12.5223C42.2046 12.5113 41.9219 12.783 41.9219 13.1245V80.2928C41.9219 80.6343 42.2046 80.8987 42.5535 80.8804L74.5531 79.0957C66.9663 72.8896 64.7483 67.0692 64.3774 62.5414Z" fill="white"/>
</g>
<path style="mix-blend-mode:multiply" opacity="0.3" d="M60.8869 54.0289L76.8977 53.6837C77.3126 53.6763 77.6505 54.0179 77.6505 54.4475V61.9021C77.6505 62.3317 77.3126 62.6916 76.8977 62.7063L60.0239 63.2755C59.5869 63.2902 59.2344 62.945 59.2344 62.5007V52.7583L60.8869 54.0289Z" fill="url(#paint36_linear_277_9800)"/>
<path opacity="0.7" d="M62.082 60.3382L74.9201 59.9526V60.856L62.082 61.2526V60.3382Z" fill="white"/>
<path opacity="0.7" d="M62.082 58.5059L74.9201 58.1533V59.053L62.082 59.4202V58.5059Z" fill="white"/>
<path opacity="0.7" d="M62.082 56.6728L74.9201 56.3496V57.2493L62.082 57.5871V56.6728Z" fill="white"/>
<path d="M60.9405 95.4695C60.9405 95.4695 58.3186 96.6666 58.2782 96.8576C58.2341 97.0486 59.9637 96.7915 60.6724 96.8172C61.3775 96.8429 61.9577 96.6336 61.8953 96.3325C61.8292 96.035 61.5795 95.2822 61.5795 95.2822L60.9405 95.4695Z" fill="url(#paint37_linear_277_9800)"/>
<path d="M60.8359 94.5001L61.0012 95.6826C61.0012 95.6826 61.4161 95.8295 61.6952 95.6532L61.8091 94.3569L60.8359 94.5001Z" fill="url(#paint38_linear_277_9800)"/>
<path d="M73.1966 94.5L73.5014 94.9884C73.5896 95.1243 73.6153 95.2895 73.5749 95.4474C73.4684 95.855 73.2554 96.6482 73.1636 96.8576C73.0387 97.1403 71.3422 97.3092 71.3422 97.3092C71.3422 97.3092 71.188 97.0999 71.5405 96.8392C71.893 96.5821 72.1207 96.5417 72.2419 96.1598C72.3667 95.7816 72.4475 94.7056 72.4475 94.7056L73.1966 94.5Z" fill="url(#paint39_linear_277_9800)"/>
<path d="M71.9219 93.2592C72.0357 93.3473 72.5829 94.9998 72.5829 94.9998C72.5829 94.9998 72.7591 95.2275 73.097 94.8933C73.4312 94.5592 73.2475 94.7428 73.2475 94.7428L73.1814 93.1123L71.9219 93.2592Z" fill="url(#paint40_linear_277_9800)"/>
<path d="M59.3393 70.7669C59.2071 74.2922 59.2108 78.1186 59.4238 82.2094C59.6625 86.8181 60.1325 91.0741 60.7201 94.9336C60.9355 94.9385 61.1608 94.9373 61.3958 94.93C61.5549 94.9251 61.7091 94.9177 61.8585 94.9079C62.1596 94.1074 62.5085 93.0535 62.8243 91.7976C63.1548 90.4719 63.3531 89.2858 63.4963 88.1511C63.992 84.1594 63.3971 83.8105 63.8011 80.8544C64.1573 78.2324 64.6751 78.1296 65.27 74.406C65.9199 70.3666 65.4279 69.7643 65.1892 69.544C64.172 68.6149 61.7924 69.2576 59.3393 70.7669Z" fill="url(#paint41_linear_277_9800)"/>
<path style="mix-blend-mode:multiply" opacity="0.3" d="M65.1917 69.5437C64.2222 68.6587 62.0115 69.2022 59.6797 70.5646C62.3751 73.462 62.6725 75.3421 62.3531 76.565C61.9932 77.9494 60.8842 78.3497 60.8952 79.8589C60.9025 81.7171 62.5807 82.2018 62.5477 84.1664C62.5293 85.4664 61.7912 85.4554 61.6223 87.0601C61.4203 88.9587 62.3824 89.6086 62.0776 91.0151C61.9418 91.6173 61.5635 92.4105 60.4766 93.2258C60.5537 93.8023 60.6381 94.3715 60.7226 94.9333C60.9392 94.937 61.1633 94.937 61.3983 94.9297C61.5574 94.9248 61.7116 94.9174 61.861 94.9076C62.1621 94.1071 62.511 93.0532 62.8268 91.7973C63.1573 90.4716 63.3556 89.2855 63.4988 88.1508C63.9945 84.1591 63.3996 83.8102 63.8036 80.8541C64.1598 78.2322 64.6776 78.1293 65.2725 74.4057C65.9224 70.3663 65.4304 69.7641 65.1917 69.5437Z" fill="url(#paint42_linear_277_9800)"/>
<path d="M61.0039 70.7005C63.3247 74.0826 65.8328 78.2909 68.0766 83.3292C69.7731 87.1373 71.0033 90.7103 71.9103 93.8978C72.0315 93.9566 72.318 94.0667 72.6852 94.019C73.1846 93.9492 73.482 93.6297 73.5592 93.5416C73.919 91.2538 73.875 89.3186 73.7465 87.9195C73.6657 87.0271 73.5224 85.5362 72.9459 83.6964C72.3033 81.64 71.8626 81.5225 71.0253 79.3449C70.155 77.0865 70.3643 76.5209 69.5271 73.6897C69.1856 72.5292 68.6127 70.7996 67.6653 68.7285C65.4448 69.3871 63.2244 70.0444 61.0039 70.7005Z" fill="url(#paint43_linear_277_9800)"/>
<path d="M51.5706 65.9339C51.5926 66.7565 52.944 67.4799 54.0346 67.7003C56.5794 68.2217 59.5282 66.3709 60.931 64.3255C61.2028 63.9252 61.5112 63.4368 61.5847 63.4736C61.7499 63.5617 60.2186 66.0735 59.5576 68.9341C59.2161 70.3957 59.3079 71.0824 58.6726 72.0555C58.5294 72.2758 58.3494 72.5035 58.4119 72.7679C58.5698 73.4216 60.0644 73.5905 61.0999 73.708C62.1942 73.8328 63.2151 73.8181 64.225 73.8035C65.8407 73.7814 65.9693 73.697 66.3365 73.8769C67.4602 74.4314 67.3831 75.7497 68.2313 75.926C68.9401 76.0766 69.6598 75.2834 69.8875 75.03C71.0736 73.7227 71.0112 72.1473 71.2242 70.5609C71.7126 66.863 73.7176 62.8162 75.6823 60.253C76.2771 59.4782 76.6921 59.0669 76.7178 58.3472C76.7949 56.2246 73.4349 53.8854 70.6403 53.6174C69.8728 53.5439 68.4994 53.5659 67.2141 53.6871C66.7 53.7349 66.1529 53.8083 65.5617 53.9111C64.1368 54.1608 63.1417 54.3334 62.1281 54.7961C58.0447 56.6653 58.937 60.8222 54.5193 63.6976C52.999 64.6891 51.5485 65.071 51.5706 65.9339Z" fill="url(#paint44_linear_277_9800)"/>
<path d="M68.2976 51.4175C68.2976 51.4175 68.4739 52.3943 68.8741 53.092C69.2413 53.7236 70.7506 53.9476 71.0628 54.0578C71.3786 54.168 70.589 54.7151 69.7518 54.9134C68.9108 55.1117 66.4615 55.2402 65.9804 54.9758C65.4994 54.7114 66.2926 54.6307 66.8691 54.3295C67.4456 54.0247 67.6403 52.7946 67.4603 52.2694C67.2804 51.7443 68.2976 51.4175 68.2976 51.4175Z" fill="url(#paint45_linear_277_9800)"/>
<path d="M66.7059 51.1353C66.0963 50.6983 65.9274 49.5232 66.2652 49.2588C66.3644 49.1853 66.4562 49.2184 67.8296 49.7692C68.5089 50.0446 68.8468 50.1878 68.9569 50.489C69.023 50.6726 69.012 50.9223 68.9386 51.1169C68.8982 51.2197 68.8247 51.3446 68.6595 51.5833C68.5089 51.7963 68.5199 51.7889 68.4759 51.8514C68.3657 51.9982 68.1564 52.248 67.7745 52.5381C67.7524 52.4279 67.7194 52.2957 67.6606 52.1488C67.6386 52.09 67.5505 51.8697 67.4146 51.6861C67.1722 51.3666 66.9042 51.2748 66.7059 51.1353Z" fill="url(#paint46_linear_277_9800)"/>
<path d="M68.2621 52.2516C68.2621 52.2516 67.8655 52.8465 67.1273 52.7657C66.4663 52.6923 66.437 51.2051 66.874 50.9076C67.0172 50.8085 67.3036 50.7791 67.5313 50.8525C67.6635 50.8966 67.7075 50.9553 67.9279 51.0214C68.1299 51.0839 68.1886 51.0655 68.251 51.1206C68.3245 51.1867 68.3759 51.3519 68.2253 51.7779C68.3575 51.6567 68.5118 51.6127 68.6146 51.6677C68.6329 51.6788 68.677 51.7118 68.699 51.7596C68.7872 51.9321 68.6219 52.1415 68.2621 52.2516Z" fill="url(#paint47_linear_277_9800)"/>
<path style="mix-blend-mode:multiply" opacity="0.3" d="M55.1379 65.8057C56.985 65.3907 57.7194 65.4054 58.6338 64.6673C60.1504 63.4445 60.3781 61.5827 61.2631 61.6047C61.6781 61.6157 62.0196 62.0417 62.2583 62.4603C62.0379 62.8079 61.8164 63.1556 61.5936 63.5032C61.5936 63.4885 61.5899 63.4812 61.5826 63.4738C61.5091 63.4371 61.2007 63.9255 60.9289 64.3258C59.5261 66.3712 56.5774 68.222 54.0325 67.7005C53.3018 67.5537 52.4535 67.1791 51.9688 66.698C53.2246 66.2757 54.2969 65.9966 55.1379 65.8057Z" fill="url(#paint48_linear_277_9800)"/>
<path d="M52.1391 67.3921C52.1391 67.3921 51.0962 67.2893 50.4756 67.0249C49.855 66.7568 49.4548 67.1387 49.5135 67.4031C49.5686 67.6675 50.5895 68.0347 50.9971 68.0494C51.4047 68.0605 52.1391 67.3921 52.1391 67.3921Z" fill="url(#paint49_linear_277_9800)"/>
<path d="M74.5616 72.9004C75.6779 72.9996 78.1934 73.0473 79.9744 71.3985C82.9379 68.659 81.4653 63.4408 80.4371 61.1971C79.2547 58.6229 77.3708 57.1834 76.2288 56.3094C74.8076 55.2224 73.941 54.5614 72.9018 54.7083C70.2064 55.0939 68.3409 60.6169 69.8171 62.1959C70.3018 62.7137 70.7829 62.4199 72.1857 62.868C72.641 63.0148 76.0488 64.0981 76.6401 66.6063C77.055 68.3652 75.9974 70.418 74.1173 71.8024C74.2641 72.1672 74.4123 72.5332 74.5616 72.9004Z" fill="url(#paint50_linear_277_9800)"/>
<path style="mix-blend-mode:multiply" opacity="0.3" d="M62.026 71.9895C63.2929 71.189 63.4802 70.3811 64.8977 69.8339C66.7374 69.1215 67.6225 70.0249 68.5368 69.2941C69.6238 68.4275 68.6617 66.9145 69.4732 64.2889C69.6128 63.8409 70.6594 60.4588 73.0647 60.0255C74.1847 59.8235 75.6646 60.2531 76.2374 61.2042C76.6818 61.9497 76.2668 62.5042 76.8103 63.3231C77.3538 64.142 78.0038 63.9437 78.6941 64.6267C79.7921 65.7137 79.9611 68.0052 78.9696 69.3014C78.5069 69.9037 77.9046 70.1424 76.7736 70.5941C76.0832 70.8695 75.4406 71.0384 74.8897 71.1486C76.2742 69.8192 76.9902 68.1043 76.6377 66.606C76.2668 65.0417 74.8053 64.0318 73.6449 63.459C72.4844 65.6439 71.537 68.1741 71.2212 70.561C71.0082 72.1474 71.0707 73.7228 69.8845 75.0301C69.6569 75.2835 68.9371 76.0767 68.2284 75.9261C67.3801 75.7498 67.4572 74.4315 66.3335 73.877C65.9663 73.6971 65.8378 73.7815 64.222 73.8036C63.2121 73.8183 62.1913 73.8329 61.0969 73.7081C60.1752 73.6016 58.8936 73.4547 58.5117 72.9663C60.1752 72.9186 61.2879 72.4595 62.026 71.9895Z" fill="url(#paint51_linear_277_9800)"/>
<path d="M73.8262 73.7784L73.9547 73.3965C74.164 72.7869 73.8225 72.1332 73.1945 71.9423L48.5577 64.4399L47.8086 66.9811L72.3169 74.5312C72.9448 74.7258 73.6168 74.3879 73.8262 73.7784Z" fill="url(#paint52_linear_277_9800)"/>
<path fill-rule="evenodd" clip-rule="evenodd" d="M24.0796 57.5432C25.9634 50.1033 33.3446 45.6195 40.6412 47.72C48.0774 49.8609 52.3299 57.9141 50.0715 65.5082C47.8681 72.9224 40.3034 76.9214 33.2454 74.6336C26.3123 72.3862 22.2362 64.8178 24.0796 57.5432ZM47.9306 64.8509C49.796 58.4979 46.234 51.7668 40.028 49.9601C33.9138 48.1827 27.7004 51.9174 26.0993 58.1638C24.5276 64.2927 27.9611 70.6786 33.8146 72.5625C39.7599 74.472 46.0981 71.0789 47.9306 64.8509Z" fill="url(#paint53_linear_277_9800)"/>
<g style="mix-blend-mode:multiply" opacity="0.3">
<path d="M48.5577 64.4399L51.6975 65.3947C51.9141 66.3972 52.3327 66.9701 52.7551 67.319C54.3414 68.6373 56.4603 67.2014 59.4164 68.7438C60.9 69.5186 60.6172 70.0107 62.009 70.5505C64.3078 71.4428 65.3581 70.2053 67.3925 71.0169C69.4489 71.8394 69.6545 73.6168 70.8186 73.5544C71.318 73.525 71.9607 73.1614 72.6768 71.7843L73.1945 71.9423C73.8225 72.1332 74.164 72.7869 73.9547 73.3965L73.8262 73.7784C73.6168 74.3879 72.9448 74.7258 72.3169 74.5312L47.8086 66.9811L48.5577 64.4399Z" fill="#D8DEE8"/>
</g>
<path d="M33.2343 73.5797C39.3816 75.559 45.9438 72.0557 47.8424 65.6073C49.7813 59.0304 46.0907 52.0569 39.6607 50.1914C33.3335 48.3517 26.9071 52.2222 25.251 58.6889C23.6315 65.0271 27.1789 71.6298 33.2343 73.5797Z" fill="white"/>
<path fill-rule="evenodd" clip-rule="evenodd" d="M23.6018 58.1823C25.4856 50.7424 32.8667 46.2587 40.1634 48.3592C47.5996 50.5001 51.8557 58.5532 49.5973 66.1473C47.3903 73.5615 39.8256 77.5605 32.7676 75.2728C25.8345 73.0254 21.762 65.457 23.6018 58.1823ZM47.4527 65.49C49.3182 59.1334 45.7562 52.406 39.5502 50.5992C33.4359 48.8219 27.2226 52.5528 25.6215 58.8029C24.0498 64.9318 27.4833 71.3178 33.3405 73.198C39.2821 75.1075 45.6203 71.7181 47.4527 65.49Z" fill="url(#paint54_linear_277_9800)"/>
<path fill-rule="evenodd" clip-rule="evenodd" d="M24.3157 58.4027C26.1004 51.3814 33.0703 47.1657 39.9483 49.1524C46.9475 51.1758 50.9576 58.7589 48.8387 65.9123C46.7676 72.9079 39.6362 76.6939 32.9711 74.542C26.4162 72.4231 22.5678 65.2697 24.3157 58.4027ZM47.4543 65.49C49.3198 59.1334 45.7577 52.4059 39.5517 50.5992C33.4375 48.8219 27.2241 52.5528 25.623 58.8029C24.0513 64.9318 27.4848 71.3178 33.342 73.198C39.2836 75.1075 45.6219 71.7181 47.4543 65.49Z" fill="url(#paint55_linear_277_9800)"/>
<path d="M74.4668 72.6656L74.2171 72.045C74.2171 72.045 73.8095 72.0707 73.4753 71.832C73.2954 71.6998 72.9722 71.6631 72.8804 71.6888C72.785 71.7145 72.4324 71.6998 72.8364 71.8908C73.2366 72.0854 73.2366 72.2286 73.0677 72.3865C72.8988 72.5444 72.2598 72.8823 72.0285 72.9007C71.7971 72.9153 72.2158 73.2715 72.4471 73.3193C72.6785 73.3633 73.0604 73.4221 73.5304 73.143C73.703 73.0402 74.4668 72.6656 74.4668 72.6656Z" fill="url(#paint56_linear_277_9800)"/>
<path fill-rule="evenodd" clip-rule="evenodd" d="M55.3946 12.074C55.2452 12.2772 55.0824 12.4657 54.9061 12.6396C54.9208 12.6591 54.9343 12.6787 54.9465 12.6983C55.1852 13.0949 55.0604 13.6384 54.6638 13.9175C54.2709 14.1929 53.7567 14.0938 53.5181 13.7008C53.5058 13.6788 53.4948 13.6568 53.485 13.6347C53.2622 13.7375 53.0358 13.822 52.8057 13.8881C52.8081 13.9126 52.8093 13.9371 52.8093 13.9616C52.8203 14.4426 52.4531 14.8686 51.9904 14.909C51.5314 14.9494 51.1495 14.5932 51.1385 14.1121C51.1385 14.0876 51.1397 14.0632 51.1421 14.0387C50.9096 14.0142 50.6807 13.9701 50.4554 13.9065C50.4456 13.9285 50.4346 13.9518 50.4224 13.9762C50.2021 14.4132 49.6916 14.6005 49.2877 14.3949C48.8837 14.1892 48.7368 13.6678 48.9609 13.2308C48.9706 13.2088 48.9829 13.1867 48.9976 13.1647C48.8727 13.0692 48.7552 12.9664 48.645 12.8562C48.2374 13.0802 47.5067 12.8929 47.279 12.5147C47.0403 12.1181 47.1688 11.5746 47.5617 11.2992C47.5838 11.2845 47.6046 11.2711 47.6242 11.2588C47.5409 11.0336 47.4748 10.801 47.4259 10.5611C47.4038 10.566 47.3806 10.5697 47.3561 10.5721C46.8971 10.6125 46.5152 10.2563 46.5041 9.77524C46.4931 9.29051 46.8604 8.86821 47.3231 8.82781C47.3451 8.82536 47.3683 8.82414 47.3928 8.82414C47.4295 8.57933 47.4859 8.33574 47.5617 8.09337C47.5397 8.08603 47.5177 8.07746 47.4956 8.06767C47.0917 7.86202 46.9448 7.34057 47.1688 6.90358C47.3892 6.46291 47.8996 6.27563 48.3035 6.48127C48.3231 6.49107 48.3427 6.50331 48.3623 6.518C48.5141 6.31235 48.6769 6.12262 48.8507 5.9488C48.8384 5.92922 48.8262 5.90963 48.814 5.89005C48.5753 5.49345 48.7001 4.94997 49.0931 4.67088C49.4896 4.39546 50.0038 4.49461 50.2425 4.89121C50.2547 4.9108 50.2657 4.9316 50.2755 4.95364C50.4958 4.85082 50.7223 4.76635 50.9549 4.70026C50.9524 4.67577 50.95 4.65129 50.9475 4.62681C50.9402 4.14575 51.2817 3.70876 52.2879 3.72712C52.7506 3.73447 52.611 3.99519 52.6184 4.47625C52.6184 4.50318 52.6184 4.52766 52.6184 4.5497C52.8485 4.57418 53.0774 4.61824 53.3051 4.68189C53.3149 4.65986 53.3247 4.6366 53.3344 4.61212C53.5584 4.17513 53.9624 3.7822 54.9025 4.24123C55.3101 4.43953 55.02 4.92059 54.7997 5.35758C54.7874 5.37961 54.7752 5.40165 54.7629 5.42368C54.9465 5.56812 55.1167 5.72725 55.2734 5.90107C55.293 5.88393 55.3125 5.86802 55.3321 5.85333C55.7251 5.57791 56.2392 5.67706 56.4779 6.07366C56.7165 6.47026 56.5917 7.01374 56.1951 7.28916C56.1755 7.30385 56.1547 7.31731 56.1327 7.32955C56.2159 7.55723 56.282 7.7898 56.331 8.02727C56.3554 8.02238 56.3787 8.0187 56.4007 8.01626C56.8634 7.97586 57.2453 8.33207 57.2527 8.8168C57.2637 9.29785 56.8965 9.72016 56.4375 9.76055C56.413 9.763 56.3897 9.76422 56.3677 9.76422C56.3285 10.009 56.2722 10.2526 56.1988 10.495C56.2183 10.5023 56.2392 10.5109 56.2612 10.5207C56.6651 10.7263 56.812 11.2478 56.5917 11.6848C56.3677 12.1255 55.8609 12.3127 55.457 12.1071C55.4349 12.0973 55.4141 12.0863 55.3946 12.074ZM48.7038 12.8195C48.7222 12.8085 48.5532 12.7387 48.5018 12.7057C48.5483 12.7571 48.5961 12.8073 48.645 12.8562C48.6671 12.8464 48.6867 12.8342 48.7038 12.8195ZM48.5018 12.7057C48.4969 12.7008 48.492 12.6946 48.4871 12.6873C48.4835 12.691 48.4871 12.6983 48.5018 12.7057ZM54.5353 10.6419C55.3431 9.05549 54.807 7.1643 53.3381 6.41885C51.8729 5.67339 50.0295 6.35642 49.2216 7.94648C48.4174 9.53288 48.9498 11.4277 50.4187 12.1695C51.8876 12.915 53.731 12.2319 54.5353 10.6419Z" fill="url(#paint57_linear_277_9800)"/>
<path d="M56.4378 9.76067C56.8969 9.72028 57.2641 9.29798 57.2531 8.81692C57.2457 8.33219 56.8638 7.97598 56.4011 8.01638C56.3791 8.01883 56.3558 8.0225 56.3314 8.02739C56.2824 7.78992 56.2163 7.55735 56.133 7.32967C56.1551 7.31743 56.1759 7.30397 56.1955 7.28928C56.5921 7.01386 57.0805 6.34553 56.8014 5.9783C56.2726 5.27324 55.7254 5.57803 55.3325 5.85345C55.3129 5.86814 55.2933 5.88405 55.2738 5.90119C55.1171 5.72737 54.9469 5.56824 54.7633 5.4238C54.7756 5.40177 54.7878 5.37973 54.8 5.3577C54.9212 5.11901 54.9322 4.85461 54.8515 4.63428C54.4695 5.30507 54.0938 5.9783 53.7241 6.65399C54.8955 7.51328 55.2664 9.2025 54.5356 10.642C53.915 11.8648 52.6849 12.5515 51.4804 12.4634C51.4253 12.603 51.3739 12.7425 51.3151 12.882C51.1609 13.2566 50.9846 13.6238 50.8047 13.9874C50.9173 14.0094 51.0299 14.0265 51.1425 14.0388C51.1401 14.0633 51.1389 14.0878 51.1389 14.1122C51.1499 14.5933 51.4436 15.0009 52.2772 14.9568C52.7399 14.9311 52.8207 14.4427 52.8097 13.9617C52.8097 13.9372 52.8085 13.9127 52.806 13.8882C53.0362 13.8221 53.2626 13.7377 53.4854 13.6348C53.4952 13.6569 53.5062 13.6789 53.5184 13.7009C53.7571 14.0939 54.5871 14.2628 54.98 13.9874C55.3729 13.712 55.1856 13.095 54.9469 12.6984C54.9347 12.6789 54.9212 12.6593 54.9065 12.6397C55.0828 12.4659 55.2456 12.2774 55.3949 12.0742C55.4145 12.0864 55.4353 12.0974 55.4574 12.1072C55.8613 12.3129 56.3681 12.1256 56.5921 11.6849C56.8124 11.2479 56.6655 10.7265 56.2616 10.5208C56.2395 10.511 56.2187 10.5025 56.1992 10.4951C56.2726 10.2527 56.3289 10.0092 56.3681 9.76435C56.3901 9.76435 56.4134 9.76312 56.4378 9.76067Z" fill="url(#paint58_linear_277_9800)"/>
<path fill-rule="evenodd" clip-rule="evenodd" d="M55.8278 12.1216C55.676 12.3248 55.5132 12.5146 55.3394 12.6908C55.3516 12.708 55.3639 12.7263 55.3761 12.7459C55.6148 13.1425 55.4899 13.6897 55.097 13.9651C54.7004 14.2405 54.1863 14.145 53.9476 13.7484C53.9354 13.7264 53.9244 13.7056 53.9146 13.686C53.6942 13.7864 53.4678 13.8696 53.2352 13.9357C53.2377 13.9602 53.2389 13.9859 53.2389 14.0128C53.2499 14.4939 52.8827 14.9162 52.4236 14.9566C51.9609 14.997 51.579 14.6408 51.5717 14.1597C51.5717 14.1352 51.5717 14.1108 51.5717 14.0863C51.3416 14.0618 51.1127 14.0177 50.885 13.9541C50.8752 13.9786 50.8654 14.0018 50.8556 14.0238C50.6316 14.4608 50.1248 14.6518 49.7209 14.4461C49.317 14.2405 49.1701 13.7191 49.3904 13.2821C49.4026 13.26 49.4149 13.238 49.4271 13.216C49.2435 13.0691 49.0734 12.9099 48.9167 12.7386C48.8971 12.7533 48.8775 12.768 48.8579 12.7826C48.465 13.0581 47.9509 12.9626 47.7122 12.566C47.4735 12.1694 47.5984 11.6222 47.9913 11.3468C48.0133 11.3321 48.0354 11.3187 48.0574 11.3064C47.9742 11.0812 47.9081 10.8486 47.8591 10.6087C47.8346 10.6136 47.8101 10.6173 47.7857 10.6197C47.3266 10.6601 46.9447 10.3039 46.9337 9.82285C46.9264 9.34179 47.2899 8.91581 47.7526 8.87542C47.7771 8.87297 47.8003 8.87297 47.8224 8.87542C47.8615 8.6306 47.9179 8.38702 47.9913 8.14465C47.9693 8.13486 47.9485 8.12506 47.9289 8.11527C47.5249 7.90963 47.378 7.38818 47.5984 6.95118C47.8224 6.51419 48.3291 6.32691 48.7331 6.53255C48.7527 6.54234 48.7723 6.55336 48.7918 6.5656C48.9436 6.36241 49.1076 6.17268 49.2839 5.99641C49.2692 5.97927 49.2558 5.96091 49.2435 5.94133C49.0048 5.54473 49.1297 4.99757 49.5263 4.72216C49.9192 4.44674 50.4333 4.54222 50.672 4.93882C50.6842 4.96085 50.6953 4.98166 50.7051 5.00124C50.9278 4.90087 51.1543 4.81763 51.3844 4.75153C51.382 4.72705 51.3807 4.70135 51.3807 4.67442C51.3697 4.19336 51.7369 3.77106 52.196 3.73066C52.6587 3.69027 53.0406 4.04647 53.0516 4.52753C53.0516 4.55201 53.0504 4.57649 53.0479 4.60097C53.278 4.62546 53.5069 4.66952 53.7346 4.73317C53.7444 4.70869 53.7554 4.68543 53.7677 4.6634C53.988 4.22641 54.4948 4.03545 54.8987 4.2411C55.3026 4.44674 55.4532 4.96819 55.2292 5.40519C55.217 5.42722 55.2047 5.44925 55.1925 5.47128C55.3785 5.61817 55.5487 5.7773 55.7029 5.94867C55.7225 5.93398 55.7421 5.9193 55.7617 5.90461C56.1583 5.62919 56.6687 5.72467 56.9074 6.12126C57.1461 6.51786 57.0212 7.06502 56.6283 7.34044C56.6063 7.35513 56.5855 7.36859 56.5659 7.38083C56.6491 7.60606 56.714 7.83863 56.7605 8.07855C56.785 8.07365 56.8095 8.06998 56.834 8.06753C57.293 8.02714 57.6749 8.38334 57.6859 8.8644C57.6933 9.34546 57.3297 9.77143 56.867 9.81183C56.845 9.81183 56.8217 9.81183 56.7972 9.81183C56.7605 10.0566 56.7042 10.3002 56.6283 10.5426C56.6504 10.5524 56.6712 10.5622 56.6907 10.572C57.0947 10.7776 57.2452 11.2991 57.0212 11.7361C56.8009 12.1731 56.2905 12.3603 55.8865 12.1547C55.867 12.1449 55.8474 12.1339 55.8278 12.1216ZM54.9685 10.6932C55.7727 9.10309 55.2366 7.21191 53.7713 6.46645C52.3025 5.721 50.459 6.4077 49.6548 7.99409C48.8469 9.58415 49.3831 11.4753 50.8483 12.2208C52.3172 12.9663 54.1606 12.2795 54.9685 10.6932Z" fill="url(#paint59_linear_277_9800)"/>
</g>
<defs>
<linearGradient id="paint0_linear_277_9800" x1="106761" y1="44062.9" x2="68258.8" y2="121493" gradientUnits="userSpaceOnUse">
<stop stop-color="#E38DDD"/>
<stop offset="1" stop-color="#9571F6"/>
</linearGradient>
<linearGradient id="paint1_linear_277_9800" x1="132345" y1="55805.2" x2="94300.1" y2="149902" gradientUnits="userSpaceOnUse">
<stop stop-color="#AA80F9"/>
<stop offset="1" stop-color="#6165D7"/>
</linearGradient>
<linearGradient id="paint2_linear_277_9800" x1="125809" y1="17279.4" x2="170258" y2="64619.1" gradientUnits="userSpaceOnUse">
<stop stop-color="#FF9085"/>
<stop offset="1" stop-color="#FB6FBB"/>
</linearGradient>
<linearGradient id="paint3_linear_277_9800" x1="143430" y1="106294" x2="90019.6" y2="155157" gradientUnits="userSpaceOnUse">
<stop stop-color="white"/>
<stop offset="1" stop-color="#EBEFF2"/>
</linearGradient>
<linearGradient id="paint4_linear_277_9800" x1="35836.2" y1="5184.8" x2="50662.1" y2="5184.8" gradientUnits="userSpaceOnUse">
<stop stop-color="white"/>
<stop offset="1" stop-color="#EBEFF2"/>
</linearGradient>
<linearGradient id="paint5_linear_277_9800" x1="35836.2" y1="5611.17" x2="50662.1" y2="5611.17" gradientUnits="userSpaceOnUse">
<stop stop-color="white"/>
<stop offset="1" stop-color="#EBEFF2"/>
</linearGradient>
<linearGradient id="paint6_linear_277_9800" x1="35836.2" y1="6053.5" x2="50662.1" y2="6053.5" gradientUnits="userSpaceOnUse">
<stop stop-color="white"/>
<stop offset="1" stop-color="#EBEFF2"/>
</linearGradient>
<linearGradient id="paint7_linear_277_9800" x1="18040.9" y1="843.603" x2="21791.8" y2="843.603" gradientUnits="userSpaceOnUse">
<stop stop-color="white"/>
<stop offset="1" stop-color="#EBEFF2"/>
</linearGradient>
<linearGradient id="paint8_linear_277_9800" x1="18040.9" y1="879.449" x2="21791.8" y2="879.449" gradientUnits="userSpaceOnUse">
<stop stop-color="white"/>
<stop offset="1" stop-color="#EBEFF2"/>
</linearGradient>
<linearGradient id="paint9_linear_277_9800" x1="18040.9" y1="915.67" x2="21791.8" y2="915.67" gradientUnits="userSpaceOnUse">
<stop stop-color="white"/>
<stop offset="1" stop-color="#EBEFF2"/>
</linearGradient>
<linearGradient id="paint10_linear_277_9800" x1="6887.33" y1="5102.59" x2="6897.54" y2="4949.82" gradientUnits="userSpaceOnUse">
<stop stop-color="#26264F"/>
<stop offset="1" stop-color="#444B8C"/>
</linearGradient>
<linearGradient id="paint11_linear_277_9800" x1="8928.97" y1="5559.21" x2="9055.71" y2="5048.61" gradientUnits="userSpaceOnUse">
<stop stop-color="#26264F"/>
<stop offset="1" stop-color="#444B8C"/>
</linearGradient>
<linearGradient id="paint12_linear_277_9800" x1="8720.4" y1="3860.61" x2="10028" y2="3860.61" gradientUnits="userSpaceOnUse">
<stop stop-color="#26264F"/>
<stop offset="1" stop-color="#444B8C"/>
</linearGradient>
<linearGradient id="paint13_linear_277_9800" x1="10042.2" y1="4815.47" x2="10131" y2="4326.29" gradientUnits="userSpaceOnUse">
<stop stop-color="#26264F"/>
<stop offset="1" stop-color="#444B8C"/>
</linearGradient>
<linearGradient id="paint14_linear_277_9800" x1="9426.62" y1="3121.7" x2="10975.9" y2="3121.7" gradientUnits="userSpaceOnUse">
<stop stop-color="#26264F"/>
<stop offset="1" stop-color="#444B8C"/>
</linearGradient>
<linearGradient id="paint15_linear_277_9800" x1="9687.11" y1="5960.53" x2="11331.3" y2="5960.53" gradientUnits="userSpaceOnUse">
<stop stop-color="#26264F"/>
<stop offset="1" stop-color="#444B8C"/>
</linearGradient>
<linearGradient id="paint16_linear_277_9800" x1="10110.2" y1="3008.4" x2="10123.3" y2="2750.8" gradientUnits="userSpaceOnUse">
<stop stop-color="#26264F"/>
<stop offset="1" stop-color="#444B8C"/>
</linearGradient>
<linearGradient id="paint17_linear_277_9800" x1="-393.895" y1="18599.3" x2="1352.69" y2="17855.2" gradientUnits="userSpaceOnUse">
<stop stop-color="#FFC444"/>
<stop offset="1" stop-color="#F36F56"/>
</linearGradient>
<linearGradient id="paint18_linear_277_9800" x1="-184.87" y1="18735.2" x2="1417.45" y2="18052.9" gradientUnits="userSpaceOnUse">
<stop stop-color="#FFC444"/>
<stop offset="1" stop-color="#F36F56"/>
</linearGradient>
<linearGradient id="paint19_linear_277_9800" x1="5653.52" y1="2964.22" x2="5725.89" y2="2328.71" gradientUnits="userSpaceOnUse">
<stop stop-color="#FFC444"/>
<stop offset="1" stop-color="#F36F56"/>
</linearGradient>
<linearGradient id="paint20_linear_277_9800" x1="36279.7" y1="25979.8" x2="33009.8" y2="45778.1" gradientUnits="userSpaceOnUse">
<stop stop-color="#FCB148"/>
<stop offset="0.3" stop-color="#FFC444"/>
<stop offset="0.9" stop-color="#F8924F"/>
<stop offset="1" stop-color="#F8924F"/>
</linearGradient>
<linearGradient id="paint21_linear_277_9800" x1="21845.2" y1="17858.2" x2="32981.9" y2="17858.2" gradientUnits="userSpaceOnUse">
<stop stop-color="#FFC444"/>
<stop offset="1" stop-color="#F36F56"/>
</linearGradient>
<linearGradient id="paint22_linear_277_9800" x1="86703.8" y1="127422" x2="63042.3" y2="153371" gradientUnits="userSpaceOnUse">
<stop stop-color="#E38DDD"/>
<stop offset="1" stop-color="#9571F6"/>
</linearGradient>
<linearGradient id="paint23_linear_277_9800" x1="82892.4" y1="127879" x2="50745" y2="157286" gradientUnits="userSpaceOnUse">
<stop stop-color="white"/>
<stop offset="1" stop-color="#EBEFF2"/>
</linearGradient>
<linearGradient id="paint24_linear_277_9800" x1="9786.67" y1="13935.7" x2="10157.9" y2="17608.9" gradientUnits="userSpaceOnUse">
<stop stop-color="#FFC444"/>
<stop offset="1" stop-color="#F36F56"/>
</linearGradient>
<linearGradient id="paint25_linear_277_9800" x1="18062.1" y1="18611.6" x2="20361.9" y2="25822.5" gradientUnits="userSpaceOnUse">
<stop stop-color="#E38DDD"/>
<stop offset="1" stop-color="#9571F6"/>
</linearGradient>
<linearGradient id="paint26_linear_277_9800" x1="8067.78" y1="20311.9" x2="11228" y2="22984.1" gradientUnits="userSpaceOnUse">
<stop stop-color="#AA80F9"/>
<stop offset="1" stop-color="#6165D7"/>
</linearGradient>
<linearGradient id="paint27_linear_277_9800" x1="21767.9" y1="22490.4" x2="17320.4" y2="28238.2" gradientUnits="userSpaceOnUse">
<stop stop-color="#FF9085"/>
<stop offset="1" stop-color="#FB6FBB"/>
</linearGradient>
<linearGradient id="paint28_linear_277_9800" x1="14419.4" y1="11955.3" x2="13732.4" y2="16947.5" gradientUnits="userSpaceOnUse">
<stop stop-color="#FF9085"/>
<stop offset="1" stop-color="#FB6FBB"/>
</linearGradient>
<linearGradient id="paint29_linear_277_9800" x1="15442.4" y1="22946.6" x2="17284" y2="18448.9" gradientUnits="userSpaceOnUse">
<stop stop-color="#FF9085"/>
<stop offset="1" stop-color="#FB6FBB"/>
</linearGradient>
<linearGradient id="paint30_linear_277_9800" x1="179675" y1="131052" x2="136939" y2="177919" gradientUnits="userSpaceOnUse">
<stop stop-color="#E38DDD"/>
<stop offset="1" stop-color="#9571F6"/>
</linearGradient>
<linearGradient id="paint31_linear_277_9800" x1="171792" y1="134400" x2="113735" y2="187518" gradientUnits="userSpaceOnUse">
<stop stop-color="white"/>
<stop offset="1" stop-color="#EBEFF2"/>
</linearGradient>
<linearGradient id="paint32_linear_277_9800" x1="23639.4" y1="11814.5" x2="24310.6" y2="18451.2" gradientUnits="userSpaceOnUse">
<stop stop-color="#FFC444"/>
<stop offset="1" stop-color="#F36F56"/>
</linearGradient>
<linearGradient id="paint33_linear_277_9800" x1="42405.3" y1="18178.9" x2="46557.3" y2="31202.1" gradientUnits="userSpaceOnUse">
<stop stop-color="#E38DDD"/>
<stop offset="1" stop-color="#9571F6"/>
</linearGradient>
<linearGradient id="paint34_linear_277_9800" x1="19608.3" y1="18008.1" x2="25314.6" y2="22836.7" gradientUnits="userSpaceOnUse">
<stop stop-color="#AA80F9"/>
<stop offset="1" stop-color="#6165D7"/>
</linearGradient>
<linearGradient id="paint35_linear_277_9800" x1="48002.7" y1="17712.1" x2="39969.2" y2="28093.8" gradientUnits="userSpaceOnUse">
<stop stop-color="#FF9085"/>
<stop offset="1" stop-color="#FB6FBB"/>
</linearGradient>
<linearGradient id="paint36_linear_277_9800" x1="38543.4" y1="26523.5" x2="41870.1" y2="18400.4" gradientUnits="userSpaceOnUse">
<stop stop-color="#FF9085"/>
<stop offset="1" stop-color="#FB6FBB"/>
</linearGradient>
<linearGradient id="paint37_linear_277_9800" x1="8441.23" y1="5049" x2="8459.14" y2="5535.41" gradientUnits="userSpaceOnUse">
<stop stop-color="#311944"/>
<stop offset="1" stop-color="#A03976"/>
</linearGradient>
<linearGradient id="paint38_linear_277_9800" x1="2317.14" y1="4487.85" x2="2309.48" y2="4159.05" gradientUnits="userSpaceOnUse">
<stop stop-color="#FFC444"/>
<stop offset="1" stop-color="#F36F56"/>
</linearGradient>
<linearGradient id="paint39_linear_277_9800" x1="6200.8" y1="8521.92" x2="6272.06" y2="9237.02" gradientUnits="userSpaceOnUse">
<stop stop-color="#311944"/>
<stop offset="1" stop-color="#A03976"/>
</linearGradient>
<linearGradient id="paint40_linear_277_9800" x1="3676.76" y1="6320.73" x2="3666.12" y2="5854.58" gradientUnits="userSpaceOnUse">
<stop stop-color="#FFC444"/>
<stop offset="1" stop-color="#F36F56"/>
</linearGradient>
<linearGradient id="paint41_linear_277_9800" x1="14589.4" y1="63135.7" x2="15695.6" y2="63135.1" gradientUnits="userSpaceOnUse">
<stop stop-color="#444B8C"/>
<stop offset="1" stop-color="#3E4177"/>
</linearGradient>
<linearGradient id="paint42_linear_277_9800" x1="13608.9" y1="63124.8" x2="14643" y2="63124.3" gradientUnits="userSpaceOnUse">
<stop stop-color="#444B8C"/>
<stop offset="1" stop-color="#3E4177"/>
</linearGradient>
<linearGradient id="paint43_linear_277_9800" x1="30077" y1="61641.5" x2="34586.4" y2="61636.3" gradientUnits="userSpaceOnUse">
<stop stop-color="#444B8C"/>
<stop offset="1" stop-color="#3E4177"/>
</linearGradient>
<linearGradient id="paint44_linear_277_9800" x1="75560.8" y1="47745.7" x2="64305.5" y2="68519.8" gradientUnits="userSpaceOnUse">
<stop stop-color="#AA80F9"/>
<stop offset="1" stop-color="#6165D7"/>
</linearGradient>
<linearGradient id="paint45_linear_277_9800" x1="13769" y1="7395.68" x2="13661" y2="8761.53" gradientUnits="userSpaceOnUse">
<stop stop-color="#FFC444"/>
<stop offset="1" stop-color="#F36F56"/>
</linearGradient>
<linearGradient id="paint46_linear_277_9800" x1="7357.49" y1="7002.15" x2="7139.41" y2="6438.82" gradientUnits="userSpaceOnUse">
<stop stop-color="#444B8C"/>
<stop offset="1" stop-color="#3E4177"/>
</linearGradient>
<linearGradient id="paint47_linear_277_9800" x1="5508.35" y1="3858.58" x2="5567.28" y2="4391.44" gradientUnits="userSpaceOnUse">
<stop stop-color="#FFC444"/>
<stop offset="1" stop-color="#F36F56"/>
</linearGradient>
<linearGradient id="paint48_linear_277_9800" x1="21599.2" y1="13920.7" x2="24482.4" y2="13920.7" gradientUnits="userSpaceOnUse">
<stop stop-color="#AA80F9"/>
<stop offset="1" stop-color="#6165D7"/>
</linearGradient>
<linearGradient id="paint49_linear_277_9800" x1="5425.85" y1="2710.36" x2="5495.62" y2="2810.28" gradientUnits="userSpaceOnUse">
<stop stop-color="#FFC444"/>
<stop offset="1" stop-color="#F36F56"/>
</linearGradient>
<linearGradient id="paint50_linear_277_9800" x1="40145.4" y1="40442.9" x2="27961.9" y2="54061.3" gradientUnits="userSpaceOnUse">
<stop stop-color="#AA80F9"/>
<stop offset="1" stop-color="#6165D7"/>
</linearGradient>
<linearGradient id="paint51_linear_277_9800" x1="48032.5" y1="35132.9" x2="60170.1" y2="35132.9" gradientUnits="userSpaceOnUse">
<stop stop-color="#AA80F9"/>
<stop offset="1" stop-color="#6165D7"/>
</linearGradient>
<linearGradient id="paint52_linear_277_9800" x1="51960" y1="23582.5" x2="70664.4" y2="23582.5" gradientUnits="userSpaceOnUse">
<stop stop-color="#444B8C"/>
<stop offset="1" stop-color="#26264F"/>
</linearGradient>
<linearGradient id="paint53_linear_277_9800" x1="35787.9" y1="51946.3" x2="55698.1" y2="51946.3" gradientUnits="userSpaceOnUse">
<stop stop-color="#444B8C"/>
<stop offset="1" stop-color="#26264F"/>
</linearGradient>
<linearGradient id="paint54_linear_277_9800" x1="36785.4" y1="45613.3" x2="54579.7" y2="51429.1" gradientUnits="userSpaceOnUse">
<stop stop-color="#444B8C"/>
<stop offset="1" stop-color="#26264F"/>
</linearGradient>
<linearGradient id="paint55_linear_277_9800" x1="51382.6" y1="75372" x2="28867.9" y2="68217.1" gradientUnits="userSpaceOnUse">
<stop stop-color="#444B8C"/>
<stop offset="1" stop-color="#26264F"/>
</linearGradient>
<linearGradient id="paint56_linear_277_9800" x1="6955.38" y1="4247.86" x2="6830.47" y2="4460.91" gradientUnits="userSpaceOnUse">
<stop stop-color="#FFC444"/>
<stop offset="1" stop-color="#F36F56"/>
</linearGradient>
<linearGradient id="paint57_linear_277_9800" x1="19049.7" y1="4654.67" x2="29361.1" y2="9756.65" gradientUnits="userSpaceOnUse">
<stop stop-color="#444B8C"/>
<stop offset="1" stop-color="#3E4177"/>
</linearGradient>
<linearGradient id="paint58_linear_277_9800" x1="9432.26" y1="2223.66" x2="20265.3" y2="5707.69" gradientUnits="userSpaceOnUse">
<stop stop-color="#444B8C"/>
<stop offset="1" stop-color="#3E4177"/>
</linearGradient>
<linearGradient id="paint59_linear_277_9800" x1="26445.2" y1="7862.88" x2="16547.6" y2="21262" gradientUnits="userSpaceOnUse">
<stop stop-color="#AA80F9"/>
<stop offset="1" stop-color="#6165D7"/>
</linearGradient>
</defs>
</svg>
