<svg xmlns="http://www.w3.org/2000/svg" xmlns:bx="https://boxy-svg.com" viewBox="0 0 500 500"><defs><linearGradient id="b" x1="4928.81" x2="5022.48" y1="-991.19" y2="-991.19" gradientTransform="matrix(0 -1.9572 1.96219 0 1612.746 9987.747)" gradientUnits="userSpaceOnUse"><stop offset="0" stop-color="#6abe18"/><stop offset="1" stop-color="#0b6a49"/></linearGradient><linearGradient id="d" x1="5102.48" x2="5202.81" y1="-991.19" y2="-991.19" gradientTransform="matrix(0 -1.9572 1.96219 0 1612.746 9987.747)" href="#a"/><linearGradient id="a" x1="504.82" x2="1813.05" y1="749.08" y2="774.61" gradientTransform="translate(-809.78 -624.5)" gradientUnits="userSpaceOnUse"><stop offset="0" stop-color="#fc00f9"/><stop offset="1" stop-color="#a000c8"/></linearGradient><linearGradient id="e" x1="-191.38" x2="-54" y1="1418.22" y2="1418.22" gradientTransform="matrix(1.96219 0 0 1.9572 -91.807 -2881.988)" href="#a"/><linearGradient id="f" x1="-191.38" x2="-54" y1="1599.78" y2="1599.78" gradientTransform="matrix(1.96219 0 0 1.9572 -91.807 -2881.988)" href="#b"/><linearGradient id="g" x1="7639.42" x2="7776.81" y1="1607.88" y2="1607.88" gradientTransform="matrix(-1.96219 0 0 1.9572 14792.494 -2881.988)" href="#b"/><linearGradient id="h" x1="7639.44" x2="7776.82" y1="1416.36" y2="1416.36" gradientTransform="matrix(-1.96219 0 0 1.9572 14792.494 -2881.988)" href="#a"/><linearGradient id="c" x1="4997.02" x2="5134.4" y1="-991.29" y2="-991.29" gradientTransform="matrix(0 -1.9572 1.96219 0 1612.746 9987.747)" gradientUnits="userSpaceOnUse"><stop offset="0" stop-color="#fcff43"/><stop offset=".22" stop-color="#fc4243"/><stop offset=".51" stop-color="#eb0090"/><stop offset=".76" stop-color="#a000c8"/><stop offset="1" stop-color="#0071e9"/></linearGradient><linearGradient id="i" x1="2451.03" x2="2588.41" y1="-991.29" y2="-991.29" gradientTransform="matrix(0 1.9572 1.96219 0 1612.747 -4858.767)" href="#c"/></defs><g transform="matrix(.76134 0 0 .75084 503.289 195.18)"><bx:title>logo vector file</bx:title><path d="M-207.41 158.28c-9.81 18.495-34.69 22.136-52.86 15.246-.94-.352-1.86-.743-2.78-1.154 26.74 53.061-14.13 115.109-73.57 111.684-49.27-2.84-83.31-50.34-70.05-97.749-12.99 4.56-27.7 5.245-41.07 5.167-5.88 0-11.9-.313-17.87-.666-.65 5.365-.96 10.765-.96 16.167.04 103.205 112.08 167.66 201.67 116.019 57.63-33.223 82.2-103.518 57.77-165.282-.1.176-.18.372-.28.568Z" class="cls-2" style="fill:url(#b);stroke-width:1"/><path d="M-466.57-61.172a133.72 133.72 0 0 0 7.34 43.567c20.89-6.302 42.81-5.441 63.71.529-34.03-48.735-2.4-115.924 56.9-120.934 45.13-3.84 83.89 31.68 83.89 76.838a78.141 78.141 0 0 1-22.65 54.557c-2.02 2.161-3.27 4.903-3.63 7.829 21.76-20.659 49.82-33.282 80.33-33.928C-179.21-133.69-275.38-219.96-373.76-188c-55.14 17.89-92.54 69.01-92.81 126.828Z" class="cls-3" style="fill:url(#d);stroke-width:1"/><path d="M-458.92-109.1a133.823 133.823 0 0 0-.67 91.495c20.82-6.302 42.66-5.539 63.5.333-32.12-37.657-43.17-82.668-25.51-119.738 21.29-44.71 59.2-57.47 90.26-58.27-54.82.06-108.62 33.49-127.58 86.18Z" class="cls-4" style="fill:url(#e);stroke-width:1"/><path d="M-207.41 158.28c-9.34 17.615-32.59 21.783-50.48 16.068 25.37 33.136 34.53 67.994 21.58 103.85-15.48 42.706-52.66 60.438-88.3 62.63 51.96-2.896 99.94-35.425 118.01-85.725 12.54-34.858 11.22-68.503-.35-97.626l-.46.803Z" class="cls-5" style="fill:url(#f);stroke-width:1"/><path d="M-447.74 191.474c-6.18 0-12.32-.333-18.48-.705a141.538 141.538 0 0 0 8.03 64.314c18.07 50.3 66.04 82.829 118 85.726-35.63-2.173-72.81-19.905-88.3-62.631-11.06-30.571-6.04-60.399 11.41-89.053a152.418 152.418 0 0 1-30.66 2.349Z" class="cls-6" style="fill:url(#g);stroke-width:1"/><path d="M-243.18-136.96c15.39 32.32 8.91 70.699-14.3 104.95 17.97-3.64 37.28 1.194 54.47 7.496a134.25 134.25 0 0 0-2.9-84.586c-18.96-52.75-72.76-86.12-127.55-86.12 31.08.8 68.99 13.56 90.28 58.26Z" class="cls-7" style="fill:url(#h);stroke-width:1"/><path d="M-197.95-61.368c-35.65-.039-69.87 14.112-95.05 39.301-8.36 8.338 30.81 49.781 40.37 40.23 42.09-42.011 114-22.799 129.4 34.568 15.42 57.366-37.2 109.87-94.71 94.506a77.257 77.257 0 0 1-34.69-19.979c-14-13.955-64.76 15.932-40.43 40.181 73.12 73.034 198.068 39.74 224.93-59.931 22.938-85.176-41.4-168.876-129.82-168.876Z" class="cls-8" style="fill:#e72086;stroke-width:1"/><path d="M-371.72-22.067c-73.13-72.984-198.04-39.653-224.85 60.014-26.82 99.667 64.6 190.904 164.53 164.227a134.49 134.49 0 0 0 60.32-34.735c8.56-8.533-30.94-49.634-40.44-40.181-42.09 41.982-113.96 22.764-129.37-34.592-13.16-48.983 23.84-97.081 74.68-97.089 20.49.102 40.13 8.185 54.71 22.528 15.34 14.855 64.75-15.932 40.42-40.172Z" class="cls-9" style="fill:#fc414d;stroke-width:1"/><path d="M-126.52-22.87c-44-15.833-86.48 1.39-126.11 40.798-32.81 32.627-77.69 108.645-118.19 148.924-1.29 1.312-2.61 2.505-3.92 3.641-35.46 32.626-86.75 47.716-140.06 28.653-52.88-18.906-86.34-72.573-86.34-127.218.81 31.021 13.6 68.835 58.42 90.031 40.71 19.298 91.04 4.169 130.68-35.229 35.94-35.641 79.13-109.193 119.06-148.915 35.54-35.249 88.01-50.065 143.24-30.297 52.864 18.906 86.182 70.587 86.182 125.271.02-37.735-17.11-79.11-62.962-95.659Z" class="cls-10" style="fill:url(#c);stroke-width:1"/><path d="M-126.52 168.809c-44 15.854-86.48-1.35-126.11-40.788-32.81-32.626-77.69-108.644-118.19-148.933-1.29-1.273-2.61-2.506-3.92-3.602-35.46-32.665-86.75-47.756-140.06-28.692-52.88 18.906-86.34 72.583-86.34 127.228.81-31.022 13.6-68.855 58.42-90.041 40.71-19.259 91.04-4.15 130.68 35.239 35.94 35.641 79.13 109.193 119.06 148.924 35.54 35.328 88.01 50.046 143.24 30.298 52.864-18.907 86.182-70.597 86.182-125.262.02 37.696-17.11 79.071-62.962 95.629Z" class="cls-11" style="fill:url(#i);stroke-width:1"/></g></svg>